<svg width="156" height="21" viewBox="0 0 156 21" fill="none" xmlns="http://www.w3.org/2000/svg">
<path d="M1.40154 15.9999V5.81806H5.47825C6.2273 5.81806 6.85207 5.92909 7.35254 6.15116C7.85301 6.37322 8.2292 6.68146 8.48109 7.07587C8.73298 7.46697 8.85893 7.91773 8.85893 8.42815C8.85893 8.82587 8.77939 9.17554 8.6203 9.47715C8.4612 9.77545 8.24245 10.0207 7.96405 10.2129C7.68895 10.4019 7.37408 10.5361 7.01944 10.6156V10.7151C7.40723 10.7316 7.77015 10.841 8.10822 11.0432C8.4496 11.2454 8.72636 11.5288 8.93848 11.8933C9.1506 12.2546 9.25666 12.6855 9.25666 13.186C9.25666 13.7262 9.12243 14.2084 8.85396 14.6327C8.58881 15.0536 8.19605 15.3867 7.67569 15.632C7.15533 15.8772 6.514 15.9999 5.75169 15.9999H1.40154ZM3.55424 14.2399H5.30922C5.90912 14.2399 6.34662 14.1256 6.62172 13.8969C6.89681 13.6649 7.03436 13.3566 7.03436 12.9722C7.03436 12.6905 6.96641 12.4419 6.83052 12.2264C6.69463 12.011 6.50074 11.842 6.24885 11.7193C6.00027 11.5967 5.70363 11.5354 5.35893 11.5354H3.55424V14.2399ZM3.55424 10.0787H5.15012C5.44511 10.0787 5.70694 10.0273 5.93564 9.92459C6.16764 9.81853 6.34994 9.66939 6.48251 9.47715C6.6184 9.28492 6.68635 9.05457 6.68635 8.7861C6.68635 8.4182 6.55543 8.12156 6.29359 7.89618C6.03507 7.67081 5.66717 7.55812 5.1899 7.55812H3.55424V10.0787ZM16.9465 5.81806H19.0992V12.4303C19.0992 13.1727 18.9218 13.8223 18.5672 14.3791C18.2159 14.936 17.7237 15.3701 17.0906 15.6817C16.4576 15.9899 15.7201 16.1441 14.8783 16.1441C14.0331 16.1441 13.294 15.9899 12.661 15.6817C12.0279 15.3701 11.5357 14.936 11.1844 14.3791C10.8331 13.8223 10.6574 13.1727 10.6574 12.4303V5.81806H12.8101V12.2463C12.8101 12.6341 12.8946 12.9788 13.0637 13.2804C13.236 13.582 13.478 13.819 13.7895 13.9914C14.1011 14.1637 14.464 14.2499 14.8783 14.2499C15.2959 14.2499 15.6588 14.1637 15.9671 13.9914C16.2786 13.819 16.5189 13.582 16.6879 13.2804C16.8603 12.9788 16.9465 12.6341 16.9465 12.2463V5.81806ZM23.023 5.81806V15.9999H20.8703V5.81806H23.023ZM24.7941 15.9999V5.81806H26.9468V14.225H31.3119V15.9999H24.7941ZM31.0782 7.59292V5.81806H39.4404V7.59292H36.3232V15.9999H34.1954V7.59292H31.0782ZM53.4143 10.909C53.4143 12.0193 53.2039 12.9639 52.7829 13.7428C52.3653 14.5217 51.7952 15.1166 51.0727 15.5276C50.3535 15.9352 49.5448 16.1391 48.6466 16.1391C47.7417 16.1391 46.9297 15.9336 46.2105 15.5226C45.4913 15.1116 44.9229 14.5167 44.5052 13.7378C44.0876 12.9589 43.8788 12.016 43.8788 10.909C43.8788 9.79865 44.0876 8.85404 44.5052 8.07516C44.9229 7.29628 45.4913 6.703 46.2105 6.29533C46.9297 5.88435 47.7417 5.67885 48.6466 5.67885C49.5448 5.67885 50.3535 5.88435 51.0727 6.29533C51.7952 6.703 52.3653 7.29628 52.7829 8.07516C53.2039 8.85404 53.4143 9.79865 53.4143 10.909ZM51.2318 10.909C51.2318 10.1897 51.1241 9.58321 50.9086 9.08937C50.6965 8.59552 50.3966 8.221 50.0088 7.96579C49.621 7.71058 49.1669 7.58297 48.6466 7.58297C48.1262 7.58297 47.6721 7.71058 47.2844 7.96579C46.8966 8.221 46.595 8.59552 46.3795 9.08937C46.1674 9.58321 46.0613 10.1897 46.0613 10.909C46.0613 11.6282 46.1674 12.2347 46.3795 12.7286C46.595 13.2224 46.8966 13.5969 47.2844 13.8522C47.6721 14.1074 48.1262 14.235 48.6466 14.235C49.1669 14.235 49.621 14.1074 50.0088 13.8522C50.3966 13.5969 50.6965 13.2224 50.9086 12.7286C51.1241 12.2347 51.2318 11.6282 51.2318 10.909ZM63.5253 5.81806V15.9999H61.6659L57.2362 9.5915H57.1617V15.9999H55.009V5.81806H56.8982L61.2931 12.2215H61.3825V5.81806H63.5253Z" fill="black"/>
<path d="M115.517 4.21302V16.0098C115.516 16.0543 115.497 16.0968 115.464 16.1283C115.432 16.1598 115.387 16.1777 115.341 16.1783H114.062C113.768 16.1785 113.479 16.1081 113.221 15.9734C112.963 15.8388 112.745 15.6442 112.585 15.4076L106.779 6.80156L106.979 11.1001V16.0098C106.978 16.0543 106.959 16.0968 106.926 16.1283C106.894 16.1598 106.849 16.1777 106.803 16.1783H105.111C105.065 16.1777 105.021 16.1598 104.988 16.1283C104.955 16.0968 104.936 16.0543 104.936 16.0098V4.21302C104.936 4.1685 104.955 4.12598 104.988 4.0945C105.021 4.06302 105.065 4.04508 105.111 4.04449H106.384C106.677 4.04464 106.965 4.11501 107.223 4.2492C107.481 4.3834 107.7 4.57717 107.86 4.81297L113.666 13.4055L113.485 9.12271V4.21302C113.485 4.16832 113.504 4.12546 113.537 4.09385C113.57 4.06225 113.614 4.04449 113.661 4.04449H115.353C115.397 4.04786 115.438 4.06702 115.469 4.09821C115.499 4.1294 115.516 4.17036 115.517 4.21302Z" fill="black"/>
<path d="M132.806 16.1784H131.016C130.988 16.1781 130.96 16.1715 130.936 16.159C130.911 16.1465 130.89 16.1285 130.874 16.1065C130.858 16.0845 130.847 16.0592 130.843 16.0326C130.84 16.006 130.843 15.979 130.852 15.9537L135.594 4.20637C135.614 4.15719 135.65 4.11523 135.696 4.08626C135.742 4.0573 135.797 4.04274 135.852 4.04459H138.094C138.147 4.04503 138.199 4.06066 138.243 4.08948C138.287 4.1183 138.32 4.159 138.34 4.20637L143.068 15.9537C143.078 15.979 143.08 16.006 143.077 16.0326C143.073 16.0592 143.063 16.0845 143.047 16.1065C143.03 16.1285 143.009 16.1465 142.984 16.159C142.96 16.1715 142.932 16.1781 142.904 16.1784H141.114C141.078 16.1785 141.043 16.1683 141.014 16.1491C140.984 16.1298 140.961 16.1025 140.948 16.0705L137.126 6.40843C137.114 6.3759 137.092 6.34779 137.062 6.32792C137.033 6.30806 136.997 6.2974 136.961 6.2974C136.925 6.2974 136.89 6.30806 136.86 6.32792C136.831 6.34779 136.808 6.3759 136.796 6.40843L132.975 16.0705C132.961 16.1028 132.938 16.1305 132.908 16.1497C132.878 16.169 132.842 16.179 132.806 16.1784Z" fill="black"/>
<path d="M155.495 15.9064L151.938 11.5495C153.946 11.1855 155.12 9.88669 155.12 7.8936C155.12 5.60391 153.567 4.04449 150.818 4.04449H145.858C145.789 4.04449 145.722 4.07101 145.673 4.11821C145.623 4.1654 145.596 4.22941 145.596 4.29616C145.596 4.50862 145.639 4.71899 145.724 4.91528C145.809 5.11156 145.933 5.28991 146.09 5.44014C146.246 5.59037 146.432 5.70954 146.637 5.79085C146.842 5.87215 147.061 5.914 147.283 5.914H150.612C152.273 5.914 153.07 6.72966 153.07 7.90708C153.07 9.08451 152.292 9.92938 150.612 9.92938H145.858C145.788 9.92997 145.722 9.95699 145.672 10.0045C145.623 10.0521 145.596 10.1163 145.596 10.1833V16.0255C145.596 16.0702 145.614 16.113 145.647 16.1447C145.68 16.1763 145.725 16.194 145.771 16.194H147.463C147.509 16.1934 147.554 16.1755 147.587 16.144C147.619 16.1125 147.638 16.07 147.639 16.0255V11.6551H149.591L152.676 15.5177C152.842 15.7244 153.054 15.8916 153.298 16.0062C153.542 16.1208 153.81 16.1797 154.082 16.1783H155.366C155.398 16.1766 155.429 16.1665 155.455 16.1491C155.482 16.1318 155.503 16.1078 155.516 16.0798C155.53 16.0517 155.535 16.0208 155.531 15.9902C155.527 15.9597 155.515 15.9307 155.495 15.9064Z" fill="black"/>
<path d="M127.456 4.04449H119.607C119.545 4.04449 119.486 4.06817 119.442 4.11031C119.398 4.15245 119.373 4.2096 119.373 4.26919C119.373 4.70602 119.554 5.12495 119.876 5.43383C120.198 5.74272 120.635 5.91624 121.09 5.91624H127.456C127.48 5.91655 127.503 5.91239 127.524 5.90403C127.545 5.89567 127.565 5.88327 127.581 5.86756C127.598 5.85185 127.611 5.83315 127.619 5.81257C127.628 5.79198 127.632 5.76993 127.632 5.74772V4.21302C127.632 4.16832 127.614 4.12546 127.581 4.09385C127.548 4.06225 127.503 4.04449 127.456 4.04449ZM127.456 14.3065H121.599C121.552 14.306 121.508 14.288 121.475 14.2565C121.442 14.225 121.424 14.1825 121.423 14.138V11.0956C121.423 11.0509 121.442 11.008 121.475 10.9764C121.508 10.9448 121.552 10.927 121.599 10.927H127.014C127.06 10.927 127.105 10.9093 127.138 10.8777C127.171 10.8461 127.189 10.8032 127.189 10.7585V9.21259C127.189 9.16789 127.171 9.12503 127.138 9.09342C127.105 9.06182 127.06 9.04406 127.014 9.04406H119.635C119.566 9.04466 119.499 9.07167 119.45 9.11922C119.401 9.16678 119.373 9.23102 119.373 9.29797V15.9176C119.373 15.9844 119.401 16.0484 119.45 16.0956C119.499 16.1428 119.566 16.1693 119.635 16.1693H127.456C127.503 16.1693 127.548 16.1515 127.581 16.1199C127.614 16.0883 127.632 16.0455 127.632 16.0008V14.4661C127.63 14.4228 127.611 14.3818 127.578 14.352C127.545 14.3222 127.502 14.3059 127.456 14.3065Z" fill="black"/>
<path d="M92.3281 1.0268L87.9186 7.30266C87.8472 7.39325 87.8141 7.50641 87.8262 7.61941C87.8382 7.7324 87.8944 7.83684 87.9834 7.91172C88.0725 7.98659 88.1878 8.02635 88.3062 8.02299C88.4246 8.01964 88.5372 7.97341 88.6215 7.89362L92.9608 4.29843C92.9858 4.27642 93.017 4.26195 93.0505 4.2568C93.084 4.25164 93.1184 4.25604 93.1493 4.26944C93.1802 4.28283 93.2064 4.30465 93.2245 4.33217C93.2426 4.35969 93.252 4.39171 93.2513 4.42426V15.7244C93.2509 15.7587 93.2397 15.7921 93.219 15.8201C93.1983 15.8481 93.1692 15.8694 93.1356 15.8811C93.102 15.8929 93.0654 15.8945 93.0308 15.8857C92.9962 15.877 92.9653 15.8583 92.942 15.8323L79.8212 0.777381C79.6118 0.535689 79.3497 0.340862 79.0534 0.206559C78.7572 0.0722557 78.4339 0.00172812 78.1062 -7.98914e-05H77.6493C77.0534 -7.98914e-05 76.4818 0.22695 76.0605 0.631067C75.6391 1.03518 75.4023 1.58328 75.4023 2.15479V18.068C75.4023 18.6395 75.6391 19.1876 76.0605 19.5918C76.4818 19.9959 77.0534 20.2229 77.6493 20.2229C78.0332 20.2229 78.4108 20.1284 78.7459 19.9487C79.081 19.7689 79.3625 19.5098 79.5635 19.196L83.973 12.9202C84.0445 12.8296 84.0775 12.7164 84.0655 12.6034C84.0535 12.4904 83.9973 12.386 83.9082 12.3111C83.8192 12.2362 83.7038 12.1965 83.5855 12.1998C83.4671 12.2032 83.3544 12.2494 83.2701 12.3292L78.9309 15.9244C78.9059 15.9464 78.8747 15.9609 78.8412 15.966C78.8076 15.9712 78.7733 15.9668 78.7423 15.9534C78.7114 15.94 78.6853 15.9182 78.6671 15.8907C78.649 15.8631 78.6397 15.8311 78.6404 15.7986V4.50964C78.6407 4.47534 78.652 4.44195 78.6726 4.41394C78.6933 4.38594 78.7224 4.36465 78.756 4.35293C78.7896 4.3412 78.8262 4.3396 78.8608 4.34833C78.8954 4.35706 78.9264 4.37571 78.9496 4.40179L92.0704 19.4567C92.2815 19.6962 92.5445 19.8886 92.8411 20.0206C93.1378 20.1525 93.4608 20.2208 93.7878 20.2207H94.2564C94.5515 20.2207 94.8437 20.1649 95.1163 20.0566C95.3889 19.9483 95.6366 19.7896 95.8452 19.5895C96.0539 19.3894 96.2194 19.1519 96.3323 18.8904C96.4452 18.629 96.5034 18.3488 96.5034 18.0658V2.15479C96.5034 1.87067 96.4448 1.58936 96.331 1.32703C96.2172 1.06471 96.0504 0.826556 95.8403 0.626281C95.6301 0.426005 95.3808 0.267561 95.1066 0.160064C94.8323 0.0525682 94.5386 -0.00185749 94.2424 -7.98914e-05C93.8584 -3.57135e-05 93.4808 0.0943751 93.1457 0.274143C92.8106 0.453911 92.5291 0.713039 92.3281 1.0268Z" fill="black"/>
</svg>
