<svg  viewBox="0 0 324 32" fill="none" xmlns="http://www.w3.org/2000/svg">
<path d="M6.16477 23L1.17045 5.54545H5.2017L8.09091 17.6733H8.2358L11.4233 5.54545H14.875L18.054 17.6989H18.2074L21.0966 5.54545H25.1278L20.1335 23H16.5369L13.2131 11.5881H13.0767L9.76136 23H6.16477ZM31.5945 23.2557C30.2479 23.2557 29.0888 22.983 28.1172 22.4375C27.1513 21.8864 26.407 21.108 25.8842 20.1023C25.3615 19.0909 25.1001 17.8949 25.1001 16.5142C25.1001 15.1676 25.3615 13.9858 25.8842 12.9688C26.407 11.9517 27.1428 11.1591 28.0916 10.5909C29.0462 10.0227 30.1655 9.73864 31.4496 9.73864C32.3132 9.73864 33.1172 9.87784 33.8615 10.1562C34.6115 10.429 35.2649 10.8409 35.8217 11.392C36.3842 11.9432 36.8217 12.6364 37.1342 13.4716C37.4467 14.3011 37.603 15.2727 37.603 16.3864V17.3835H26.549V15.1335H34.1854C34.1854 14.6108 34.0717 14.1477 33.8445 13.7443C33.6172 13.3409 33.3018 13.0256 32.8984 12.7983C32.5007 12.5653 32.0376 12.4489 31.5092 12.4489C30.9581 12.4489 30.4695 12.5767 30.0433 12.8324C29.6229 13.0824 29.2933 13.4205 29.0547 13.8466C28.8161 14.267 28.6939 14.7358 28.6882 15.2528V17.392C28.6882 18.0398 28.8075 18.5994 29.0462 19.071C29.2905 19.5426 29.6342 19.9062 30.0774 20.1619C30.5206 20.4176 31.0462 20.5455 31.6541 20.5455C32.0575 20.5455 32.4268 20.4886 32.7621 20.375C33.0973 20.2614 33.3842 20.0909 33.6229 19.8636C33.8615 19.6364 34.0433 19.358 34.1683 19.0284L37.5263 19.25C37.3558 20.0568 37.0064 20.7614 36.478 21.3636C35.9553 21.9602 35.2791 22.4261 34.4496 22.7614C33.6257 23.0909 32.674 23.2557 31.5945 23.2557ZM43.603 5.54545V23H39.9723V5.54545H43.603ZM52.4261 23.2557C51.0852 23.2557 49.9318 22.9716 48.9659 22.4034C48.0057 21.8295 47.267 21.0341 46.75 20.017C46.2386 19 45.983 17.8295 45.983 16.5057C45.983 15.1648 46.2415 13.9886 46.7585 12.9773C47.2813 11.9602 48.0227 11.1676 48.983 10.5994C49.9432 10.0256 51.0852 9.73864 52.4091 9.73864C53.5511 9.73864 54.5511 9.94602 55.4091 10.3608C56.267 10.7756 56.946 11.358 57.446 12.108C57.946 12.858 58.2216 13.7386 58.2727 14.75H54.8466C54.75 14.0966 54.4943 13.571 54.0795 13.1733C53.6705 12.7699 53.1335 12.5682 52.4688 12.5682C51.9062 12.5682 51.4148 12.7216 50.9943 13.0284C50.5795 13.3295 50.2557 13.7699 50.0227 14.3494C49.7898 14.929 49.6733 15.6307 49.6733 16.4545C49.6733 17.2898 49.7869 18 50.0142 18.5852C50.2472 19.1705 50.5739 19.6165 50.9943 19.9233C51.4148 20.2301 51.9062 20.3835 52.4688 20.3835C52.8835 20.3835 53.2557 20.2983 53.5852 20.1278C53.9205 19.9574 54.196 19.7102 54.4119 19.3864C54.6335 19.0568 54.7784 18.6619 54.8466 18.2017H58.2727C58.2159 19.2017 57.9432 20.0824 57.4545 20.8438C56.9716 21.5994 56.304 22.1903 55.4517 22.6165C54.5994 23.0426 53.5909 23.2557 52.4261 23.2557ZM66.5121 23.2557C65.1882 23.2557 64.0433 22.9744 63.0774 22.4119C62.1172 21.8437 61.3757 21.054 60.853 20.0426C60.3303 19.0256 60.0689 17.8466 60.0689 16.5057C60.0689 15.1534 60.3303 13.9716 60.853 12.9602C61.3757 11.9432 62.1172 11.1534 63.0774 10.5909C64.0433 10.0227 65.1882 9.73864 66.5121 9.73864C67.8359 9.73864 68.978 10.0227 69.9382 10.5909C70.9041 11.1534 71.6484 11.9432 72.1712 12.9602C72.6939 13.9716 72.9553 15.1534 72.9553 16.5057C72.9553 17.8466 72.6939 19.0256 72.1712 20.0426C71.6484 21.054 70.9041 21.8437 69.9382 22.4119C68.978 22.9744 67.8359 23.2557 66.5121 23.2557ZM66.5291 20.4432C67.1314 20.4432 67.6342 20.2727 68.0376 19.9318C68.4411 19.5852 68.745 19.1136 68.9496 18.517C69.1598 17.9205 69.2649 17.2415 69.2649 16.4801C69.2649 15.7188 69.1598 15.0398 68.9496 14.4432C68.745 13.8466 68.4411 13.375 68.0376 13.0284C67.6342 12.6818 67.1314 12.5085 66.5291 12.5085C65.9212 12.5085 65.4098 12.6818 64.995 13.0284C64.5859 13.375 64.2763 13.8466 64.0661 14.4432C63.8615 15.0398 63.7592 15.7188 63.7592 16.4801C63.7592 17.2415 63.8615 17.9205 64.0661 18.517C64.2763 19.1136 64.5859 19.5852 64.995 19.9318C65.4098 20.2727 65.9212 20.4432 66.5291 20.4432ZM75.3161 23V9.90909H78.7763V12.2188H78.9297C79.2024 11.4517 79.657 10.8466 80.2933 10.4034C80.9297 9.96023 81.6911 9.73864 82.5774 9.73864C83.4751 9.73864 84.2393 9.96307 84.87 10.4119C85.5007 10.8551 85.9212 11.4574 86.1314 12.2188H86.2678C86.5348 11.4688 87.0178 10.8693 87.7166 10.4205C88.4212 9.96591 89.2536 9.73864 90.2138 9.73864C91.4354 9.73864 92.4268 10.1278 93.1882 10.9062C93.9553 11.679 94.3388 12.7756 94.3388 14.196V23H90.7166V14.9119C90.7166 14.1847 90.5234 13.6392 90.1371 13.2756C89.7507 12.9119 89.2678 12.7301 88.6882 12.7301C88.0291 12.7301 87.5149 12.9403 87.1456 13.3608C86.7763 13.7756 86.5916 14.3239 86.5916 15.0057V23H83.0717V14.8352C83.0717 14.1932 82.8871 13.6818 82.5178 13.3011C82.1541 12.9205 81.674 12.7301 81.0774 12.7301C80.674 12.7301 80.3104 12.8324 79.9865 13.0369C79.6683 13.2358 79.4155 13.517 79.228 13.8807C79.0405 14.2386 78.9467 14.6591 78.9467 15.142V23H75.3161ZM103.173 23.2557C101.826 23.2557 100.667 22.983 99.6953 22.4375C98.7294 21.8864 97.9851 21.108 97.4624 20.1023C96.9396 19.0909 96.6783 17.8949 96.6783 16.5142C96.6783 15.1676 96.9396 13.9858 97.4624 12.9688C97.9851 11.9517 98.7209 11.1591 99.6697 10.5909C100.624 10.0227 101.744 9.73864 103.028 9.73864C103.891 9.73864 104.695 9.87784 105.44 10.1562C106.19 10.429 106.843 10.8409 107.4 11.392C107.962 11.9432 108.4 12.6364 108.712 13.4716C109.025 14.3011 109.181 15.2727 109.181 16.3864V17.3835H98.1271V15.1335H105.763C105.763 14.6108 105.65 14.1477 105.423 13.7443C105.195 13.3409 104.88 13.0256 104.477 12.7983C104.079 12.5653 103.616 12.4489 103.087 12.4489C102.536 12.4489 102.048 12.5767 101.621 12.8324C101.201 13.0824 100.871 13.4205 100.633 13.8466C100.394 14.267 100.272 14.7358 100.266 15.2528V17.392C100.266 18.0398 100.386 18.5994 100.624 19.071C100.869 19.5426 101.212 19.9062 101.656 20.1619C102.099 20.4176 102.624 20.5455 103.232 20.5455C103.636 20.5455 104.005 20.4886 104.34 20.375C104.675 20.2614 104.962 20.0909 105.201 19.8636C105.44 19.6364 105.621 19.358 105.746 19.0284L109.104 19.25C108.934 20.0568 108.585 20.7614 108.056 21.3636C107.533 21.9602 106.857 22.4261 106.028 22.7614C105.204 23.0909 104.252 23.2557 103.173 23.2557ZM124.068 9.90909V12.6364H116.185V9.90909H124.068ZM117.974 6.77273H121.605V18.9773C121.605 19.3125 121.656 19.5739 121.759 19.7614C121.861 19.9432 122.003 20.071 122.185 20.1449C122.372 20.2187 122.588 20.2557 122.832 20.2557C123.003 20.2557 123.173 20.2415 123.344 20.2131C123.514 20.179 123.645 20.1534 123.736 20.1364L124.307 22.8381C124.125 22.8949 123.869 22.9602 123.54 23.0341C123.21 23.1136 122.81 23.1619 122.338 23.179C121.463 23.2131 120.696 23.0966 120.037 22.8295C119.384 22.5625 118.875 22.1477 118.511 21.5852C118.148 21.0227 117.969 20.3125 117.974 19.4545V6.77273ZM132.207 23.2557C130.884 23.2557 129.739 22.9744 128.773 22.4119C127.813 21.8437 127.071 21.054 126.548 20.0426C126.026 19.0256 125.764 17.8466 125.764 16.5057C125.764 15.1534 126.026 13.9716 126.548 12.9602C127.071 11.9432 127.813 11.1534 128.773 10.5909C129.739 10.0227 130.884 9.73864 132.207 9.73864C133.531 9.73864 134.673 10.0227 135.634 10.5909C136.599 11.1534 137.344 11.9432 137.866 12.9602C138.389 13.9716 138.651 15.1534 138.651 16.5057C138.651 17.8466 138.389 19.0256 137.866 20.0426C137.344 21.054 136.599 21.8437 135.634 22.4119C134.673 22.9744 133.531 23.2557 132.207 23.2557ZM132.224 20.4432C132.827 20.4432 133.33 20.2727 133.733 19.9318C134.136 19.5852 134.44 19.1136 134.645 18.517C134.855 17.9205 134.96 17.2415 134.96 16.4801C134.96 15.7188 134.855 15.0398 134.645 14.4432C134.44 13.8466 134.136 13.375 133.733 13.0284C133.33 12.6818 132.827 12.5085 132.224 12.5085C131.616 12.5085 131.105 12.6818 130.69 13.0284C130.281 13.375 129.972 13.8466 129.761 14.4432C129.557 15.0398 129.455 15.7188 129.455 16.4801C129.455 17.2415 129.557 17.9205 129.761 18.517C129.972 19.1136 130.281 19.5852 130.69 19.9318C131.105 20.2727 131.616 20.4432 132.224 20.4432Z" fill="black"/>
<path fill-rule="evenodd" clip-rule="evenodd" d="M246.453 16.7417C246.453 14.3723 244.856 12.6191 242.541 12.6191C240.249 12.6191 238.674 14.3723 238.674 16.7417C238.674 19.0875 240.249 20.8644 242.541 20.8644C244.856 20.8644 246.453 19.0875 246.453 16.7417ZM235.619 16.7418C235.619 12.9032 238.304 9.82288 241.939 9.82288C244.208 9.82288 245.967 11.0785 246.778 12.8083H246.87V10.2019H249.695V23.3051H246.87V20.7462H246.778C245.666 22.8078 244 23.6604 241.939 23.6604C238.304 23.6604 235.619 20.5804 235.619 16.7418Z" fill="black"/>
<path fill-rule="evenodd" clip-rule="evenodd" d="M252.82 10.202H264.372V23.3053H261.502V12.9745H255.69V23.3053H252.82V10.202Z" fill="black"/>
<path fill-rule="evenodd" clip-rule="evenodd" d="M277.313 16.7421C277.313 14.3726 275.715 12.6194 273.423 12.6194C271.108 12.6194 269.557 14.3726 269.557 16.7421C269.557 19.0878 271.108 20.8647 273.423 20.8647C275.715 20.8647 277.313 19.0878 277.313 16.7421ZM266.501 16.7422C266.501 12.9036 269.187 9.8233 272.66 9.8233C274.928 9.8233 276.757 11.0789 277.568 12.8087H277.661V6.50604H280.577V23.3055H277.753V20.7466H277.637C276.526 22.8082 274.697 23.6608 272.66 23.6608C269.187 23.6608 266.501 20.5808 266.501 16.7422Z" fill="black"/>
<path fill-rule="evenodd" clip-rule="evenodd" d="M287.385 6.50586H297.895V9.2543H290.255V13.496H296.599V16.2681H290.255V23.3057H287.385V6.50586Z" fill="black"/>
<path fill-rule="evenodd" clip-rule="evenodd" d="M309.284 16.7418C309.284 14.3723 307.687 12.6191 305.371 12.6191C303.079 12.6191 301.505 14.3723 301.505 16.7418C301.505 19.0875 303.079 20.8645 305.371 20.8645C307.687 20.8645 309.284 19.0875 309.284 16.7418ZM298.449 16.7418C298.449 12.9032 301.135 9.82288 304.769 9.82288C307.038 9.82288 308.798 11.0785 309.608 12.8083H309.701V10.2019H312.525V23.3051H309.701V20.7462H309.608C308.497 22.8078 306.83 23.6604 304.769 23.6604C301.135 23.6604 298.449 20.5804 298.449 16.7418Z" fill="black"/>
<path fill-rule="evenodd" clip-rule="evenodd" d="M315.65 10.202H323.36V12.9745H318.568V23.3053H315.65V10.202Z" fill="black"/>
<path fill-rule="evenodd" clip-rule="evenodd" d="M188.298 6.50586H198.788V9.24922H191.163V13.4824H197.495V16.2498H191.163V23.2738H188.298V6.50586Z" fill="black"/>
<path fill-rule="evenodd" clip-rule="evenodd" d="M213.692 10.1952H216.673L219.123 19.0873L221.41 10.1952H223.929L226.216 19.0873L228.643 10.1952H231.624L227.996 23.2737H224.946L222.658 14.3812L220.394 23.2737H217.343L213.692 10.1952Z" fill="black"/>
<path fill-rule="evenodd" clip-rule="evenodd" d="M206.252 12.6074C208.286 12.6074 209.787 13.9084 210.042 15.4691H202.485C202.693 13.8139 204.218 12.6074 206.252 12.6074ZM209.77 18.8037H209.741C209.141 20.1285 207.87 20.8617 206.345 20.8617C204.403 20.8617 202.763 19.5132 202.439 17.716H213.162C213.231 17.3611 213.254 16.9828 213.254 16.7699C213.254 12.8442 210.204 9.84045 206.299 9.84045C202.393 9.84045 199.343 12.8442 199.343 16.6753C199.343 20.5068 202.393 23.6284 206.299 23.6284C208.887 23.6284 211.048 22.3037 212.253 20.3L209.77 18.8037Z" fill="black"/>
<path fill-rule="evenodd" clip-rule="evenodd" d="M149.615 1.24469L149.717 20.0042L152.937 19.9855L152.854 4.54045H167.961V1.24469H149.615ZM157.412 9.22679L157.522 20.0116L160.742 19.9772L160.666 12.5226H167.96V9.22679H157.412ZM171.32 23.2645H160.773V19.9688H168.066L167.99 12.5138L171.21 12.4793L171.32 23.2645ZM160.773 31.2467H179.118L179.016 12.4869L175.796 12.5055L175.88 27.951H160.773V31.2467Z" fill="url(#paint0_radial_48_1355)"/>
<defs>
<radialGradient id="paint0_radial_48_1355" cx="0" cy="0" r="1" gradientUnits="userSpaceOnUse" gradientTransform="translate(156.102 21.8982) rotate(-43.8202) scale(21.9426 21.9608)">
<stop stop-color="#B2CF67"/>
<stop offset="0.159415" stop-color="#B2CF67"/>
<stop offset="0.565969" stop-color="#75CED7"/>
<stop offset="1" stop-color="#B6B7F8"/>
</radialGradient>
</defs>
</svg>
