<svg width="28" height="27" viewBox="0 0 28 27" fill="none" xmlns="http://www.w3.org/2000/svg">
<circle cx="14.1097" cy="13.5001" r="13.1624" fill="currentColor"/>
<path d="M5.77898 13.307C10.7367 11.2299 17.1523 8.6974 18.0379 8.34688C20.3609 7.42946 21.0737 7.60528 20.7183 9.63698C20.4631 11.0973 19.7266 15.9319 19.1396 18.9412C18.7913 20.7257 18.0099 20.9372 16.7811 20.1651C16.1902 19.7936 13.2076 17.9152 12.5603 17.4741C11.9694 17.0721 11.1544 16.5886 12.1765 15.6363C12.5402 15.297 14.9243 13.129 16.7819 11.4414C17.0253 11.2197 16.7196 10.8557 16.4387 11.0334C13.935 12.6147 10.4637 14.8094 10.0219 15.0953C9.35444 15.527 8.71343 15.7249 7.56276 15.4101C6.69335 15.1723 5.84406 14.8887 5.5135 14.7805C4.24055 14.3642 4.54271 13.8251 5.77898 13.307Z" fill="none"/>
</svg>
