<svg width="28" height="27" viewBox="0 0 28 27" fill="none" xmlns="http://www.w3.org/2000/svg">
<circle cx="14.1077" cy="13.5001" r="13.1624" fill="currentColor"/>
<path d="M20.8877 10.9506C20.8979 11.0934 20.8979 11.2361 20.8979 11.3789C20.8979 15.733 17.5946 20.75 11.5571 20.75C9.697 20.75 7.96911 20.2095 6.51562 19.2714C6.7799 19.302 7.03398 19.3122 7.30843 19.3122C8.84319 19.3122 10.256 18.7922 11.3843 17.905C9.94094 17.8744 8.7314 16.9261 8.31467 15.6209C8.51797 15.6514 8.72124 15.6718 8.9347 15.6718C9.22945 15.6718 9.52424 15.631 9.79865 15.5597C8.29436 15.2538 7.1661 13.9282 7.1661 12.3272V12.2864C7.60315 12.5312 8.1114 12.6841 8.65006 12.7045C7.76577 12.1131 7.18644 11.1036 7.18644 9.96148C7.18644 9.34967 7.34904 8.78883 7.63365 8.29937C9.24976 10.298 11.679 11.6032 14.403 11.746C14.3522 11.5012 14.3217 11.2463 14.3217 10.9914C14.3217 9.17631 15.7853 7.69775 17.6047 7.69775C18.5499 7.69775 19.4037 8.09544 20.0034 8.73785C20.7454 8.5951 21.4569 8.31977 22.0871 7.94249C21.8431 8.70728 21.3248 9.3497 20.6438 9.75755C21.3044 9.68621 21.9448 9.50262 22.5343 9.24772C22.0871 9.90031 21.5281 10.4815 20.8877 10.9506Z" fill="none"/>
</svg>
