<svg width="231" height="231" viewBox="0 0 231 231" fill="none" xmlns="http://www.w3.org/2000/svg">
<g filter="url(#filter0_d_6924_2175)">
<rect x="3" width="225" height="225" rx="20" fill="#F4F4F4"/>
<mask id="mask0_6924_2175" style="mask-type:alpha" maskUnits="userSpaceOnUse" x="3" y="0" width="225" height="225">
<rect x="3" width="225" height="225" rx="20" fill="#F4F4F4"/>
</mask>
<g mask="url(#mask0_6924_2175)">
</g>
<mask id="path-3-inside-1_6924_2175" fill="white">
<path fill-rule="evenodd" clip-rule="evenodd" d="M49.0188 154.684L48.8598 154.525L95.9302 107.453C91.6877 105.74 87.2905 104.761 82.6845 105.05C77.6368 105.366 73.1898 107.105 69.5392 110.772C61.7278 118.62 53.896 126.448 46.064 134.277C42.0354 138.304 38.0068 142.331 33.9809 146.36C33.3307 147.01 32.6857 147.674 32.1216 148.397C29.197 152.142 28.0062 156.456 28.001 162.251C27.967 165.089 28.8105 168.858 30.2467 172.498C33.0017 179.449 37.373 185.226 43.1179 189.984C47.1915 193.358 51.7091 195.951 56.7777 197.515C60.8461 198.771 64.985 199.377 69.2493 198.75C73.8243 198.079 77.6943 196.076 80.9454 192.789C83.6272 190.075 86.3293 187.379 89.0311 184.684C90.9963 182.724 92.9613 180.764 94.9185 178.797C98.1794 175.519 101.436 172.237 104.692 168.955C108.671 164.943 112.651 160.932 116.639 156.929C118.854 154.706 120.272 152.048 121.139 149.068C122.147 145.605 122.209 142.091 121.64 138.56C121.197 135.813 120.458 133.144 119.347 130.591L104.877 145.061C104.57 145.588 104.151 146.071 103.672 146.548C95.2285 154.953 86.8064 163.378 78.3837 171.804C76.1155 174.073 73.8473 176.342 71.5786 178.611C71.3128 178.877 71.0435 179.14 70.7741 179.402C70.1756 179.986 69.577 180.569 69.0169 181.189C68.2022 182.09 67.2308 182.413 66.0426 182.421C64.1677 182.432 62.3737 182.063 60.6581 181.364C54.0332 178.661 49.2284 174.005 46.1522 167.581C45.1208 165.426 44.5097 163.139 44.6142 160.694C44.6638 159.564 45.0241 158.673 45.8363 157.861C46.8973 156.802 47.9581 155.743 49.0188 154.684Z"/>
</mask>
<g filter="url(#filter1_i_6924_2175)">
<path fill-rule="evenodd" clip-rule="evenodd" d="M49.0188 154.684L48.8598 154.525L95.9302 107.453C91.6877 105.74 87.2905 104.761 82.6845 105.05C77.6368 105.366 73.1898 107.105 69.5392 110.772C61.7278 118.62 53.896 126.448 46.064 134.277C42.0354 138.304 38.0068 142.331 33.9809 146.36C33.3307 147.01 32.6857 147.674 32.1216 148.397C29.197 152.142 28.0062 156.456 28.001 162.251C27.967 165.089 28.8105 168.858 30.2467 172.498C33.0017 179.449 37.373 185.226 43.1179 189.984C47.1915 193.358 51.7091 195.951 56.7777 197.515C60.8461 198.771 64.985 199.377 69.2493 198.75C73.8243 198.079 77.6943 196.076 80.9454 192.789C83.6272 190.075 86.3293 187.379 89.0311 184.684C90.9963 182.724 92.9613 180.764 94.9185 178.797C98.1794 175.519 101.436 172.237 104.692 168.955C108.671 164.943 112.651 160.932 116.639 156.929C118.854 154.706 120.272 152.048 121.139 149.068C122.147 145.605 122.209 142.091 121.64 138.56C121.197 135.813 120.458 133.144 119.347 130.591L104.877 145.061C104.57 145.588 104.151 146.071 103.672 146.548C95.2285 154.953 86.8064 163.378 78.3837 171.804C76.1155 174.073 73.8473 176.342 71.5786 178.611C71.3128 178.877 71.0435 179.14 70.7741 179.402C70.1756 179.986 69.577 180.569 69.0169 181.189C68.2022 182.09 67.2308 182.413 66.0426 182.421C64.1677 182.432 62.3737 182.063 60.6581 181.364C54.0332 178.661 49.2284 174.005 46.1522 167.581C45.1208 165.426 44.5097 163.139 44.6142 160.694C44.6638 159.564 45.0241 158.673 45.8363 157.861C46.8973 156.802 47.9581 155.743 49.0188 154.684Z" fill="#DEDEDE"/>
</g>
<path d="M49.0188 154.684L50.432 156.099L51.8482 154.685L50.433 153.27L49.0188 154.684ZM48.8598 154.525L47.4456 153.111L46.0314 154.525L47.4456 155.939L48.8598 154.525ZM95.9302 107.453L97.3444 108.867L99.4818 106.729L96.6788 105.598L95.9302 107.453ZM82.6845 105.05L82.8095 107.046L82.8097 107.046L82.6845 105.05ZM69.5392 110.772L68.1219 109.361L68.1217 109.361L69.5392 110.772ZM46.064 134.277L44.6501 132.862L46.064 134.277ZM33.9809 146.36L35.3951 147.774L35.3958 147.774L33.9809 146.36ZM32.1216 148.397L33.6979 149.628L33.6988 149.627L32.1216 148.397ZM28.001 162.251L30.0008 162.275L30.001 162.264L30.001 162.252L28.001 162.251ZM30.2467 172.498L28.3863 173.232L28.3874 173.235L30.2467 172.498ZM43.1179 189.984L44.3936 188.444L44.3936 188.444L43.1179 189.984ZM56.7777 197.515L57.3677 195.604L57.3674 195.604L56.7777 197.515ZM69.2493 198.75L68.959 196.772L68.9585 196.772L69.2493 198.75ZM80.9454 192.789L82.3675 194.195L82.3679 194.194L80.9454 192.789ZM89.0311 184.684L90.4436 186.1L89.0311 184.684ZM94.9185 178.797L93.5007 177.386L93.5007 177.386L94.9185 178.797ZM104.692 168.955L106.111 170.363L104.692 168.955ZM116.639 156.929L115.223 155.517L115.223 155.517L116.639 156.929ZM121.139 149.068L119.218 148.509L119.218 148.509L121.139 149.068ZM121.64 138.56L123.615 138.242L123.615 138.241L121.64 138.56ZM119.347 130.591L121.181 129.793L120.009 127.1L117.933 129.177L119.347 130.591ZM104.877 145.061L103.463 143.647L103.28 143.83L103.15 144.053L104.877 145.061ZM103.672 146.548L102.261 145.131L102.261 145.131L103.672 146.548ZM78.3837 171.804L76.9692 170.39L78.3837 171.804ZM71.5786 178.611L70.1644 177.197H70.1643L71.5786 178.611ZM70.7741 179.402L72.1702 180.834L72.1702 180.834L70.7741 179.402ZM69.0169 181.189L70.5003 182.53L70.5005 182.53L69.0169 181.189ZM66.0426 182.421L66.0537 184.421L66.0558 184.421L66.0426 182.421ZM60.6581 181.364L59.9026 183.215L59.9027 183.215L60.6581 181.364ZM46.1522 167.581L44.3483 168.444L44.3484 168.444L46.1522 167.581ZM44.6142 160.694L42.6161 160.607L42.616 160.609L44.6142 160.694ZM45.8363 157.861L44.4234 156.445L44.422 156.447L45.8363 157.861ZM50.433 153.27L50.274 153.111L47.4456 155.939L47.6046 156.098L50.433 153.27ZM50.274 155.939L97.3444 108.867L94.516 106.038L47.4456 153.111L50.274 155.939ZM82.8097 107.046C87.0438 106.781 91.1383 107.675 95.1816 109.307L96.6788 105.598C92.237 103.805 87.5372 102.742 82.5593 103.054L82.8097 107.046ZM70.9564 112.183C74.2156 108.91 78.1793 107.336 82.8095 107.046L82.5596 103.054C77.0944 103.396 72.164 105.301 68.1219 109.361L70.9564 112.183ZM47.4779 135.691C55.3096 127.863 63.1433 120.033 70.9567 112.183L68.1217 109.361C60.3124 117.207 52.4824 125.033 44.6501 132.862L47.4779 135.691ZM35.3958 147.774C39.4211 143.745 43.4493 139.718 47.4779 135.691L44.6501 132.862C40.6216 136.889 36.5925 140.916 32.566 144.947L35.3958 147.774ZM33.6988 149.627C34.1807 149.009 34.749 148.421 35.3951 147.774L32.5667 144.946C31.9124 145.6 31.1907 146.339 30.5444 147.167L33.6988 149.627ZM30.001 162.252C30.0059 156.76 31.1242 152.923 33.6979 149.628L30.5454 147.166C27.2697 151.36 26.0065 156.152 26.001 162.249L30.001 162.252ZM32.1072 171.764C30.7281 168.268 29.971 164.767 30.0008 162.275L26.0011 162.227C25.963 165.411 26.8929 169.447 28.3863 173.232L32.1072 171.764ZM44.3936 188.444C38.8868 183.883 34.7275 178.376 32.106 171.761L28.3874 173.235C31.2758 180.523 35.8591 186.569 41.8422 191.524L44.3936 188.444ZM57.3674 195.604C52.5815 194.127 48.2925 191.673 44.3936 188.444L41.8422 191.524C46.0906 195.043 50.8367 197.775 56.1879 199.426L57.3674 195.604ZM68.9585 196.772C65.0734 197.343 61.2455 196.802 57.3677 195.604L56.1877 199.426C60.4466 200.741 64.8967 201.412 69.5401 200.729L68.9585 196.772ZM79.5232 191.382C76.5681 194.371 73.0919 196.165 68.959 196.772L69.5396 200.729C74.5568 199.993 78.8204 197.782 82.3675 194.195L79.5232 191.382ZM87.6186 183.268C84.9176 185.963 82.2106 188.663 79.5228 191.383L82.3679 194.194C85.0439 191.487 87.7409 188.796 90.4436 186.1L87.6186 183.268ZM93.5007 177.386C91.5466 179.35 89.5842 181.308 87.6186 183.268L90.4436 186.1C92.4083 184.14 94.376 182.178 96.3363 180.207L93.5007 177.386ZM103.272 167.546C100.015 170.829 96.7604 174.11 93.5007 177.386L96.3363 180.207C99.5984 176.929 102.856 173.645 106.111 170.363L103.272 167.546ZM115.223 155.517C111.232 159.522 107.251 163.535 103.272 167.546L106.111 170.363C110.091 166.351 114.07 162.341 118.056 158.34L115.223 155.517ZM119.218 148.509C118.428 151.225 117.161 153.571 115.223 155.517L118.056 158.34C120.546 155.841 122.115 152.871 123.059 149.627L119.218 148.509ZM119.666 138.878C120.197 142.177 120.128 145.385 119.218 148.509L123.059 149.627C124.166 145.826 124.221 142.004 123.615 138.242L119.666 138.878ZM117.513 131.389C118.549 133.77 119.246 136.276 119.666 138.879L123.615 138.241C123.148 135.35 122.366 132.517 121.181 129.793L117.513 131.389ZM117.933 129.177L103.463 143.647L106.291 146.475L120.761 132.005L117.933 129.177ZM105.082 147.966C105.617 147.434 106.172 146.81 106.605 146.069L103.15 144.053C102.967 144.366 102.685 144.709 102.261 145.131L105.082 147.966ZM79.7982 173.218C88.2212 164.792 96.6415 156.368 105.083 147.966L102.261 145.131C93.8155 153.537 85.3916 161.964 76.9692 170.39L79.7982 173.218ZM72.9928 180.025C75.2617 177.756 77.53 175.487 79.7982 173.218L76.9692 170.39C74.701 172.659 72.4329 174.928 70.1644 177.197L72.9928 180.025ZM72.1702 180.834C72.438 180.573 72.7165 180.302 72.9928 180.025L70.1643 177.197C69.9091 177.452 69.6489 177.706 69.3781 177.97L72.1702 180.834ZM70.5005 182.53C71.0112 181.965 71.5641 181.425 72.1702 180.834L69.3781 177.97C68.7871 178.546 68.1428 179.173 67.5333 179.847L70.5005 182.53ZM66.0558 184.421C67.6657 184.411 69.2254 183.94 70.5003 182.53L67.5335 179.847C67.1789 180.239 66.7958 180.416 66.0294 180.421L66.0558 184.421ZM59.9027 183.215C61.8483 184.009 63.9021 184.433 66.0537 184.421L66.0315 180.421C64.4333 180.43 62.8991 180.118 61.4135 179.512L59.9027 183.215ZM44.3484 168.444C47.631 175.3 52.8005 180.318 59.9026 183.215L61.4136 179.512C55.2659 177.004 50.8257 172.71 47.9561 166.717L44.3484 168.444ZM42.616 160.609C42.4944 163.454 43.2107 166.068 44.3483 168.444L47.9561 166.717C47.0309 164.784 46.525 162.823 46.6123 160.78L42.616 160.609ZM44.422 156.447C43.2308 157.638 42.686 159.013 42.6161 160.607L46.6122 160.782C46.6416 160.114 46.8174 159.708 47.2505 159.275L44.422 156.447ZM47.6056 153.269C46.5451 154.328 45.4843 155.386 44.4234 156.445L47.2491 159.276C48.3102 158.217 49.3711 157.158 50.432 156.099L47.6056 153.269Z" fill="#F4F4F4" mask="url(#path-3-inside-1_6924_2175)"/>
<mask id="path-5-inside-2_6924_2175" fill="white">
<path fill-rule="evenodd" clip-rule="evenodd" d="M112.134 68.3868C109.152 72.1657 107.964 76.527 108.003 81.7683C107.939 85.5155 108.971 89.4869 110.551 93.3426L125.209 78.6913C125.485 78.2585 125.841 77.856 126.243 77.4567C132.504 71.2202 138.744 64.9646 144.985 58.7087C147.065 56.6235 149.145 54.5383 151.226 52.4537C152.167 51.5114 153.111 50.572 154.055 49.6326C156.343 47.3568 158.63 45.0811 160.875 42.7649C161.818 41.7908 162.91 41.4618 164.141 41.5166C165.442 41.5741 166.738 41.7673 168.003 42.159C172.99 43.7077 176.943 46.7371 180.23 50.6936C182.846 53.8405 184.703 57.3687 185.333 61.4688C185.631 63.4066 185.236 65.0153 183.745 66.4751C180.077 70.0626 176.459 73.7014 172.841 77.3401C171.365 78.8243 169.889 80.3085 168.41 81.7892C166.449 83.7525 164.487 85.7148 162.526 87.677C158.042 92.1619 153.559 96.6463 149.086 101.141C148.846 101.383 148.6 101.607 148.34 101.796L133.744 116.386C133.762 116.394 133.781 116.402 133.8 116.409C134.519 116.71 135.239 117.012 135.978 117.257C140.401 118.727 144.916 119.448 149.577 118.703C153.982 118.001 157.755 116.066 160.88 112.872C161.453 112.287 162.025 111.701 162.597 111.115C164.803 108.858 167.008 106.601 169.236 104.366C170.677 102.919 172.118 101.472 173.559 100.024C181.081 92.4702 188.604 84.9152 196.168 77.4045C200.328 73.273 202.003 68.1909 202 62.5265C201.997 58.1234 200.895 53.8823 199.061 49.8683C195.243 41.5088 189.336 34.9747 181.49 30.2295C175.914 26.858 169.899 24.8079 163.289 25.0142C157.951 25.1814 153.287 26.9572 149.444 30.8275C141.365 38.9616 133.262 47.07 125.158 55.1787C121.403 58.9363 117.648 62.694 113.895 66.4542C113.281 67.0706 112.672 67.7052 112.134 68.3868Z"/>
</mask>
<g filter="url(#filter2_i_6924_2175)">
<path fill-rule="evenodd" clip-rule="evenodd" d="M112.134 68.3868C109.152 72.1657 107.964 76.527 108.003 81.7683C107.939 85.5155 108.971 89.4869 110.551 93.3426L125.209 78.6913C125.485 78.2585 125.841 77.856 126.243 77.4567C132.504 71.2202 138.744 64.9646 144.985 58.7087C147.065 56.6235 149.145 54.5383 151.226 52.4537C152.167 51.5114 153.111 50.572 154.055 49.6326C156.343 47.3568 158.63 45.0811 160.875 42.7649C161.818 41.7908 162.91 41.4618 164.141 41.5166C165.442 41.5741 166.738 41.7673 168.003 42.159C172.99 43.7077 176.943 46.7371 180.23 50.6936C182.846 53.8405 184.703 57.3687 185.333 61.4688C185.631 63.4066 185.236 65.0153 183.745 66.4751C180.077 70.0626 176.459 73.7014 172.841 77.3401C171.365 78.8243 169.889 80.3085 168.41 81.7892C166.449 83.7525 164.487 85.7148 162.526 87.677C158.042 92.1619 153.559 96.6463 149.086 101.141C148.846 101.383 148.6 101.607 148.34 101.796L133.744 116.386C133.762 116.394 133.781 116.402 133.8 116.409C134.519 116.71 135.239 117.012 135.978 117.257C140.401 118.727 144.916 119.448 149.577 118.703C153.982 118.001 157.755 116.066 160.88 112.872C161.453 112.287 162.025 111.701 162.597 111.115C164.803 108.858 167.008 106.601 169.236 104.366C170.677 102.919 172.118 101.472 173.559 100.024C181.081 92.4702 188.604 84.9152 196.168 77.4045C200.328 73.273 202.003 68.1909 202 62.5265C201.997 58.1234 200.895 53.8823 199.061 49.8683C195.243 41.5088 189.336 34.9747 181.49 30.2295C175.914 26.858 169.899 24.8079 163.289 25.0142C157.951 25.1814 153.287 26.9572 149.444 30.8275C141.365 38.9616 133.262 47.07 125.158 55.1787C121.403 58.9363 117.648 62.694 113.895 66.4542C113.281 67.0706 112.672 67.7052 112.134 68.3868Z" fill="#DEDEDE"/>
</g>
<path d="M108.003 81.7683L110.002 81.8022L110.003 81.7778L110.003 81.7534L108.003 81.7683ZM112.134 68.3868L110.564 67.1473L110.563 67.1481L112.134 68.3868ZM110.551 93.3426L108.7 94.1009L109.839 96.8813L111.965 94.7571L110.551 93.3426ZM125.209 78.6913L126.623 80.1059L126.777 79.9513L126.895 79.767L125.209 78.6913ZM126.243 77.4567L127.653 78.8749L127.654 78.8737L126.243 77.4567ZM144.985 58.7087L146.401 60.1212L144.985 58.7087ZM151.226 52.4537L149.811 51.0403L149.81 51.0408L151.226 52.4537ZM154.055 49.6326L152.645 48.2148L152.645 48.2148L154.055 49.6326ZM160.875 42.7649L162.311 44.1569L162.312 44.1562L160.875 42.7649ZM164.141 41.5166L164.052 43.5146L164.053 43.5147L164.141 41.5166ZM168.003 42.159L168.596 40.249L168.594 40.2486L168.003 42.159ZM180.23 50.6936L178.692 51.9716L178.692 51.9719L180.23 50.6936ZM185.333 61.4688L183.356 61.7724L183.356 61.7727L185.333 61.4688ZM183.745 66.4751L185.143 67.9048L185.143 67.9046L183.745 66.4751ZM172.841 77.3401L174.259 78.7503L172.841 77.3401ZM168.41 81.7892L166.995 80.3758L166.995 80.3758L168.41 81.7892ZM162.526 87.677L161.111 86.263L162.526 87.677ZM149.086 101.141L147.668 99.73L147.667 99.7311L149.086 101.141ZM148.34 101.796L147.16 100.182L147.035 100.273L146.926 100.382L148.34 101.796ZM133.744 116.386L132.33 114.972L130.22 117.08L132.972 118.231L133.744 116.386ZM133.8 116.409L134.572 114.564L134.571 114.564L133.8 116.409ZM135.978 117.257L136.609 115.359L136.607 115.358L135.978 117.257ZM149.577 118.703L149.262 116.728L149.262 116.728L149.577 118.703ZM160.88 112.872L159.451 111.473L159.451 111.473L160.88 112.872ZM162.597 111.115L161.167 109.718V109.718L162.597 111.115ZM169.236 104.366L170.652 105.778L170.653 105.778L169.236 104.366ZM173.559 100.024L174.977 101.436L173.559 100.024ZM196.168 77.4045L197.577 78.8237L197.578 78.8235L196.168 77.4045ZM202 62.5265L204 62.5256V62.5253L202 62.5265ZM199.061 49.8683L197.241 50.6991L197.242 50.6995L199.061 49.8683ZM181.49 30.2295L182.525 28.5181L182.525 28.5181L181.49 30.2295ZM163.289 25.0142L163.227 23.0152L163.227 23.0152L163.289 25.0142ZM149.444 30.8275L150.863 32.2369L150.863 32.2368L149.444 30.8275ZM125.158 55.1787L126.573 56.5925L125.158 55.1787ZM113.895 66.4542L112.479 65.0414L112.478 65.0427L113.895 66.4542ZM110.003 81.7534C109.966 76.8505 111.069 72.9659 113.704 69.6255L110.563 67.1481C107.236 71.3655 105.961 76.2035 106.003 81.7833L110.003 81.7534ZM112.401 92.5842C110.879 88.8683 109.945 85.1789 110.002 81.8022L106.003 81.7345C105.933 85.852 107.063 90.1055 108.7 94.1009L112.401 92.5842ZM111.965 94.7571L126.623 80.1059L123.795 77.2768L109.137 91.928L111.965 94.7571ZM124.832 76.0385C124.381 76.4869 123.911 77.0073 123.523 77.6156L126.895 79.767C127.059 79.5098 127.301 79.2251 127.653 78.8749L124.832 76.0385ZM143.569 57.2962C137.328 63.5525 131.089 69.8058 124.831 76.0397L127.654 78.8737C133.918 72.6346 140.16 66.3767 146.401 60.1212L143.569 57.2962ZM149.81 51.0408C147.729 53.1256 145.649 55.2111 143.569 57.2962L146.401 60.1212C148.481 58.036 150.561 55.951 152.641 53.8667L149.81 51.0408ZM152.645 48.2148C151.701 49.1539 150.755 50.0955 149.811 51.0403L152.641 53.8671C153.58 52.9274 154.522 51.9901 155.466 51.0503L152.645 48.2148ZM159.439 41.3729C157.208 43.674 154.934 45.9369 152.645 48.2148L155.466 51.0503C157.751 48.7766 160.051 46.4883 162.311 44.1569L159.439 41.3729ZM164.23 39.5186C162.522 39.4424 160.841 39.9249 159.438 41.3737L162.312 44.1562C162.795 43.6567 163.299 43.4811 164.052 43.5146L164.23 39.5186ZM168.594 40.2486C167.138 39.7974 165.669 39.5821 164.229 39.5185L164.053 43.5147C165.216 43.566 166.338 43.7372 167.411 44.0695L168.594 40.2486ZM181.769 49.4155C178.293 45.2316 174.031 41.9368 168.596 40.249L167.41 44.0691C171.949 45.4786 175.594 48.2426 178.692 51.9716L181.769 49.4155ZM187.31 61.1652C186.613 56.6288 184.56 52.774 181.768 49.4152L178.692 51.9719C181.132 54.907 182.794 58.1086 183.356 61.7724L187.31 61.1652ZM185.143 67.9046C186.099 66.9698 186.768 65.9176 187.126 64.7255C187.48 63.545 187.492 62.3467 187.31 61.165L183.356 61.7727C183.473 62.5286 183.436 63.1036 183.294 63.5769C183.156 64.0386 182.882 64.5206 182.346 65.0457L185.143 67.9046ZM174.259 78.7503C177.879 75.1099 181.488 71.4809 185.143 67.9048L182.346 65.0455C178.667 68.6442 175.039 72.2928 171.423 75.9299L174.259 78.7503ZM169.825 83.2027C171.306 81.7201 172.784 80.2343 174.259 78.7503L171.423 75.9299C169.947 77.4144 168.472 78.897 166.995 80.3758L169.825 83.2027ZM163.94 89.091C165.902 87.1289 167.864 85.1663 169.825 83.2026L166.995 80.3758C165.034 82.3387 163.073 84.3007 161.111 86.263L163.94 89.091ZM150.504 102.552C154.975 98.059 159.456 93.5761 163.94 89.091L161.111 86.263C156.628 90.7476 152.143 95.2336 147.668 99.73L150.504 102.552ZM149.52 103.411C149.895 103.137 150.223 102.834 150.505 102.55L147.667 99.7311C147.468 99.9314 147.304 100.076 147.16 100.182L149.52 103.411ZM146.926 100.382L132.33 114.972L135.158 117.801L149.754 103.211L146.926 100.382ZM134.571 114.564C134.562 114.56 134.553 114.557 134.544 114.553C134.534 114.549 134.525 114.545 134.515 114.541L132.972 118.231C132.981 118.235 132.99 118.239 133 118.243C133.009 118.247 133.018 118.251 133.028 118.255L134.571 114.564ZM136.607 115.358C135.953 115.141 135.303 114.87 134.572 114.564L133.028 118.254C133.735 118.55 134.525 118.882 135.348 119.155L136.607 115.358ZM149.262 116.728C145.012 117.407 140.833 116.763 136.609 115.359L135.347 119.155C139.969 120.691 144.82 121.488 149.893 120.678L149.262 116.728ZM159.451 111.473C156.629 114.357 153.248 116.093 149.262 116.728L149.892 120.678C154.717 119.909 158.882 117.774 162.31 114.271L159.451 111.473ZM161.167 109.718C160.594 110.303 160.023 110.888 159.451 111.473L162.31 114.271C162.883 113.685 163.456 113.099 164.028 112.513L161.167 109.718ZM167.819 102.954C165.583 105.198 163.371 107.462 161.167 109.718L164.028 112.513C166.234 110.255 168.432 108.005 170.652 105.778L167.819 102.954ZM172.142 98.6133C170.701 100.061 169.26 101.508 167.819 102.955L170.653 105.778C172.094 104.33 173.535 102.883 174.977 101.436L172.142 98.6133ZM194.759 75.9852C187.19 83.5007 179.663 91.0597 172.142 98.6133L174.977 101.436C182.499 93.8807 190.017 86.3298 197.577 78.8237L194.759 75.9852ZM200 62.5274C200.002 67.7623 198.473 72.2969 194.759 75.9855L197.578 78.8235C202.183 74.2491 204.003 68.6195 204 62.5256L200 62.5274ZM197.242 50.6995C198.981 54.5053 199.998 58.4635 200 62.5277L204 62.5253C203.997 57.7833 202.809 53.2592 200.88 49.0371L197.242 50.6995ZM180.455 31.9409C187.965 36.4832 193.595 42.7142 197.241 50.6991L200.88 49.0376C196.892 40.3033 190.706 33.4662 182.525 28.5181L180.455 31.9409ZM163.352 27.0133C169.484 26.8219 175.121 28.7156 180.455 31.9409L182.525 28.5181C176.707 25.0004 170.315 22.794 163.227 23.0152L163.352 27.0133ZM150.863 32.2368C154.305 28.7708 158.463 27.1663 163.352 27.0133L163.227 23.0152C157.439 23.1964 152.27 25.1436 148.025 29.4183L150.863 32.2368ZM126.573 56.5925C134.676 48.4842 142.782 40.3735 150.863 32.2369L148.025 29.4181C139.949 37.5496 131.847 45.6559 123.743 53.7649L126.573 56.5925ZM115.31 67.8671C119.063 64.1073 122.817 60.3501 126.573 56.5925L123.743 53.7649C119.988 57.5224 116.233 61.2806 112.479 65.0414L115.31 67.8671ZM113.703 69.6262C114.167 69.0388 114.709 68.4709 115.311 67.8658L112.478 65.0427C111.853 65.6703 111.177 66.3715 110.564 67.1473L113.703 69.6262Z" fill="#F4F4F4" mask="url(#path-5-inside-2_6924_2175)"/>
<g filter="url(#filter3_i_6924_2175)">
<path d="M107.696 105.664C106.723 104.655 106.17 104.861 105.21 105.845C96.5417 114.727 92.1093 119.439 83.3934 128.272C81.2389 130.459 80.5853 132.993 81.2465 135.86C82.5361 141.461 86.0205 145.046 91.3827 146.628C94.4975 147.547 97.2 146.757 99.543 144.33C107.774 135.811 111.864 131.561 120.138 123.082C120.434 122.778 120.761 122.495 121 122.147L112.852 121.764L112.219 113.365L106.434 114.725L107.696 105.664Z" fill="#DEDEDE"/>
</g>
<path d="M107.696 105.664C106.723 104.655 106.17 104.861 105.21 105.845C96.5417 114.727 92.1093 119.439 83.3934 128.272C81.2389 130.459 80.5853 132.993 81.2465 135.86C82.5361 141.461 86.0205 145.046 91.3827 146.628C94.4975 147.547 97.2 146.757 99.543 144.33C107.774 135.811 111.864 131.561 120.138 123.082C120.434 122.778 120.761 122.495 121 122.147L112.852 121.764L112.219 113.365L106.434 114.725L107.696 105.664Z" stroke="#F4F4F4" stroke-width="3"/>
<g filter="url(#filter4_i_6924_2175)">
<path d="M124.235 117.514C124.429 118.243 124.785 118.027 125.159 117.672C125.406 117.438 125.644 117.193 125.885 116.951C129.488 113.324 133.089 109.694 133.538 109.217C138.239 104.485 142.94 99.7494 147.646 95.0222C149.618 93.0402 150.33 90.6608 149.861 87.9234C149.096 83.4383 146.541 80.1956 142.783 77.8451C140.984 76.7186 138.985 76.1237 136.99 76C134.625 76.0211 132.711 76.7291 131.098 78.3636C122.99 86.5758 118.002 91.6063 109.874 99.7974C109.633 100.04 109.392 100.282 109.177 100.545C108.907 100.871 108.936 101.219 109.329 101.385L113.757 101.929L114.889 107.23L123.929 108.649L124.235 117.514Z" fill="#DEDEDE"/>
</g>
<path d="M124.235 117.514C124.429 118.243 124.785 118.027 125.159 117.672C125.406 117.438 125.644 117.193 125.885 116.951C129.488 113.324 133.089 109.694 133.538 109.217C138.239 104.485 142.94 99.7494 147.646 95.0222C149.618 93.0402 150.33 90.6608 149.861 87.9234C149.096 83.4383 146.541 80.1956 142.783 77.8451C140.984 76.7186 138.985 76.1237 136.99 76C134.625 76.0211 132.711 76.7291 131.098 78.3636C122.99 86.5758 118.002 91.6063 109.874 99.7974C109.633 100.04 109.392 100.282 109.177 100.545C108.907 100.871 108.936 101.219 109.329 101.385L113.757 101.929L114.889 107.23L123.929 108.649L124.235 117.514Z" stroke="#F4F4F4" stroke-width="3"/>
<g filter="url(#filter5_i_6924_2175)">
<path d="M97.5547 89.2609L87 47.691L97.5547 46V89.2609Z" fill="#DEDEDE"/>
</g>
<g filter="url(#filter6_i_6924_2175)">
<path d="M78 94L53 91.7175L54.6752 86L78 94Z" fill="#DEDEDE"/>
</g>
<g filter="url(#filter7_i_6924_2175)">
<path d="M76 74.9934L55 62.4967L62.7735 54L76 74.9934Z" fill="#DEDEDE"/>
</g>
<g filter="url(#filter8_i_6924_2175)">
<path d="M133 147L144 175.271L133 177V147Z" fill="#DEDEDE"/>
</g>
<g filter="url(#filter9_i_6924_2175)">
<path d="M141 129L177 131.036L175.332 137L141 129Z" fill="#DEDEDE"/>
</g>
<g filter="url(#filter10_i_6924_2175)">
<path d="M149 149L172 162.209L167.052 168L149 149Z" fill="#DEDEDE"/>
</g>
</g>
<defs>
<filter id="filter0_d_6924_2175" x="0" y="0" width="231" height="231" filterUnits="userSpaceOnUse" color-interpolation-filters="sRGB">
<feFlood flood-opacity="0" result="BackgroundImageFix"/>
<feColorMatrix in="SourceAlpha" type="matrix" values="0 0 0 0 0 0 0 0 0 0 0 0 0 0 0 0 0 0 127 0" result="hardAlpha"/>
<feOffset dy="3"/>
<feGaussianBlur stdDeviation="1.5"/>
<feComposite in2="hardAlpha" operator="out"/>
<feColorMatrix type="matrix" values="0 0 0 0 0 0 0 0 0 0 0 0 0 0 0 0 0 0 0.4 0"/>
<feBlend mode="normal" in2="BackgroundImageFix" result="effect1_dropShadow_6924_2175"/>
<feBlend mode="normal" in="SourceGraphic" in2="effect1_dropShadow_6924_2175" result="shape"/>
</filter>
<filter id="filter1_i_6924_2175" x="28" y="105" width="94" height="94" filterUnits="userSpaceOnUse" color-interpolation-filters="sRGB">
<feFlood flood-opacity="0" result="BackgroundImageFix"/>
<feBlend mode="normal" in="SourceGraphic" in2="BackgroundImageFix" result="shape"/>
<feColorMatrix in="SourceAlpha" type="matrix" values="0 0 0 0 0 0 0 0 0 0 0 0 0 0 0 0 0 0 127 0" result="hardAlpha"/>
<feOffset dy="6"/>
<feComposite in2="hardAlpha" operator="arithmetic" k2="-1" k3="1"/>
<feColorMatrix type="matrix" values="0 0 0 0 0.811765 0 0 0 0 0.811765 0 0 0 0 0.811765 0 0 0 1 0"/>
<feBlend mode="normal" in2="shape" result="effect1_innerShadow_6924_2175"/>
</filter>
<filter id="filter2_i_6924_2175" x="108" y="25" width="94" height="94" filterUnits="userSpaceOnUse" color-interpolation-filters="sRGB">
<feFlood flood-opacity="0" result="BackgroundImageFix"/>
<feBlend mode="normal" in="SourceGraphic" in2="BackgroundImageFix" result="shape"/>
<feColorMatrix in="SourceAlpha" type="matrix" values="0 0 0 0 0 0 0 0 0 0 0 0 0 0 0 0 0 0 127 0" result="hardAlpha"/>
<feOffset dy="6"/>
<feComposite in2="hardAlpha" operator="arithmetic" k2="-1" k3="1"/>
<feColorMatrix type="matrix" values="0 0 0 0 0.811765 0 0 0 0 0.811765 0 0 0 0 0.811765 0 0 0 1 0"/>
<feBlend mode="normal" in2="shape" result="effect1_innerShadow_6924_2175"/>
</filter>
<filter id="filter3_i_6924_2175" x="79.5" y="103.499" width="44.2617" height="45.001" filterUnits="userSpaceOnUse" color-interpolation-filters="sRGB">
<feFlood flood-opacity="0" result="BackgroundImageFix"/>
<feBlend mode="normal" in="SourceGraphic" in2="BackgroundImageFix" result="shape"/>
<feColorMatrix in="SourceAlpha" type="matrix" values="0 0 0 0 0 0 0 0 0 0 0 0 0 0 0 0 0 0 127 0" result="hardAlpha"/>
<feOffset dy="7"/>
<feComposite in2="hardAlpha" operator="arithmetic" k2="-1" k3="1"/>
<feColorMatrix type="matrix" values="0 0 0 0 0.811765 0 0 0 0 0.811765 0 0 0 0 0.811765 0 0 0 1 0"/>
<feBlend mode="normal" in2="shape" result="effect1_innerShadow_6924_2175"/>
</filter>
<filter id="filter4_i_6924_2175" x="107.5" y="74.5" width="44" height="45" filterUnits="userSpaceOnUse" color-interpolation-filters="sRGB">
<feFlood flood-opacity="0" result="BackgroundImageFix"/>
<feBlend mode="normal" in="SourceGraphic" in2="BackgroundImageFix" result="shape"/>
<feColorMatrix in="SourceAlpha" type="matrix" values="0 0 0 0 0 0 0 0 0 0 0 0 0 0 0 0 0 0 127 0" result="hardAlpha"/>
<feOffset dy="7"/>
<feComposite in2="hardAlpha" operator="arithmetic" k2="-1" k3="1"/>
<feColorMatrix type="matrix" values="0 0 0 0 0.811765 0 0 0 0 0.811765 0 0 0 0 0.811765 0 0 0 1 0"/>
<feBlend mode="normal" in2="shape" result="effect1_innerShadow_6924_2175"/>
</filter>
<filter id="filter5_i_6924_2175" x="87" y="46" width="10.5547" height="43.2607" filterUnits="userSpaceOnUse" color-interpolation-filters="sRGB">
<feFlood flood-opacity="0" result="BackgroundImageFix"/>
<feBlend mode="normal" in="SourceGraphic" in2="BackgroundImageFix" result="shape"/>
<feColorMatrix in="SourceAlpha" type="matrix" values="0 0 0 0 0 0 0 0 0 0 0 0 0 0 0 0 0 0 127 0" result="hardAlpha"/>
<feOffset dy="3"/>
<feComposite in2="hardAlpha" operator="arithmetic" k2="-1" k3="1"/>
<feColorMatrix type="matrix" values="0 0 0 0 0.811765 0 0 0 0 0.811765 0 0 0 0 0.811765 0 0 0 1 0"/>
<feBlend mode="normal" in2="shape" result="effect1_innerShadow_6924_2175"/>
</filter>
<filter id="filter6_i_6924_2175" x="53" y="86" width="25" height="8" filterUnits="userSpaceOnUse" color-interpolation-filters="sRGB">
<feFlood flood-opacity="0" result="BackgroundImageFix"/>
<feBlend mode="normal" in="SourceGraphic" in2="BackgroundImageFix" result="shape"/>
<feColorMatrix in="SourceAlpha" type="matrix" values="0 0 0 0 0 0 0 0 0 0 0 0 0 0 0 0 0 0 127 0" result="hardAlpha"/>
<feOffset dy="3"/>
<feComposite in2="hardAlpha" operator="arithmetic" k2="-1" k3="1"/>
<feColorMatrix type="matrix" values="0 0 0 0 0.811765 0 0 0 0 0.811765 0 0 0 0 0.811765 0 0 0 1 0"/>
<feBlend mode="normal" in2="shape" result="effect1_innerShadow_6924_2175"/>
</filter>
<filter id="filter7_i_6924_2175" x="55" y="54" width="21" height="20.9932" filterUnits="userSpaceOnUse" color-interpolation-filters="sRGB">
<feFlood flood-opacity="0" result="BackgroundImageFix"/>
<feBlend mode="normal" in="SourceGraphic" in2="BackgroundImageFix" result="shape"/>
<feColorMatrix in="SourceAlpha" type="matrix" values="0 0 0 0 0 0 0 0 0 0 0 0 0 0 0 0 0 0 127 0" result="hardAlpha"/>
<feOffset dy="3"/>
<feComposite in2="hardAlpha" operator="arithmetic" k2="-1" k3="1"/>
<feColorMatrix type="matrix" values="0 0 0 0 0.811765 0 0 0 0 0.811765 0 0 0 0 0.811765 0 0 0 1 0"/>
<feBlend mode="normal" in2="shape" result="effect1_innerShadow_6924_2175"/>
</filter>
<filter id="filter8_i_6924_2175" x="133" y="147" width="11" height="30" filterUnits="userSpaceOnUse" color-interpolation-filters="sRGB">
<feFlood flood-opacity="0" result="BackgroundImageFix"/>
<feBlend mode="normal" in="SourceGraphic" in2="BackgroundImageFix" result="shape"/>
<feColorMatrix in="SourceAlpha" type="matrix" values="0 0 0 0 0 0 0 0 0 0 0 0 0 0 0 0 0 0 127 0" result="hardAlpha"/>
<feOffset dy="3"/>
<feComposite in2="hardAlpha" operator="arithmetic" k2="-1" k3="1"/>
<feColorMatrix type="matrix" values="0 0 0 0 0.811765 0 0 0 0 0.811765 0 0 0 0 0.811765 0 0 0 1 0"/>
<feBlend mode="normal" in2="shape" result="effect1_innerShadow_6924_2175"/>
</filter>
<filter id="filter9_i_6924_2175" x="141" y="129" width="36" height="8" filterUnits="userSpaceOnUse" color-interpolation-filters="sRGB">
<feFlood flood-opacity="0" result="BackgroundImageFix"/>
<feBlend mode="normal" in="SourceGraphic" in2="BackgroundImageFix" result="shape"/>
<feColorMatrix in="SourceAlpha" type="matrix" values="0 0 0 0 0 0 0 0 0 0 0 0 0 0 0 0 0 0 127 0" result="hardAlpha"/>
<feOffset dy="3"/>
<feComposite in2="hardAlpha" operator="arithmetic" k2="-1" k3="1"/>
<feColorMatrix type="matrix" values="0 0 0 0 0.811765 0 0 0 0 0.811765 0 0 0 0 0.811765 0 0 0 1 0"/>
<feBlend mode="normal" in2="shape" result="effect1_innerShadow_6924_2175"/>
</filter>
<filter id="filter10_i_6924_2175" x="149" y="149" width="23" height="19" filterUnits="userSpaceOnUse" color-interpolation-filters="sRGB">
<feFlood flood-opacity="0" result="BackgroundImageFix"/>
<feBlend mode="normal" in="SourceGraphic" in2="BackgroundImageFix" result="shape"/>
<feColorMatrix in="SourceAlpha" type="matrix" values="0 0 0 0 0 0 0 0 0 0 0 0 0 0 0 0 0 0 127 0" result="hardAlpha"/>
<feOffset dy="3"/>
<feComposite in2="hardAlpha" operator="arithmetic" k2="-1" k3="1"/>
<feColorMatrix type="matrix" values="0 0 0 0 0.811765 0 0 0 0 0.811765 0 0 0 0 0.811765 0 0 0 1 0"/>
<feBlend mode="normal" in2="shape" result="effect1_innerShadow_6924_2175"/>
</filter>
</defs>
</svg>
