<svg width="231" height="231" viewBox="0 0 231 231" fill="none" xmlns="http://www.w3.org/2000/svg">
<g filter="url(#filter0_d_6452_1941)">
<rect x="3" width="225" height="225" rx="20" fill="#4F4F4F"/>
<mask id="mask0_6452_1941" style="mask-type:alpha" maskUnits="userSpaceOnUse" x="3" y="0" width="225" height="225">
<rect x="3" width="225" height="225" rx="20" fill="#252525"/>
</mask>
<g mask="url(#mask0_6452_1941)">
<path d="M71.8562 49.145C71.8562 56.0594 66.251 61.6645 59.3368 61.6645C52.4225 61.6645 46.8174 56.0594 46.8174 49.145C46.8174 42.2307 52.4225 36.6255 59.3368 36.6255C66.251 36.6255 71.8562 42.2307 71.8562 49.145Z" fill="#252525" stroke="#252525" stroke-width="2"/>
<path d="M158.201 44.3506C120.039 44.3506 96.6181 114.285 74.5806 114.285V197.956H234.756C234.397 173.604 233.896 121.029 234.756 105.543C219.168 105.543 196.364 44.3506 158.201 44.3506Z" fill="#252525" stroke="#252525" stroke-width="2"/>
<path d="M75.9934 104.999C44.6619 104.999 15.7347 143.441 -1.84078 143.441H-4.35156V231.121H237.688V177.926C149.81 177.927 115.161 104.999 75.9934 104.999Z" fill="#1F1F1F"/>
<path d="M75.9934 104.999C44.6619 104.999 15.7347 143.441 -1.84078 143.441H-4.35156V231.121H237.688V177.926C149.81 177.927 115.161 104.999 75.9934 104.999Z" stroke="#F4F4F4" stroke-width="11"/>
<path d="M75.9934 104.999C44.6619 104.999 15.7347 143.441 -1.84078 143.441H-4.35156V231.121H237.688V177.926C149.81 177.927 115.161 104.999 75.9934 104.999Z" stroke="#1F1F1F" stroke-width="11"/>
<path d="M75.9934 111.999C44.6619 111.999 15.7347 150.441 -1.84078 150.441H-4.35156V238.121H237.688V184.926C149.81 184.927 115.161 111.999 75.9934 111.999Z" fill="#252525" stroke="#252525" stroke-width="2"/>
</g>
</g>
<defs>
<filter id="filter0_d_6452_1941" x="0" y="0" width="231" height="231" filterUnits="userSpaceOnUse" color-interpolation-filters="sRGB">
<feFlood flood-opacity="0" result="BackgroundImageFix"/>
<feColorMatrix in="SourceAlpha" type="matrix" values="0 0 0 0 0 0 0 0 0 0 0 0 0 0 0 0 0 0 127 0" result="hardAlpha"/>
<feOffset dy="3"/>
<feGaussianBlur stdDeviation="1.5"/>
<feComposite in2="hardAlpha" operator="out"/>
<feColorMatrix type="matrix" values="0 0 0 0 0 0 0 0 0 0 0 0 0 0 0 0 0 0 0.4 0"/>
<feBlend mode="normal" in2="BackgroundImageFix" result="effect1_dropShadow_6452_1941"/>
<feBlend mode="normal" in="SourceGraphic" in2="effect1_dropShadow_6452_1941" result="shape"/>
</filter>
</defs>
</svg>
