<svg width="231" height="231" viewBox="0 0 231 231" fill="none" xmlns="http://www.w3.org/2000/svg">
<g filter="url(#filter0_d_6924_2167)">
<rect x="3" width="225" height="225" rx="20" fill="#F4F4F4"/>
</g>
<path d="M68.0408 174.091V185H66.283L61.1428 177.569H61.0522V185H59.076V174.091H60.8445L65.9794 181.527H66.0753V174.091H68.0408ZM73.6778 185.16C72.8788 185.16 72.1863 184.984 71.6004 184.632C71.0145 184.281 70.5599 183.789 70.2368 183.157C69.9172 182.525 69.7574 181.786 69.7574 180.941C69.7574 180.096 69.9172 179.355 70.2368 178.72C70.5599 178.084 71.0145 177.591 71.6004 177.239C72.1863 176.887 72.8788 176.712 73.6778 176.712C74.4768 176.712 75.1693 176.887 75.7552 177.239C76.3412 177.591 76.7939 178.084 77.1135 178.72C77.4367 179.355 77.5983 180.096 77.5983 180.941C77.5983 181.786 77.4367 182.525 77.1135 183.157C76.7939 183.789 76.3412 184.281 75.7552 184.632C75.1693 184.984 74.4768 185.16 73.6778 185.16ZM73.6885 183.615C74.1217 183.615 74.4839 183.496 74.7751 183.258C75.0663 183.017 75.2829 182.694 75.425 182.289C75.5706 181.884 75.6434 181.433 75.6434 180.936C75.6434 180.435 75.5706 179.982 75.425 179.577C75.2829 179.169 75.0663 178.844 74.7751 178.603C74.4839 178.361 74.1217 178.24 73.6885 178.24C73.2446 178.24 72.8753 178.361 72.5805 178.603C72.2893 178.844 72.0709 179.169 71.9253 179.577C71.7833 179.982 71.7123 180.435 71.7123 180.936C71.7123 181.433 71.7833 181.884 71.9253 182.289C72.0709 182.694 72.2893 183.017 72.5805 183.258C72.8753 183.496 73.2446 183.615 73.6885 183.615ZM81.1632 180.206V185H79.2349V176.818H81.0779V178.208H81.1738C81.362 177.75 81.6621 177.386 82.074 177.116C82.4895 176.847 83.0027 176.712 83.6135 176.712C84.1781 176.712 84.6699 176.832 85.089 177.074C85.5115 177.315 85.8382 177.665 86.0691 178.123C86.3034 178.581 86.4189 179.137 86.4153 179.79V185H84.487V180.089C84.487 179.542 84.345 179.114 84.0609 178.805C83.7804 178.496 83.3915 178.342 82.8944 178.342C82.557 178.342 82.2569 178.416 81.9941 178.565C81.7349 178.711 81.5307 178.922 81.3816 179.199C81.236 179.476 81.1632 179.812 81.1632 180.206ZM93.3347 179.663V181.25H88.4235V179.663H93.3347ZM96.4535 174.091L99.2926 182.678H99.4045L102.238 174.091H104.412L100.566 185H98.1261L94.2855 174.091H96.4535ZM105.763 185V176.818H107.691V185H105.763ZM106.733 175.657C106.427 175.657 106.165 175.556 105.944 175.353C105.724 175.147 105.614 174.901 105.614 174.613C105.614 174.322 105.724 174.075 105.944 173.873C106.165 173.667 106.427 173.564 106.733 173.564C107.042 173.564 107.304 173.667 107.521 173.873C107.741 174.075 107.851 174.322 107.851 174.613C107.851 174.901 107.741 175.147 107.521 175.353C107.304 175.556 107.042 175.657 106.733 175.657ZM116.141 178.981L114.383 179.173C114.333 178.995 114.246 178.828 114.122 178.672C114.001 178.516 113.838 178.39 113.632 178.294C113.426 178.198 113.174 178.15 112.876 178.15C112.474 178.15 112.137 178.237 111.864 178.411C111.594 178.585 111.461 178.81 111.464 179.087C111.461 179.325 111.548 179.519 111.725 179.668C111.906 179.817 112.205 179.94 112.62 180.036L114.016 180.334C114.79 180.501 115.365 180.765 115.741 181.127C116.121 181.49 116.313 181.964 116.317 182.55C116.313 183.065 116.162 183.519 115.864 183.913C115.569 184.304 115.159 184.609 114.634 184.83C114.108 185.05 113.504 185.16 112.822 185.16C111.821 185.16 111.015 184.95 110.404 184.531C109.793 184.109 109.429 183.521 109.312 182.768L111.192 182.587C111.278 182.956 111.459 183.235 111.736 183.423C112.013 183.612 112.373 183.706 112.817 183.706C113.275 183.706 113.643 183.612 113.92 183.423C114.2 183.235 114.341 183.002 114.341 182.725C114.341 182.491 114.25 182.298 114.069 182.145C113.891 181.992 113.614 181.875 113.238 181.793L111.842 181.5C111.058 181.337 110.477 181.062 110.1 180.675C109.724 180.284 109.538 179.79 109.541 179.194C109.538 178.69 109.674 178.253 109.951 177.884C110.232 177.511 110.621 177.223 111.118 177.021C111.619 176.815 112.196 176.712 112.849 176.712C113.808 176.712 114.563 176.916 115.113 177.324C115.667 177.733 116.01 178.285 116.141 178.981ZM123.122 181.559V176.818H125.05V185H123.18V183.546H123.095C122.91 184.004 122.607 184.379 122.184 184.67C121.765 184.961 121.248 185.107 120.634 185.107C120.098 185.107 119.624 184.988 119.212 184.75C118.803 184.508 118.484 184.158 118.253 183.7C118.022 183.239 117.907 182.681 117.907 182.028V176.818H119.835V181.729C119.835 182.248 119.977 182.66 120.261 182.965C120.545 183.271 120.918 183.423 121.38 183.423C121.664 183.423 121.939 183.354 122.205 183.216C122.472 183.077 122.69 182.871 122.861 182.598C123.035 182.321 123.122 181.974 123.122 181.559ZM129.387 185.165C128.869 185.165 128.402 185.073 127.986 184.888C127.574 184.7 127.248 184.423 127.006 184.057C126.768 183.691 126.649 183.24 126.649 182.704C126.649 182.243 126.734 181.861 126.905 181.559C127.075 181.257 127.308 181.016 127.603 180.835C127.897 180.653 128.229 180.517 128.599 180.424C128.972 180.328 129.357 180.259 129.755 180.217C130.234 180.167 130.623 180.123 130.921 180.083C131.22 180.041 131.436 179.977 131.571 179.892C131.71 179.803 131.779 179.666 131.779 179.482V179.45C131.779 179.048 131.66 178.738 131.422 178.517C131.184 178.297 130.841 178.187 130.394 178.187C129.922 178.187 129.547 178.29 129.27 178.496C128.997 178.702 128.812 178.945 128.716 179.226L126.916 178.97C127.058 178.473 127.292 178.058 127.619 177.724C127.945 177.386 128.345 177.134 128.817 176.967C129.29 176.797 129.812 176.712 130.383 176.712C130.777 176.712 131.17 176.758 131.56 176.85C131.951 176.942 132.308 177.095 132.631 177.308C132.954 177.518 133.214 177.804 133.409 178.166C133.608 178.528 133.707 178.981 133.707 179.524V185H131.853V183.876H131.79C131.672 184.103 131.507 184.316 131.294 184.515C131.085 184.711 130.82 184.869 130.5 184.989C130.184 185.107 129.813 185.165 129.387 185.165ZM129.888 183.748C130.275 183.748 130.611 183.672 130.895 183.519C131.179 183.363 131.397 183.157 131.55 182.901C131.706 182.646 131.784 182.367 131.784 182.065V181.101C131.724 181.151 131.621 181.197 131.475 181.239C131.333 181.282 131.173 181.319 130.996 181.351C130.818 181.383 130.642 181.412 130.468 181.436C130.294 181.461 130.144 181.483 130.016 181.5C129.728 181.539 129.471 181.603 129.243 181.692C129.016 181.781 128.837 181.905 128.705 182.065C128.574 182.221 128.508 182.424 128.508 182.672C128.508 183.027 128.638 183.295 128.897 183.477C129.156 183.658 129.487 183.748 129.888 183.748ZM137.574 174.091V185H135.646V174.091H137.574ZM152.328 174.091V185H150.57L145.43 177.569H145.339V185H143.363V174.091H145.132L150.267 181.527H150.362V174.091H152.328ZM154.481 185V174.091H161.47V175.748H156.457V178.709H160.991V180.366H156.457V185H154.481ZM162.791 175.748V174.091H171.495V175.748H168.123V185H166.163V175.748H162.791Z" fill="#C5C5C5"/>
<g filter="url(#filter1_i_6924_2167)">
<path d="M145.494 58.4571H170.135H188V155H116.54H42V58.4571H84.5063L91.2827 46H123.932H138.717L145.494 58.4571Z" fill="#DEDEDE"/>
</g>
<g filter="url(#filter2_d_6924_2167)">
<path fill-rule="evenodd" clip-rule="evenodd" d="M87.7751 85.7751C82.9994 91.7583 80.1445 99.3421 80.1445 107.593C80.1445 126.923 95.8146 142.593 115.145 142.593C123.395 142.593 130.979 139.738 136.962 134.962L87.7751 85.7751ZM143.815 127.673C147.804 121.989 150.145 115.064 150.145 107.593C150.145 88.2628 134.474 72.5928 115.145 72.5928C107.673 72.5928 100.749 74.9338 95.0644 78.9223L143.815 127.673Z" fill="#F4F4F4"/>
</g>
<defs>
<filter id="filter0_d_6924_2167" x="0" y="0" width="231" height="231" filterUnits="userSpaceOnUse" color-interpolation-filters="sRGB">
<feFlood flood-opacity="0" result="BackgroundImageFix"/>
<feColorMatrix in="SourceAlpha" type="matrix" values="0 0 0 0 0 0 0 0 0 0 0 0 0 0 0 0 0 0 127 0" result="hardAlpha"/>
<feOffset dy="3"/>
<feGaussianBlur stdDeviation="1.5"/>
<feComposite in2="hardAlpha" operator="out"/>
<feColorMatrix type="matrix" values="0 0 0 0 0 0 0 0 0 0 0 0 0 0 0 0 0 0 0.4 0"/>
<feBlend mode="normal" in2="BackgroundImageFix" result="effect1_dropShadow_6924_2167"/>
<feBlend mode="normal" in="SourceGraphic" in2="effect1_dropShadow_6924_2167" result="shape"/>
</filter>
<filter id="filter1_i_6924_2167" x="42" y="46" width="146" height="109" filterUnits="userSpaceOnUse" color-interpolation-filters="sRGB">
<feFlood flood-opacity="0" result="BackgroundImageFix"/>
<feBlend mode="normal" in="SourceGraphic" in2="BackgroundImageFix" result="shape"/>
<feColorMatrix in="SourceAlpha" type="matrix" values="0 0 0 0 0 0 0 0 0 0 0 0 0 0 0 0 0 0 127 0" result="hardAlpha"/>
<feOffset dy="3"/>
<feComposite in2="hardAlpha" operator="arithmetic" k2="-1" k3="1"/>
<feColorMatrix type="matrix" values="0 0 0 0 0.811765 0 0 0 0 0.811765 0 0 0 0 0.811765 0 0 0 1 0"/>
<feBlend mode="normal" in2="shape" result="effect1_innerShadow_6924_2167"/>
</filter>
<filter id="filter2_d_6924_2167" x="80.1445" y="72.5928" width="70" height="73" filterUnits="userSpaceOnUse" color-interpolation-filters="sRGB">
<feFlood flood-opacity="0" result="BackgroundImageFix"/>
<feColorMatrix in="SourceAlpha" type="matrix" values="0 0 0 0 0 0 0 0 0 0 0 0 0 0 0 0 0 0 127 0" result="hardAlpha"/>
<feOffset dy="3"/>
<feComposite in2="hardAlpha" operator="out"/>
<feColorMatrix type="matrix" values="0 0 0 0 0.811765 0 0 0 0 0.811765 0 0 0 0 0.811765 0 0 0 1 0"/>
<feBlend mode="normal" in2="BackgroundImageFix" result="effect1_dropShadow_6924_2167"/>
<feBlend mode="normal" in="SourceGraphic" in2="effect1_dropShadow_6924_2167" result="shape"/>
</filter>
</defs>
</svg>
