<svg width="225" height="225" viewBox="0 0 225 225" fill="none" xmlns="http://www.w3.org/2000/svg">
<rect width="225" height="225" rx="20" fill="#373737"/>
<path d="M65.0408 174.091V185H63.283L58.1428 177.569H58.0522V185H56.076V174.091H57.8445L62.9794 181.527H63.0753V174.091H65.0408ZM70.6778 185.16C69.8788 185.16 69.1863 184.984 68.6004 184.632C68.0145 184.281 67.5599 183.789 67.2368 183.157C66.9172 182.525 66.7574 181.786 66.7574 180.941C66.7574 180.096 66.9172 179.355 67.2368 178.72C67.5599 178.084 68.0145 177.591 68.6004 177.239C69.1863 176.887 69.8788 176.712 70.6778 176.712C71.4768 176.712 72.1693 176.887 72.7552 177.239C73.3412 177.591 73.7939 178.084 74.1135 178.72C74.4367 179.355 74.5983 180.096 74.5983 180.941C74.5983 181.786 74.4367 182.525 74.1135 183.157C73.7939 183.789 73.3412 184.281 72.7552 184.632C72.1693 184.984 71.4768 185.16 70.6778 185.16ZM70.6885 183.615C71.1217 183.615 71.4839 183.496 71.7751 183.258C72.0663 183.017 72.2829 182.694 72.425 182.289C72.5706 181.884 72.6434 181.433 72.6434 180.936C72.6434 180.435 72.5706 179.982 72.425 179.577C72.2829 179.169 72.0663 178.844 71.7751 178.603C71.4839 178.361 71.1217 178.24 70.6885 178.24C70.2446 178.24 69.8753 178.361 69.5805 178.603C69.2893 178.844 69.0709 179.169 68.9253 179.577C68.7833 179.982 68.7123 180.435 68.7123 180.936C68.7123 181.433 68.7833 181.884 68.9253 182.289C69.0709 182.694 69.2893 183.017 69.5805 183.258C69.8753 183.496 70.2446 183.615 70.6885 183.615ZM78.1632 180.206V185H76.2349V176.818H78.0779V178.208H78.1738C78.362 177.75 78.6621 177.386 79.074 177.116C79.4895 176.847 80.0027 176.712 80.6135 176.712C81.1781 176.712 81.6699 176.832 82.089 177.074C82.5115 177.315 82.8382 177.665 83.0691 178.123C83.3034 178.581 83.4189 179.137 83.4153 179.79V185H81.487V180.089C81.487 179.542 81.345 179.114 81.0609 178.805C80.7804 178.496 80.3915 178.342 79.8944 178.342C79.557 178.342 79.2569 178.416 78.9941 178.565C78.7349 178.711 78.5307 178.922 78.3816 179.199C78.236 179.476 78.1632 179.812 78.1632 180.206ZM90.3347 179.663V181.25H85.4235V179.663H90.3347ZM93.4535 174.091L96.2926 182.678H96.4045L99.2383 174.091H101.412L97.5657 185H95.1261L91.2855 174.091H93.4535ZM102.763 185V176.818H104.691V185H102.763ZM103.733 175.657C103.427 175.657 103.165 175.556 102.944 175.353C102.724 175.147 102.614 174.901 102.614 174.613C102.614 174.322 102.724 174.075 102.944 173.873C103.165 173.667 103.427 173.564 103.733 173.564C104.042 173.564 104.304 173.667 104.521 173.873C104.741 174.075 104.851 174.322 104.851 174.613C104.851 174.901 104.741 175.147 104.521 175.353C104.304 175.556 104.042 175.657 103.733 175.657ZM113.141 178.981L111.383 179.173C111.333 178.995 111.246 178.828 111.122 178.672C111.001 178.516 110.838 178.39 110.632 178.294C110.426 178.198 110.174 178.15 109.876 178.15C109.474 178.15 109.137 178.237 108.864 178.411C108.594 178.585 108.461 178.81 108.464 179.087C108.461 179.325 108.548 179.519 108.725 179.668C108.906 179.817 109.205 179.94 109.62 180.036L111.016 180.334C111.79 180.501 112.365 180.765 112.741 181.127C113.121 181.49 113.313 181.964 113.317 182.55C113.313 183.065 113.162 183.519 112.864 183.913C112.569 184.304 112.159 184.609 111.634 184.83C111.108 185.05 110.504 185.16 109.822 185.16C108.821 185.16 108.015 184.95 107.404 184.531C106.793 184.109 106.429 183.521 106.312 182.768L108.192 182.587C108.278 182.956 108.459 183.235 108.736 183.423C109.013 183.612 109.373 183.706 109.817 183.706C110.275 183.706 110.643 183.612 110.92 183.423C111.2 183.235 111.341 183.002 111.341 182.725C111.341 182.491 111.25 182.298 111.069 182.145C110.891 181.992 110.614 181.875 110.238 181.793L108.842 181.5C108.058 181.337 107.477 181.062 107.1 180.675C106.724 180.284 106.538 179.79 106.541 179.194C106.538 178.69 106.674 178.253 106.951 177.884C107.232 177.511 107.621 177.223 108.118 177.021C108.619 176.815 109.196 176.712 109.849 176.712C110.808 176.712 111.563 176.916 112.113 177.324C112.667 177.733 113.01 178.285 113.141 178.981ZM120.122 181.559V176.818H122.05V185H120.18V183.546H120.095C119.91 184.004 119.607 184.379 119.184 184.67C118.765 184.961 118.248 185.107 117.634 185.107C117.098 185.107 116.624 184.988 116.212 184.75C115.803 184.508 115.484 184.158 115.253 183.7C115.022 183.239 114.907 182.681 114.907 182.028V176.818H116.835V181.729C116.835 182.248 116.977 182.66 117.261 182.965C117.545 183.271 117.918 183.423 118.38 183.423C118.664 183.423 118.939 183.354 119.205 183.216C119.472 183.077 119.69 182.871 119.861 182.598C120.035 182.321 120.122 181.974 120.122 181.559ZM126.387 185.165C125.869 185.165 125.402 185.073 124.986 184.888C124.574 184.7 124.248 184.423 124.006 184.057C123.768 183.691 123.649 183.24 123.649 182.704C123.649 182.243 123.734 181.861 123.905 181.559C124.075 181.257 124.308 181.016 124.603 180.835C124.897 180.653 125.229 180.517 125.599 180.424C125.972 180.328 126.357 180.259 126.755 180.217C127.234 180.167 127.623 180.123 127.921 180.083C128.22 180.041 128.436 179.977 128.571 179.892C128.71 179.803 128.779 179.666 128.779 179.482V179.45C128.779 179.048 128.66 178.738 128.422 178.517C128.184 178.297 127.841 178.187 127.394 178.187C126.922 178.187 126.547 178.29 126.27 178.496C125.997 178.702 125.812 178.945 125.716 179.226L123.916 178.97C124.058 178.473 124.292 178.058 124.619 177.724C124.945 177.386 125.345 177.134 125.817 176.967C126.29 176.797 126.812 176.712 127.383 176.712C127.777 176.712 128.17 176.758 128.56 176.85C128.951 176.942 129.308 177.095 129.631 177.308C129.954 177.518 130.214 177.804 130.409 178.166C130.608 178.528 130.707 178.981 130.707 179.524V185H128.853V183.876H128.79C128.672 184.103 128.507 184.316 128.294 184.515C128.085 184.711 127.82 184.869 127.5 184.989C127.184 185.107 126.813 185.165 126.387 185.165ZM126.888 183.748C127.275 183.748 127.611 183.672 127.895 183.519C128.179 183.363 128.397 183.157 128.55 182.901C128.706 182.646 128.784 182.367 128.784 182.065V181.101C128.724 181.151 128.621 181.197 128.475 181.239C128.333 181.282 128.173 181.319 127.996 181.351C127.818 181.383 127.642 181.412 127.468 181.436C127.294 181.461 127.144 181.483 127.016 181.5C126.728 181.539 126.471 181.603 126.243 181.692C126.016 181.781 125.837 181.905 125.705 182.065C125.574 182.221 125.508 182.424 125.508 182.672C125.508 183.027 125.638 183.295 125.897 183.477C126.156 183.658 126.487 183.748 126.888 183.748ZM134.574 174.091V185H132.646V174.091H134.574ZM149.328 174.091V185H147.57L142.43 177.569H142.339V185H140.363V174.091H142.132L147.267 181.527H147.362V174.091H149.328ZM151.481 185V174.091H158.47V175.748H153.457V178.709H157.991V180.366H153.457V185H151.481ZM159.791 175.748V174.091H168.495V175.748H165.123V185H163.163V175.748H159.791Z" fill="#1B1B1B"/>
<g filter="url(#filter0_i_6924_2203)">
<path d="M142.494 58.4571H167.135H185V155H113.54H39V58.4571H81.5063L88.2827 46H120.932H135.717L142.494 58.4571Z" fill="#282828"/>
</g>
<g filter="url(#filter1_d_6924_2203)">
<path fill-rule="evenodd" clip-rule="evenodd" d="M84.6306 86.1824C79.8548 92.1655 77 99.7494 77 108C77 127.33 92.67 143 112 143C120.251 143 127.834 140.145 133.818 135.369L84.6306 86.1824ZM140.671 128.08C144.659 122.396 147 115.471 147 108C147 88.67 131.33 73 112 73C104.529 73 97.6042 75.341 91.9199 79.3295L140.671 128.08Z" fill="#373737"/>
</g>
<defs>
<filter id="filter0_i_6924_2203" x="39" y="46" width="146" height="109" filterUnits="userSpaceOnUse" color-interpolation-filters="sRGB">
<feFlood flood-opacity="0" result="BackgroundImageFix"/>
<feBlend mode="normal" in="SourceGraphic" in2="BackgroundImageFix" result="shape"/>
<feColorMatrix in="SourceAlpha" type="matrix" values="0 0 0 0 0 0 0 0 0 0 0 0 0 0 0 0 0 0 127 0" result="hardAlpha"/>
<feOffset dy="3"/>
<feComposite in2="hardAlpha" operator="arithmetic" k2="-1" k3="1"/>
<feColorMatrix type="matrix" values="0 0 0 0 0.1125 0 0 0 0 0.1125 0 0 0 0 0.1125 0 0 0 1 0"/>
<feBlend mode="normal" in2="shape" result="effect1_innerShadow_6924_2203"/>
</filter>
<filter id="filter1_d_6924_2203" x="77" y="73" width="70" height="73" filterUnits="userSpaceOnUse" color-interpolation-filters="sRGB">
<feFlood flood-opacity="0" result="BackgroundImageFix"/>
<feColorMatrix in="SourceAlpha" type="matrix" values="0 0 0 0 0 0 0 0 0 0 0 0 0 0 0 0 0 0 127 0" result="hardAlpha"/>
<feOffset dy="3"/>
<feComposite in2="hardAlpha" operator="out"/>
<feColorMatrix type="matrix" values="0 0 0 0 0.113725 0 0 0 0 0.113725 0 0 0 0 0.113725 0 0 0 1 0"/>
<feBlend mode="normal" in2="BackgroundImageFix" result="effect1_dropShadow_6924_2203"/>
<feBlend mode="normal" in="SourceGraphic" in2="effect1_dropShadow_6924_2203" result="shape"/>
</filter>
</defs>
</svg>
