<svg width="19" height="16" viewBox="0 0 19 16" fill="none" xmlns="http://www.w3.org/2000/svg">
<path d="M17.2727 0H1.72727C0.777273 0 0 0.8 0 1.77778V12.4444C0 13.4222 0.777273 14.2222 1.72727 14.2222H6.04545V16H12.9545V14.2222H17.2727C18.2227 14.2222 18.9914 13.4222 18.9914 12.4444L19 1.77778C19 0.8 18.2227 0 17.2727 0ZM17.2727 12.4444H1.72727V1.77778H17.2727V12.4444ZM15.5455 4.44444H6.04545V6.22222H15.5455V4.44444ZM15.5455 8H6.04545V9.77778H15.5455V8ZM5.18182 4.44444H3.45455V6.22222H5.18182V4.44444ZM5.18182 8H3.45455V9.77778H5.18182V8Z" fill="currentColor"/>
</svg>
