<svg width="13" height="15" viewBox="0 0 13 15" fill="none" xmlns="http://www.w3.org/2000/svg">
<path d="M13 3.32449L10.01 0.692383L9.1715 1.73568L12.1615 4.36779L13 3.32449ZM3.822 1.73568L2.99 0.692383L0 3.31767L0.8385 4.36097L3.822 1.73568ZM6.825 4.87921H5.85V8.97057L8.9375 10.914L9.425 10.0752L6.825 8.45915V4.87921ZM6.5 2.15163C3.2695 2.15163 0.65 4.89967 0.65 8.28867C0.65 11.6777 3.263 14.4257 6.5 14.4257C9.7305 14.4257 12.35 11.6777 12.35 8.28867C12.35 4.89967 9.7305 2.15163 6.5 2.15163ZM6.5 13.0619C3.9845 13.0619 1.95 10.9276 1.95 8.28867C1.95 5.64975 3.9845 3.51542 6.5 3.51542C9.0155 3.51542 11.05 5.64975 11.05 8.28867C11.05 10.9276 9.0155 13.0619 6.5 13.0619Z" fill="currentColor"/>
</svg>
