<svg width="19" height="19" viewBox="0 0 19 19" fill="none" xmlns="http://www.w3.org/2000/svg">
<path d="M18.0001 9.68071L18.9998 9.70167C19.0083 9.2973 18.7724 8.92765 18.402 8.76506C18.0317 8.60248 17.5999 8.67899 17.308 8.95892L18.0001 9.68071ZM9.31922 1L10.041 1.6921C10.321 1.40016 10.3975 0.968346 10.2349 0.598009C10.0723 0.227672 9.70262 -0.0082618 9.29825 0.000219882L9.31922 1ZM17.308 8.95892C16.3837 9.84516 15.132 10.3882 13.7514 10.3882V12.3882C15.6683 12.3882 17.4105 11.6315 18.6922 10.4025L17.308 8.95892ZM13.7514 10.3882C10.9129 10.3882 8.61179 8.08713 8.61179 5.24861H6.61179C6.61179 9.1917 9.8083 12.3882 13.7514 12.3882V10.3882ZM8.61179 5.24861C8.61179 3.86801 9.15482 2.61635 10.041 1.6921L8.59742 0.307905C7.36851 1.58957 6.61179 3.33177 6.61179 5.24861H8.61179ZM2 9.49908C2 5.41011 5.272 2.08511 9.34019 1.99978L9.29825 0.000219882C4.14437 0.108324 0 4.31959 0 9.49908H2ZM9.50098 17.0001C5.3583 17.0001 2 13.6418 2 9.49908H0C0 14.7463 4.25373 19.0001 9.50098 19.0001V17.0001ZM17.0003 9.65976C16.915 13.728 13.59 17.0001 9.50098 17.0001V19.0001C14.6805 19.0001 18.8918 14.8556 18.9998 9.70167L17.0003 9.65976Z" fill="currentColor"/>
</svg>
