<svg width="18" height="19" viewBox="0 0 18 19" fill="none" xmlns="http://www.w3.org/2000/svg">
<path d="M16 1.9H11.82C11.4 0.798 10.3 0 9 0C7.7 0 6.6 0.798 6.18 1.9H2C0.9 1.9 0 2.755 0 3.8V17.1C0 18.145 0.9 19 2 19H16C17.1 19 18 18.145 18 17.1V3.8C18 2.755 17.1 1.9 16 1.9ZM9 1.9C9.55 1.9 10 2.3275 10 2.85C10 3.3725 9.55 3.8 9 3.8C8.45 3.8 8 3.3725 8 2.85C8 2.3275 8.45 1.9 9 1.9ZM9 5.7C10.66 5.7 12 6.973 12 8.55C12 10.127 10.66 11.4 9 11.4C7.34 11.4 6 10.127 6 8.55C6 6.973 7.34 5.7 9 5.7ZM15 17.1H3V15.77C3 13.87 7 12.825 9 12.825C11 12.825 15 13.87 15 15.77V17.1Z" fill="currentColor"/>
</svg>
