<svg width="38" height="38" viewBox="0 0 39 39" fill="none" xmlns="http://www.w3.org/2000/svg">
<path d="M17.6553 21.6124L6.4775 32.7902" stroke="currentColor" stroke-width="2" stroke-linecap="round" stroke-linejoin="round"/>
<path d="M34.0728 5.19459L34.2165 6.18422C34.3969 6.15802 34.5668 6.08299 34.7077 5.96725L34.0728 5.19459ZM9.24921 25.3744L8.25575 25.2601C8.2209 25.5633 8.32634 25.8657 8.5421 26.0815L9.24921 25.3744ZM9.36509 25.4903L9.99975 26.2631C10.2178 26.084 10.3501 25.821 10.3639 25.5392C10.3777 25.2573 10.2718 24.9827 10.0722 24.7832L9.36509 25.4903ZM9.36487 25.4904L8.73022 24.7176C8.51213 24.8967 8.37987 25.1597 8.36607 25.4415C8.35227 25.7234 8.45821 25.998 8.65777 26.1975L9.36487 25.4904ZM13.8931 30.0187L13.186 30.7258C13.4018 30.9416 13.7042 31.047 14.0074 31.0122L13.8931 30.0187ZM34.0729 5.19505L33.3658 4.48794C33.2134 4.64039 33.1143 4.83803 33.0833 5.05139L34.0729 5.19505ZM34.0735 5.1945L34.7806 5.9016C35.0852 5.59702 35.1605 5.13163 34.9675 4.74652C34.7746 4.36142 34.3567 4.14315 33.9304 4.20479L34.0735 5.1945ZM34.073 5.19457L33.0836 5.04937C33.0377 5.36178 33.1421 5.67749 33.3652 5.90098C33.5883 6.12447 33.9038 6.22949 34.2163 6.18425L34.073 5.19457ZM34.073 5.19444L35.0624 5.33959C35.1224 4.93074 34.9247 4.52711 34.565 4.32382C34.2052 4.12053 33.7575 4.15946 33.4382 4.42178L34.073 5.19444ZM18.2698 13.3094C19.8804 11.6988 23.0926 10.0171 26.3995 8.66301C29.6865 7.31706 32.8428 6.38364 34.2165 6.18422L33.9292 4.20497C32.3141 4.43942 28.9801 5.44512 25.6416 6.81217C22.323 8.17107 18.7745 9.97629 16.8556 11.8952L18.2698 13.3094ZM10.2427 25.4886C10.2889 25.0867 10.4901 24.4226 10.8922 23.5271C11.2857 22.6509 11.8432 21.6149 12.5473 20.4876C13.9558 18.2325 15.9239 15.6553 18.2698 13.3094L16.8556 11.8952C14.3945 14.3562 12.3336 17.0543 10.851 19.4281C10.1095 20.6153 9.50588 21.7321 9.06773 22.7078C8.6382 23.6643 8.33726 24.5513 8.25575 25.2601L10.2427 25.4886ZM10.0722 24.7832L9.95632 24.6673L8.5421 26.0815L8.65799 26.1974L10.0722 24.7832ZM8.73044 24.7175L8.73022 24.7176L9.99953 26.2632L9.99975 26.2631L8.73044 24.7175ZM8.65777 26.1975L13.186 30.7258L14.6002 29.3116L10.072 24.7833L8.65777 26.1975ZM14.0074 31.0122C14.7162 30.9307 15.6032 30.6297 16.5597 30.2002C17.5354 29.762 18.6522 29.1584 19.8394 28.4169C22.2132 26.9343 24.9113 24.8734 27.3723 22.4124L25.9581 20.9981C23.6122 23.3441 21.035 25.3121 18.7799 26.7206C17.6527 27.4247 16.6166 27.9822 15.7404 28.3757C14.8449 28.7778 14.1808 28.979 13.7789 29.0253L14.0074 31.0122ZM27.3723 22.4124C29.2912 20.4935 31.0965 16.9449 32.4554 13.6263C33.8224 10.2877 34.8281 6.95371 35.0626 5.33871L33.0833 5.05139C32.8839 6.42503 31.9505 9.58137 30.6045 12.8684C29.2504 16.1753 27.5687 19.3875 25.9581 20.9981L27.3723 22.4124ZM33.3664 4.48739L33.3658 4.48794L34.78 5.90216L34.7806 5.9016L33.3664 4.48739ZM34.2163 6.18425L34.2166 6.1842L33.9304 4.20479L33.9297 4.20488L34.2163 6.18425ZM35.0624 5.33976L35.0624 5.33959L33.0836 5.04928L33.0836 5.04937L35.0624 5.33976ZM33.4382 4.42178L33.438 4.42194L34.7077 5.96725L34.7078 5.96709L33.4382 4.42178Z" fill="currentColor"/>
<path d="M15.8436 14.4137L8.55187 15.6676L1.91039 22.3091L11.2921 20.5443" stroke="currentColor" stroke-width="2" stroke-linecap="round" stroke-linejoin="round"/>
<path d="M24.8303 23.4003L23.5763 30.692L16.9348 37.3335L18.6997 27.9518" stroke="currentColor" stroke-width="2" stroke-linecap="round" stroke-linejoin="round"/>
<circle cx="23.8433" cy="15.4235" r="2.69638" transform="rotate(45 23.8433 15.4235)" stroke="currentColor" stroke-width="2"/>
</svg>
