<svg width="18" height="18" viewBox="0 0 18 18" fill="none" xmlns="http://www.w3.org/2000/svg">
<path d="M7.36353 5.72674C8.11024 5.72674 8.81433 5.88705 9.47987 6.20565C9.97902 6.44105 10.4295 6.76168 10.8353 7.16552C11.2391 7.56935 11.5597 8.02188 11.795 8.51907C11.4745 8.8397 11.0889 8.99798 10.6385 8.99798C10.4802 8.99798 10.3219 8.97363 10.1596 8.92696C9.88771 8.48457 9.51436 8.1132 9.07202 7.83925C8.54852 7.52065 7.97835 7.36033 7.36556 7.36033C6.93946 7.36033 6.52552 7.4415 6.12579 7.60385C5.72607 7.76619 5.36692 8.00565 5.05241 8.32019L2.59722 10.7757C2.28272 11.0902 2.04328 11.4494 1.88096 11.8492C1.72066 12.2428 1.63747 12.6629 1.63747 13.0891C1.63747 13.5152 1.71863 13.9292 1.88096 14.329C2.04328 14.7308 2.28069 15.0879 2.59722 15.4025C2.91376 15.7191 3.27088 15.9565 3.67061 16.1188C4.06425 16.2791 4.4863 16.3623 4.91241 16.3623C5.33851 16.3623 5.75244 16.2812 6.15217 16.1188C6.5519 15.9565 6.91105 15.717 7.22556 15.4025L8.94419 13.6837C9.49001 13.8318 10.0541 13.9069 10.6385 13.9069C10.7318 13.9069 10.8637 13.9028 11.0341 13.8947C10.9692 13.9657 10.9043 14.0368 10.8373 14.1058L8.38213 16.5612C7.90936 17.034 7.37368 17.3912 6.77307 17.6347C6.18261 17.8762 5.54954 18 4.91038 18C4.27122 18 3.64829 17.8782 3.04768 17.6327C2.44504 17.3871 1.90937 17.03 1.43862 16.5612C0.965843 16.0884 0.608724 15.5527 0.365235 14.954C0.123774 14.3635 0 13.7303 0 13.0911C0 12.4519 0.123774 11.8187 0.365235 11.2282C0.608724 10.6295 0.965843 10.0938 1.43862 9.62098L3.89381 7.16552C3.94047 7.11884 4.01149 7.0539 4.10483 6.96664C4.56137 6.56078 5.07067 6.25436 5.63273 6.04331C6.19478 5.83429 6.77104 5.72877 7.36353 5.72674ZM13.0916 2.45502e-05C13.7308 2.45502e-05 14.3639 0.123812 14.9543 0.3653C15.5529 0.606788 16.0886 0.965976 16.5634 1.4388C17.0362 1.91163 17.3953 2.44737 17.6368 3.04602C17.8782 3.63858 18.002 4.26969 18 4.90892C18 5.54816 17.8762 6.16913 17.6327 6.77183C17.3872 7.37454 17.0301 7.91027 16.5614 8.37904L14.1062 10.8345C14.0595 10.8832 13.9885 10.9481 13.8951 11.0334C13.4406 11.4392 12.9313 11.7457 12.3672 11.9567C11.8133 12.1657 11.2269 12.2733 10.6344 12.2733C9.88974 12.2733 9.18362 12.113 8.51808 11.7944C8.01893 11.559 7.56847 11.2383 7.16266 10.8345C6.75887 10.4307 6.43827 9.97814 6.2029 9.48096C6.52147 9.16033 6.90699 9.00204 7.35948 9.00204C7.51775 9.00204 7.67804 9.02639 7.83834 9.07307C8.11024 9.51546 8.48156 9.88682 8.9239 10.1608C9.44943 10.4794 10.0176 10.6397 10.6304 10.6397C11.0565 10.6397 11.4704 10.5585 11.8701 10.3962C12.2719 10.2338 12.629 9.99437 12.9435 9.67983L15.3987 7.22437C15.7152 6.90982 15.9526 6.55064 16.115 6.15086C16.2753 5.75717 16.3584 5.33711 16.3584 4.91095C16.3584 4.4848 16.2773 4.07082 16.115 3.67105C15.9526 3.26924 15.7132 2.91208 15.3987 2.59754C15.0822 2.28097 14.725 2.04354 14.3253 1.88119C13.9317 1.72088 13.5096 1.63768 13.0855 1.63768C12.6594 1.63768 12.2455 1.71885 11.8458 1.88119C11.444 2.04354 11.0869 2.283 10.7724 2.59754L9.05173 4.31637C8.50591 4.16823 7.94182 4.09314 7.35745 4.09314C7.26411 4.09314 7.13222 4.0972 6.96178 4.10532C7.02671 4.03429 7.09164 3.96327 7.16063 3.89427L9.61581 1.4388C10.0845 0.970034 10.6202 0.612876 11.2228 0.36733C11.8295 0.121783 12.4504 -0.00200476 13.0916 2.45502e-05Z" fill="currentColor"/>
</svg>
