<svg width="82" height="82" viewBox="0 0 82 82" fill="none" xmlns="http://www.w3.org/2000/svg">
<path fill-rule="evenodd" clip-rule="evenodd" d="M35.0046 45.5147L34.9004 35.4496H44.9105V38.5254H37.9884L38.0607 45.4826L35.0046 45.5147Z" fill="#979797"/>
<path fill-rule="evenodd" clip-rule="evenodd" d="M27.5964 45.5075L27.5 28H44.9106V31.0758H30.5734L30.6525 45.4901L27.5964 45.5075Z" fill="#979797"/>
<path fill-rule="evenodd" clip-rule="evenodd" d="M48.0995 48.5507H38.0894V45.4748H45.0114L44.9391 38.5174L47.9952 38.4852L48.0995 48.5507Z" fill="#979797"/>
<path fill-rule="evenodd" clip-rule="evenodd" d="M55.5 56.0003H38.0894V52.9245H52.4266L52.3474 38.5099L55.4035 38.4924L55.5 56.0003Z" fill="#979797"/>
<circle cx="41" cy="1.5" r="1.5" fill="#979797"/>
<circle cx="41" cy="80.5" r="1.5" fill="#979797"/>
<circle cx="30.7766" cy="2.84582" r="1.5" transform="rotate(-15 30.7766 2.84582)" fill="#979797"/>
<circle cx="51.2233" cy="79.1539" r="1.5" transform="rotate(-15 51.2233 79.1539)" fill="#979797"/>
<circle cx="21.2497" cy="6.79196" r="1.5" transform="rotate(-30 21.2497 6.79196)" fill="#979797"/>
<circle opacity="0.9" cx="60.7497" cy="75.2077" r="1.5" transform="rotate(-30 60.7497 75.2077)" fill="#979797"/>
<circle cx="13.0691" cy="13.0693" r="1.5" transform="rotate(-45 13.0691 13.0693)" fill="#979797"/>
<circle cx="68.9304" cy="68.9307" r="1.5" transform="rotate(-45 68.9304 68.9307)" fill="#979797"/>
<circle cx="6.79171" cy="21.25" r="1.5" transform="rotate(-60 6.79171 21.25)" fill="#979797"/>
<circle cx="75.2077" cy="60.75" r="1.5" transform="rotate(-60 75.2077 60.75)" fill="#979797"/>
<circle cx="2.84591" cy="30.7767" r="1.5" transform="rotate(-75 2.84591 30.7767)" fill="#979797"/>
<circle cx="79.154" cy="51.2235" r="1.5" transform="rotate(-75 79.154 51.2235)" fill="#979797"/>
<circle cx="1.5" cy="41" r="1.5" transform="rotate(-90 1.5 41)" fill="#979797"/>
<circle cx="80.5" cy="41" r="1.5" transform="rotate(-90 80.5 41)" fill="#979797"/>
<circle cx="2.84582" cy="51.2234" r="1.5" transform="rotate(-105 2.84582 51.2234)" fill="#979797"/>
<circle cx="79.1539" cy="30.7767" r="1.5" transform="rotate(-105 79.1539 30.7767)" fill="#979797"/>
<circle cx="6.79171" cy="60.75" r="1.5" transform="rotate(-120 6.79171 60.75)" fill="#979797"/>
<circle cx="75.2077" cy="21.25" r="1.5" transform="rotate(-120 75.2077 21.25)" fill="#979797"/>
<circle cx="13.0688" cy="68.9309" r="1.5" transform="rotate(-135 13.0688 68.9309)" fill="#979797"/>
<circle cx="68.9307" cy="13.0694" r="1.5" transform="rotate(-135 68.9307 13.0694)" fill="#979797"/>
<circle cx="21.2498" cy="75.2083" r="1.5" transform="rotate(-150 21.2498 75.2083)" fill="#979797"/>
<circle cx="60.7498" cy="6.79227" r="1.5" transform="rotate(-150 60.7498 6.79227)" fill="#979797"/>
<circle cx="30.7763" cy="79.1543" r="1.5" transform="rotate(-165 30.7763 79.1543)" fill="#979797"/>
<circle cx="51.223" cy="2.84623" r="1.5" transform="rotate(-165 51.223 2.84623)" fill="#979797"/>
</svg>
