<svg width="27" height="25" viewBox="0 0 27 25" fill="none" xmlns="http://www.w3.org/2000/svg">
<path d="M9.97565 3.15336C7.33755 2.13316 1.68417 0.0247322 1.53577 0L0.391907 4.08082L2.4014 12.1497L0.577399 17.9309L2.4014 23.5884L8.18257 21.9808L11.7069 24.454H13.5V3.15336H9.97565Z" fill="currentColor"/>
<path d="M2.67157 1.70972C5.58821 3.72532 11.6937 6.06482 11.7902 6.13702L8.47131 9.89413L3.5231 11.3983L1.53174 4.26849L2.67157 1.70972Z" fill="white"/>
<path d="M17.0243 3.15336C19.6625 2.13316 25.3158 0.0247322 25.4642 0L26.6081 4.08082L24.5986 12.1497L26.4226 17.9309L24.5986 23.5884L18.8174 21.9808L15.2931 24.454H13.5V3.15336H17.0243Z" fill="currentColor"/>
<path d="M11.193 16.0496C10.9123 15.3884 10.3158 14.0529 10.1754 14L8 15.0248L11.193 16.0496Z" fill="white"/>
<path d="M14 22V19.8182H11.7544L11.193 20.1488V22H14Z" fill="white"/>
<path d="M15.807 16.0496C16.0877 15.3884 16.6842 14.0529 16.8246 14L19 15.0248L15.807 16.0496Z" fill="white"/>
<path d="M13 22V19.8182H15.2456L15.807 20.1488V22H13Z" fill="white"/>
<path d="M24.3284 1.70972C21.4118 3.72532 15.3063 6.06482 15.2098 6.13702L18.5287 9.89413L23.4769 11.3983L25.4683 4.26849L24.3284 1.70972Z" fill="white"/>
</svg>
