<svg width="23" height="23" viewBox="0 0 23 23" fill="none" xmlns="http://www.w3.org/2000/svg">
<rect x="1.20507" y="0.698819" width="16.5612" height="16.0907" rx="2" transform="matrix(0.962491 -0.271313 0.242578 0.970132 -0.124317 5.59416)" stroke="currentColor" fill="none" stroke-width="2"/>
<rect x="1" y="6" width="20" height="16" rx="2"  stroke="currentColor" fill="black" stroke-width="2"/>
<path d="M13.4107 10.4089L11.7414 12.8889C11.626 13.0578 11.8479 13.2622 12.0078 13.12L13.6504 11.6889C13.6948 11.6533 13.7569 11.68 13.7569 11.7422V16.2133C13.7569 16.2756 13.677 16.3022 13.6415 16.2578L8.66926 10.3022C8.50943 10.1067 8.27858 10 8.02109 10H7.84351C7.3818 10 7 10.3822 7 10.8533V17.1467C7 17.6178 7.3818 18 7.85239 18C8.14539 18 8.42064 17.8489 8.58047 17.5911L10.2497 15.1111C10.3651 14.9422 10.1432 14.7378 9.98335 14.88L8.34073 16.3022C8.29634 16.3378 8.23418 16.3111 8.23418 16.2489V11.7867C8.23418 11.7244 8.3141 11.6978 8.34961 11.7422L13.3219 17.6978C13.4817 17.8933 13.7214 18 13.97 18H14.1476C14.6182 18 15 17.6178 15 17.1467V10.8533C15 10.3822 14.6182 10 14.1476 10C13.8457 10 13.5705 10.1511 13.4107 10.4089Z" fill="currentColor"/>
</svg>
