<svg width="38" height="35" viewBox="0 0 38 35" fill="none" xmlns="http://www.w3.org/2000/svg">
<rect x="12" y="3" width="15" height="19" rx="2" fill="none" stroke="currentColor" stroke-width="2"/>
<rect x="1" y="1" width="18" height="23" rx="2" fill="white" stroke="currentColor" stroke-width="2"/>
<path d="M11.5055 5C11.92 5 12.2727 5.14545 12.5636 5.43636C12.8545 5.72727 13 6.08 13 6.49455C13 6.90909 12.8545 7.26545 12.5636 7.56364C12.2727 7.85455 11.92 8 11.5055 8C11.0909 8 10.7345 7.85455 10.4364 7.56364C10.1455 7.26545 10 6.90909 10 6.49455C10 6.08 10.1455 5.72727 10.4364 5.43636C10.7345 5.14545 11.0909 5 11.5055 5Z" fill="black"/>
<path d="M7.14876 16.7306C7.04959 17.1036 7 17.3765 7 17.5492C7 18.0397 7.18182 18.4059 7.54545 18.6477C7.91736 18.8826 8.33471 19 8.79752 19C9.6157 19 10.3843 18.7098 11.1033 18.1295C11.5413 17.7772 12.1736 17.0933 13 16.0777L12.4421 15.7772C12.1529 16.1779 11.8182 16.5613 11.438 16.9275C11.0579 17.2936 10.7397 17.4767 10.4835 17.4767C10.3843 17.4767 10.2934 17.456 10.2107 17.4145C10.1281 17.3661 10.0868 17.266 10.0868 17.114C10.0868 16.962 10.1612 16.6304 10.3099 16.1192C10.3678 15.9188 10.4793 15.5596 10.6446 15.0415L12.6157 9L11.5248 9.17617C11.1446 9.23834 10.4959 9.31434 9.57851 9.40415C8.66942 9.48705 7.97521 9.54231 7.49587 9.56995V10.1295C8.06612 10.1503 8.45868 10.1952 8.67355 10.2642C8.88843 10.3333 8.99587 10.5095 8.99587 10.7927C8.99587 10.8411 8.9876 10.8929 8.97107 10.9482C8.96281 11.0035 8.95041 11.0587 8.93388 11.114L7.40909 15.8808C7.29339 16.2332 7.20661 16.5164 7.14876 16.7306Z" fill="black"/>
<path d="M19 8H24" stroke="currentColor" stroke-width="2"/>
<path d="M19 12H24" stroke="currentColor" stroke-width="2"/>
<path d="M19 16H22" stroke="currentColor" stroke-width="2"/>
</svg>
