<svg viewBox="0 0 18 24" fill="none" xmlns="http://www.w3.org/2000/svg">
<path d="M9 5.45455V8.72727L13.5 4.36364L9 0V3.27273C4.0275 3.27273 0 7.17818 0 12C0 13.7127 0.5175 15.3055 1.395 16.6473L3.0375 15.0545C2.53125 14.1491 2.25 13.1018 2.25 12C2.25 8.38909 5.27625 5.45455 9 5.45455ZM16.605 7.35273L14.9625 8.94545C15.4575 9.86182 15.75 10.8982 15.75 12C15.75 15.6109 12.7238 18.5455 9 18.5455V15.2727L4.5 19.6364L9 24V20.7273C13.9725 20.7273 18 16.8218 18 12C18 10.2873 17.4825 8.69455 16.605 7.35273Z" fill="currentColor"/>
</svg>
