<svg width="24" height="25" viewBox="0 0 24 25" fill="none" xmlns="http://www.w3.org/2000/svg">
<path d="M6.28364 4.84311L4.32 2.87142L2.78182 4.42454L4.73455 6.39622L6.28364 4.84311ZM3.27273 11.0776H0V13.2806H3.27273V11.0776ZM13.0909 0.117676H10.9091V3.3671H13.0909V0.117676ZM21.2182 4.42454L19.68 2.87142L17.7273 4.84311L19.2655 6.39622L21.2182 4.42454ZM17.7164 19.5151L19.6691 21.4978L21.2073 19.9447L19.2436 17.973L17.7164 19.5151ZM20.7273 11.0776V13.2806H24V11.0776H20.7273ZM10.9091 24.2405H13.0909V20.9911H10.9091V24.2405ZM2.78182 19.9336L4.32 21.4868L6.27273 19.5041L4.73455 17.9509L2.78182 19.9336Z" fill="currentColor"/>
<circle cx="12" cy="12" r="6" stroke="currentColor" stroke-width="2"/>
</svg>
