<svg viewBox="0 0 19 19" fill="none" xmlns="http://www.w3.org/2000/svg">
<path d="M18.4395 9.101L9.8895 0.551C9.5475 0.209 9.0725 0 8.55 0H1.9C0.855 0 0 0.855 0 1.9V8.55C0 9.0725 0.209 9.5475 0.5605 9.899L9.1105 18.449C9.4525 18.791 9.9275 19 10.45 19C10.9725 19 11.4475 18.791 11.7895 18.4395L18.4395 11.7895C18.791 11.4475 19 10.9725 19 10.45C19 9.9275 18.7815 9.443 18.4395 9.101ZM3.325 4.75C2.5365 4.75 1.9 4.1135 1.9 3.325C1.9 2.5365 2.5365 1.9 3.325 1.9C4.1135 1.9 4.75 2.5365 4.75 3.325C4.75 4.1135 4.1135 4.75 3.325 4.75Z" fill="currentColor"/>
</svg>
