<svg width="21" height="21" viewBox="0 0 21 21" fill="none" xmlns="http://www.w3.org/2000/svg">
<path d="M9.35624 2.48854C9.80549 1.51108 11.1945 1.51108 11.6438 2.48854C11.973 3.20479 12.872 3.44569 13.5152 2.98999C14.393 2.36811 15.5959 3.06262 15.4963 4.13375C15.4232 4.91864 16.0814 5.57678 16.8662 5.50374C17.9374 5.40408 18.6319 6.607 18.01 7.4848C17.5543 8.12801 17.7952 9.02704 18.5115 9.35624C19.4889 9.80549 19.4889 11.1945 18.5115 11.6438C17.7952 11.973 17.5543 12.872 18.01 13.5152C18.6319 14.393 17.9374 15.5959 16.8662 15.4963C16.0814 15.4232 15.4232 16.0814 15.4963 16.8662C15.5959 17.9374 14.393 18.6319 13.5152 18.01C12.872 17.5543 11.973 17.7952 11.6438 18.5115C11.1945 19.4889 9.80549 19.4889 9.35624 18.5115C9.02704 17.7952 8.12801 17.5543 7.4848 18.01C6.607 18.6319 5.40408 17.9374 5.50374 16.8662C5.57678 16.0814 4.91864 15.4232 4.13375 15.4963C3.06262 15.5959 2.36811 14.393 2.98999 13.5152C3.44569 12.872 3.20479 11.973 2.48854 11.6438C1.51108 11.1945 1.51108 9.80549 2.48854 9.35624C3.20479 9.02704 3.44569 8.12801 2.98999 7.4848C2.36811 6.607 3.06262 5.40408 4.13375 5.50374C4.91864 5.57678 5.57678 4.91864 5.50374 4.13375C5.40408 3.06262 6.607 2.36811 7.4848 2.98999C8.12801 3.44569 9.02704 3.20479 9.35624 2.48854Z" fill="currentColor"/>
<path d="M7 10.2222L9.5 12.5L14 8" stroke="white" stroke-width="2"/>
</svg>
