<svg width="21" height="22" viewBox="0 0 21 22" fill="none" xmlns="http://www.w3.org/2000/svg">
<path fill-rule="evenodd" clip-rule="evenodd" d="M19.8333 0.5H3C1.34315 0.5 0 1.84315 0 3.5V18.5C0 20.1569 1.34315 21.5 3 21.5H18.8382C20.0321 21.5 21 20.5321 21 19.3382V7.39158C21 6.16279 20.0039 5.16667 18.7751 5.16667H3.57292C2.88831 5.16667 2.33333 4.61169 2.33333 3.92708C2.33333 3.24248 2.88831 2.6875 3.57292 2.6875H19.8333V0.5ZM17.5001 14.4999C18.3055 14.4999 18.9584 13.847 18.9584 13.0416C18.9584 12.2362 18.3055 11.5833 17.5001 11.5833C16.6947 11.5833 16.0417 12.2362 16.0417 13.0416C16.0417 13.847 16.6947 14.4999 17.5001 14.4999Z" fill="currentColor"/>
</svg>
