<svg class="fill-blue-500" width="28" height="21" viewBox="0 0 28 21" fill="none" xmlns="http://www.w3.org/2000/svg">
<path fill-rule="evenodd" clip-rule="evenodd" d="M24.0595 2.45008C21.6921 0.559169 17.9464 0.238704 17.7858 0.227504C17.5357 0.207073 17.2999 0.345806 17.1981 0.573345C17.1266 0.732814 17.066 0.896862 17.0166 1.06436C18.5829 1.32699 20.5066 1.85519 22.2471 2.92695C22.4277 3.03817 22.5348 3.23655 22.5281 3.44738C22.5213 3.6582 22.4017 3.84944 22.2143 3.94903C22.0269 4.04863 21.8002 4.04147 21.6195 3.93025C18.6275 2.08714 14.8907 1.99566 14.1703 1.99566C13.4506 1.99566 9.71141 2.08772 6.72115 3.92965C6.44191 4.10159 6.07505 4.01637 5.90176 3.73933C5.72846 3.46228 5.81435 3.09829 6.0936 2.92636C7.8341 1.85755 9.75781 1.32699 11.324 1.06672C11.2454 0.812084 11.173 0.639171 11.1516 0.588008L11.1456 0.573345C11.0441 0.344081 10.8062 0.20483 10.5549 0.227504C10.3943 0.239299 6.64858 0.559169 4.2484 2.47547C2.99626 3.62512 0.489014 10.3478 0.489014 16.1598C0.489014 16.2637 0.516971 16.3628 0.568127 16.4525C2.29673 19.4683 7.01619 20.2562 8.09166 20.291H8.1101C8.30048 20.2915 8.4796 20.2016 8.59192 20.0491L9.6787 18.5642C6.74435 17.8129 5.24535 16.5357 5.1597 16.4596C4.91331 16.2438 4.88987 15.8708 5.10735 15.6263C5.32483 15.3818 5.70087 15.3586 5.94727 15.5744C5.98177 15.6068 8.74242 17.9303 14.1703 17.9303C19.5659 17.9303 22.3257 15.6327 22.3947 15.5753L22.3958 15.5744C22.6429 15.3601 23.0182 15.385 23.2345 15.6298C23.3383 15.7469 23.391 15.9001 23.381 16.0557C23.371 16.2114 23.299 16.3566 23.181 16.4596C23.0953 16.5357 21.5963 17.8129 18.662 18.5642L19.7493 20.0491C19.8615 20.2014 20.0404 20.2913 20.2306 20.291H20.2484C21.3251 20.2562 26.0439 19.4677 27.7731 16.4525C27.8237 16.3628 27.8517 16.2637 27.8517 16.1598C27.8517 10.3478 25.3444 3.62571 24.0595 2.45008ZM10.3039 13.7995C9.15344 13.7995 8.22192 12.7431 8.22192 11.4388C8.22192 10.1345 9.15344 9.07812 10.3039 9.07812C11.4543 9.07812 12.3858 10.1345 12.3858 11.4388C12.3858 12.7431 11.4543 13.7995 10.3039 13.7995ZM15.9548 11.4388C15.9548 12.7431 16.8864 13.7995 18.0368 13.7995C19.1872 13.7995 20.1187 12.7431 20.1187 11.4388C20.1187 10.1345 19.1872 9.07812 18.0368 9.07812C16.8864 9.07812 15.9548 10.1345 15.9548 11.4388Z" fill="currentColor"/>
</svg>
