<svg width="23" height="23" viewBox="0 0 23 23" fill="none" xmlns="http://www.w3.org/2000/svg">
<path fill-rule="evenodd" clip-rule="evenodd" d="M22.98 15.9543V6.27426C22.9761 2.87378 20.2205 0.118109 16.82 0.114258H7.13998C3.7395 0.118109 0.983832 2.87378 0.97998 6.27426V15.9543C0.983832 19.3547 3.7395 22.1104 7.13998 22.1143H16.82C20.2205 22.1104 22.9761 19.3547 22.98 15.9543ZM11.9801 14.6342C13.9241 14.6342 15.5001 13.0583 15.5001 11.1142C15.4979 9.17112 13.9232 7.59646 11.9801 7.59424C10.036 7.59424 8.46008 9.1702 8.46008 11.1142C8.46008 13.0583 10.036 14.6342 11.9801 14.6342ZM17.2601 11.1145C17.2601 8.19841 14.8961 5.83447 11.9801 5.83447C9.06401 5.83447 6.70007 8.19841 6.70007 11.1145C6.70007 14.0305 9.06401 16.3945 11.9801 16.3945C14.8948 16.3912 17.2568 14.0292 17.2601 11.1145ZM17.7 4.07422C18.429 4.07422 19.02 4.6652 19.02 5.39422C19.02 6.12323 18.429 6.71422 17.7 6.71422C16.971 6.71422 16.38 6.12323 16.38 5.39422C16.38 4.6652 16.971 4.07422 17.7 4.07422Z" fill="currentColor"/>
</svg>
