<svg width="26" height="21" viewBox="0 0 26 21" fill="none" xmlns="http://www.w3.org/2000/svg">
<path d="M22.7818 5.13824C22.7974 5.3577 22.7974 5.57721 22.7974 5.79667C22.7974 12.4905 17.719 20.2034 8.43723 20.2034C5.57767 20.2034 2.92128 19.3725 0.686768 17.9303C1.09306 17.9773 1.48366 17.993 1.90559 17.993C4.26506 17.993 6.4371 17.1935 8.17158 15.8297C5.9527 15.7826 4.0932 14.3247 3.45253 12.3181C3.76508 12.3651 4.07757 12.3965 4.40575 12.3965C4.85889 12.3965 5.31207 12.3337 5.73394 12.224C3.42132 11.7537 1.68678 9.71579 1.68678 7.25458V7.1919C2.35867 7.56813 3.14004 7.80328 3.96815 7.8346C2.60869 6.92534 1.71805 5.37338 1.71805 3.6176C1.71805 2.67703 1.96802 1.81482 2.40557 1.06234C4.8901 4.13494 8.62472 6.1415 12.8124 6.361C12.7343 5.98477 12.6874 5.59289 12.6874 5.20097C12.6874 2.41052 14.9376 0.137451 17.7346 0.137451C19.1878 0.137451 20.5004 0.748833 21.4223 1.73645C22.563 1.51699 23.6568 1.09371 24.6256 0.51369C24.2505 1.68946 23.4536 2.67708 22.4067 3.30409C23.4224 3.19441 24.4069 2.91217 25.3131 2.5203C24.6257 3.52355 23.7662 4.41708 22.7818 5.13824Z" fill="currentColor"/>
</svg>
