<svg width="80" height="134" viewBox="0 0 80 134" fill="none" xmlns="http://www.w3.org/2000/svg">
<mask id="mask0_2370_504" style="mask-type:alpha" maskUnits="userSpaceOnUse" x="39" y="49" width="29" height="47">
<path fill-rule="evenodd" clip-rule="evenodd" d="M66.941 49.8862L39.7511 95.5546C39.7511 95.5546 39.7395 95.5741 39.7161 95.6136C39.7312 95.6226 39.7385 95.627 39.7385 95.627L39.7611 95.6405L39.7838 95.6539L39.8064 95.6673L39.8289 95.6807L39.8514 95.6942L39.8741 95.7071C39.8741 95.7071 39.8817 95.7121 39.8967 95.7207C39.9202 95.6815 39.9317 95.662 39.9317 95.662L67.1215 49.9932C67.1215 49.9932 67.1333 49.9737 67.1568 49.9342C67.1417 49.9255 67.1342 49.9208 67.1342 49.9208L67.1115 49.9077L67.0891 49.8941L67.0664 49.8809L67.0439 49.8675L67.0214 49.8541L66.9987 49.8405C66.9987 49.8405 66.9911 49.8362 66.9763 49.8271C66.9528 49.8664 66.941 49.8862 66.941 49.8862Z" fill="white"/>
</mask>
<g mask="url(#mask0_2370_504)">
<path fill-rule="evenodd" clip-rule="evenodd" d="M66.941 49.8862L39.7511 95.5546C39.7511 95.5546 39.7395 95.5741 39.7161 95.6136C39.7312 95.6226 39.7385 95.627 39.7385 95.627L39.7611 95.6405L39.7838 95.6539L39.8064 95.6673L39.8289 95.6807L39.8514 95.6942L39.8741 95.7071C39.8741 95.7071 39.8817 95.7121 39.8967 95.7207C39.9202 95.6815 39.9317 95.662 39.9317 95.662L67.1215 49.9932C67.1215 49.9932 67.1333 49.9737 67.1568 49.9342C67.1417 49.9255 67.1342 49.9208 67.1342 49.9208L67.1115 49.9077L67.0891 49.8941L67.0664 49.8809L67.0439 49.8675L67.0214 49.8541L66.9987 49.8405C66.9987 49.8405 66.9911 49.8362 66.9763 49.8271C66.9528 49.8664 66.941 49.8862 66.941 49.8862Z" fill="currentColor"/>
</g>
<mask id="mask1_2370_504" style="mask-type:alpha" maskUnits="userSpaceOnUse" x="39" y="54" width="13" height="42">
<path fill-rule="evenodd" clip-rule="evenodd" d="M50.974 55.0181L39.7239 95.573C39.7239 95.573 39.7178 95.5954 39.7056 95.6394C39.7225 95.6439 39.731 95.6463 39.731 95.6463L39.7563 95.6532L39.7816 95.6601L39.8069 95.6675L39.8321 95.6744L39.8574 95.6814L39.8826 95.6887C39.8826 95.6887 39.8912 95.6907 39.9081 95.6955C39.9204 95.6513 39.9263 95.6292 39.9263 95.6292L51.1764 55.0742C51.1764 55.0742 51.1827 55.0523 51.1947 55.0081C51.178 55.0034 51.1694 55.0014 51.1694 55.0014L51.1442 54.994L51.1189 54.9872L51.0934 54.9802L51.0682 54.9733L51.0431 54.9662L51.0176 54.9593C51.0176 54.9593 51.0093 54.9568 50.9923 54.9521L50.974 55.0181Z" fill="white"/>
</mask>
<g mask="url(#mask1_2370_504)">
<path fill-rule="evenodd" clip-rule="evenodd" d="M50.974 55.0181L39.7239 95.573C39.7239 95.573 39.7178 95.5954 39.7056 95.6394C39.7225 95.6439 39.731 95.6463 39.731 95.6463L39.7563 95.6532L39.7816 95.6601L39.8069 95.6675L39.8321 95.6744L39.8574 95.6814L39.8826 95.6887C39.8826 95.6887 39.8912 95.6907 39.9081 95.6955C39.9204 95.6513 39.9263 95.6292 39.9263 95.6292L51.1764 55.0742C51.1764 55.0742 51.1827 55.0523 51.1947 55.0081C51.178 55.0034 51.1694 55.0014 51.1694 55.0014L51.1442 54.994L51.1189 54.9872L51.0934 54.9802L51.0682 54.9733L51.0431 54.9662L51.0176 54.9593C51.0176 54.9593 51.0093 54.9568 50.9923 54.9521L50.974 55.0181Z" fill="currentColor"/>
</g>
<mask id="mask2_2370_504" style="mask-type:alpha" maskUnits="userSpaceOnUse" x="12" y="49" width="28" height="47">
<path fill-rule="evenodd" clip-rule="evenodd" d="M12.9935 49.8415L12.9708 49.8549L12.9483 49.8679L12.9256 49.8814L12.9029 49.8944L12.8804 49.9078L12.8576 49.9208L12.835 49.9343C12.8579 49.9738 12.8696 49.9933 12.8696 49.9933L39.6813 95.6616C39.6813 95.6616 39.693 95.6811 39.7162 95.7206C39.7311 95.7118 39.7386 95.7076 39.7386 95.7076L39.7615 95.6941L39.7841 95.6811L39.8068 95.6678L39.8294 95.6544L39.8519 95.6413L39.8748 95.6279L39.8974 95.6145C39.8742 95.5754 39.8625 95.5554 39.8625 95.5554L13.0508 49.8873C13.0508 49.8873 13.0394 49.8676 13.0161 49.8281L12.9935 49.8415Z" fill="white"/>
</mask>
<g mask="url(#mask2_2370_504)">
<path fill-rule="evenodd" clip-rule="evenodd" d="M12.9935 49.8415L12.9708 49.8549L12.9483 49.8679L12.9256 49.8814L12.9029 49.8944L12.8804 49.9078L12.8576 49.9208L12.835 49.9343C12.8579 49.9738 12.8696 49.9933 12.8696 49.9933L39.6813 95.6616C39.6813 95.6616 39.693 95.6811 39.7162 95.7206C39.7311 95.7118 39.7386 95.7076 39.7386 95.7076L39.7615 95.6941L39.7841 95.6811L39.8068 95.6678L39.8294 95.6544L39.8519 95.6413L39.8748 95.6279L39.8974 95.6145C39.8742 95.5754 39.8625 95.5554 39.8625 95.5554L13.0508 49.8873C13.0508 49.8873 13.0394 49.8676 13.0161 49.8281L12.9935 49.8415Z" fill="currentColor"/>
</g>
<mask id="mask3_2370_504" style="mask-type:alpha" maskUnits="userSpaceOnUse" x="28" y="54" width="12" height="42">
<path fill-rule="evenodd" clip-rule="evenodd" d="M28.9757 54.9603L28.9504 54.9672L28.9249 54.9739L28.8996 54.9806L28.8742 54.9876L28.8489 54.9941L28.8235 55.001C28.8235 55.001 28.8151 55.003 28.7981 55.0079C28.8098 55.0518 28.8156 55.074 28.8156 55.074L39.6881 95.6288L39.7059 95.6948C39.7228 95.6903 39.7313 95.6883 39.7313 95.6883L39.7566 95.6813L39.7821 95.6744L39.8074 95.6679L39.8328 95.661L39.8581 95.6545L39.8836 95.6475C39.8836 95.6475 39.8919 95.6451 39.9089 95.6406L39.8911 95.5747L29.0187 55.0198C29.0187 55.0198 29.013 54.9978 29.001 54.9536C28.984 54.958 28.9757 54.9603 28.9757 54.9603Z" fill="white"/>
</mask>
<g mask="url(#mask3_2370_504)">
<path fill-rule="evenodd" clip-rule="evenodd" d="M28.9757 54.9603L28.9504 54.9672L28.9249 54.9739L28.8996 54.9806L28.8742 54.9876L28.8489 54.9941L28.8235 55.001C28.8235 55.001 28.8151 55.003 28.7981 55.0079C28.8098 55.0518 28.8156 55.074 28.8156 55.074L39.6881 95.6288L39.7059 95.6948C39.7228 95.6903 39.7313 95.6883 39.7313 95.6883L39.7566 95.6813L39.7821 95.6744L39.8074 95.6679L39.8328 95.661L39.8581 95.6545L39.8836 95.6475C39.8836 95.6475 39.8919 95.6451 39.9089 95.6406L39.8911 95.5747L29.0187 55.0198C29.0187 55.0198 29.013 54.9978 29.001 54.9536C28.984 54.958 28.9757 54.9603 28.9757 54.9603Z" fill="currentColor"/>
</g>
<mask id="mask4_2370_504" style="mask-type:alpha" maskUnits="userSpaceOnUse" x="51" y="13" width="29" height="37">
<path fill-rule="evenodd" clip-rule="evenodd" d="M65.3908 49.0004C65.3908 49.0004 69.5992 50.4204 73.3165 49.6557C76.6341 48.9736 79.5083 46.6029 79.5083 45.029C79.5083 45.029 79.6637 43.377 78.7674 40.0251C77.5945 35.6373 74.4013 29.243 69.3959 23.636C61.4452 14.7294 56.4838 13.6736 52.4845 13.6736C48.4852 13.6736 58.5197 31.9452 65.3908 49.0004Z" fill="white"/>
</mask>
<g mask="url(#mask4_2370_504)">
<path fill-rule="evenodd" clip-rule="evenodd" d="M65.3908 49.0004C65.3908 49.0004 69.5992 50.4204 73.3165 49.6557C76.6341 48.9736 79.5083 46.6029 79.5083 45.029C79.5083 45.029 79.6637 43.377 78.7674 40.0251C77.5945 35.6373 74.4013 29.243 69.3959 23.636C61.4452 14.7294 56.4838 13.6736 52.4845 13.6736C48.4852 13.6736 58.5197 31.9452 65.3908 49.0004Z" fill="url(#paint0_linear_2370_504)"/>
</g>
<mask id="mask5_2370_504" style="mask-type:alpha" maskUnits="userSpaceOnUse" x="0" y="13" width="29" height="37">
<path fill-rule="evenodd" clip-rule="evenodd" d="M10.2143 23.636C5.20896 29.243 2.01594 35.6373 0.843044 40.0251C-0.0532226 43.377 0.0915115 45.029 0.0915115 45.029C0.0915115 46.5447 2.97597 48.9736 6.294 49.6557C10.0112 50.4204 14.2195 49.0004 14.2195 49.0004C21.0906 31.9452 31.1251 13.6736 27.1258 13.6736C23.1267 13.6736 18.1651 14.7294 10.2143 23.636Z" fill="white"/>
</mask>
<g mask="url(#mask5_2370_504)">
<path fill-rule="evenodd" clip-rule="evenodd" d="M10.2143 23.636C5.20896 29.243 2.01594 35.6373 0.843044 40.0251C-0.0532226 43.377 0.0915115 45.029 0.0915115 45.029C0.0915115 46.5447 2.97597 48.9736 6.294 49.6557C10.0112 50.4204 14.2195 49.0004 14.2195 49.0004C21.0906 31.9452 31.1251 13.6736 27.1258 13.6736C23.1267 13.6736 18.1651 14.7294 10.2143 23.636Z" fill="url(#paint1_linear_2370_504)"/>
</g>
<mask id="mask6_2370_504" style="mask-type:alpha" maskUnits="userSpaceOnUse" x="13" y="14" width="25" height="41">
<path fill-rule="evenodd" clip-rule="evenodd" d="M13.0125 49.333C13.0125 49.333 16.672 52.9375 22.9957 53.9677C33.1276 55.6189 34.2356 50.5392 34.2356 50.5392C35.4431 25.0765 40.1744 16.5698 34.1877 14.6613C33.8173 14.5433 33.4303 14.4861 33.0292 14.4861C25.8057 14.486 14.0003 33.0398 13.0125 49.333Z" fill="white"/>
</mask>
<g mask="url(#mask6_2370_504)">
<path fill-rule="evenodd" clip-rule="evenodd" d="M13.0125 49.333C13.0125 49.333 16.672 52.9375 22.9957 53.9677C33.1276 55.6189 34.2356 50.5392 34.2356 50.5392C35.4431 25.0765 40.1744 16.5698 34.1877 14.6613C33.8173 14.5433 33.4303 14.4861 33.0292 14.4861C25.8057 14.486 14.0003 33.0398 13.0125 49.333Z" fill="url(#paint2_linear_2370_504)"/>
</g>
<mask id="mask7_2370_504" style="mask-type:alpha" maskUnits="userSpaceOnUse" x="41" y="14" width="26" height="41">
<path fill-rule="evenodd" clip-rule="evenodd" d="M44.3573 14.849C38.4472 16.5394 43.5439 25.2261 45.8364 50.753C45.8364 50.753 47.1615 55.8774 57.2309 54.5968C63.5157 53.7978 66.9867 49.4261 66.9867 49.4261C65.2959 33.0017 52.6085 14.706 45.4012 14.7075C45.039 14.7076 44.6898 14.754 44.3573 14.849Z" fill="white"/>
</mask>
<g mask="url(#mask7_2370_504)">
<path fill-rule="evenodd" clip-rule="evenodd" d="M44.3573 14.849C38.4472 16.5394 43.5439 25.2261 45.8364 50.753C45.8364 50.753 47.1615 55.8774 57.2309 54.5968C63.5157 53.7978 66.9867 49.4261 66.9867 49.4261C65.2959 33.0017 52.6085 14.706 45.4012 14.7075C45.039 14.7076 44.6898 14.754 44.3573 14.849Z" fill="url(#paint3_linear_2370_504)"/>
</g>
<mask id="mask8_2370_504" style="mask-type:alpha" maskUnits="userSpaceOnUse" x="28" y="17" width="24" height="40">
<path fill-rule="evenodd" clip-rule="evenodd" d="M28.798 54.1678C28.798 54.1678 33.292 56.6468 39.9969 56.6468C46.7021 56.6468 51.196 54.5344 51.196 54.5344C51.6778 28.104 45.9449 17.4534 39.9969 17.4534C34.0492 17.4534 28.3162 27.7373 28.798 54.1678Z" fill="white"/>
</mask>
<g mask="url(#mask8_2370_504)">
<path fill-rule="evenodd" clip-rule="evenodd" d="M28.798 54.1678C28.798 54.1678 33.292 56.6468 39.9969 56.6468C46.7021 56.6468 51.196 54.5344 51.196 54.5344C51.6778 28.104 45.9449 17.4534 39.9969 17.4534C34.0492 17.4534 28.3162 27.7373 28.798 54.1678Z" fill="url(#paint4_linear_2370_504)"/>
</g>
<path fill-rule="evenodd" clip-rule="evenodd" d="M13.3377 49.6277C14.3175 33.4659 25.9658 14.7874 33.2034 14.4922C25.9973 14.1876 14.0083 32.9096 13.0125 49.3345L13.3377 49.6277Z" fill="#1B1B1B"/>
<path fill-rule="evenodd" clip-rule="evenodd" d="M45.2291 14.7123C52.4656 15.0069 65.0367 33.4508 66.7138 49.7406L66.9873 49.4269C65.283 32.8713 52.4047 14.4145 45.2291 14.7123Z" fill="#1B1B1B"/>
<path fill-rule="evenodd" clip-rule="evenodd" d="M32.5124 24.5449C30.0907 30.3232 28.5369 39.8893 28.7973 54.1685C28.7973 54.1685 28.914 54.2328 29.1364 54.3402C28.9474 40.2236 30.3356 30.5704 32.5124 24.5449Z" fill="#1B1B1B"/>
<path fill-rule="evenodd" clip-rule="evenodd" d="M47.4321 24.5908C49.6341 30.7001 51.0434 40.4817 50.8565 54.6812C51.0787 54.5898 51.1951 54.535 51.1951 54.535C51.4571 40.1619 49.8811 30.456 47.4321 24.5908Z" fill="#1B1B1B"/>
<mask id="mask9_2370_504" style="mask-type:alpha" maskUnits="userSpaceOnUse" x="0" y="6" width="24" height="40">
<path fill-rule="evenodd" clip-rule="evenodd" d="M15.0177 9.51153C7.98208 14.8248 0.00626103 25.8983 0 42.0008V42.0374C0.000417402 43.0124 0.0299486 44.0068 0.0906806 45.0183C0.0867153 44.9317 0.0795151 44.2597 0.714279 43.0128C1.40727 41.6516 2.10496 40.9667 3.63223 40.4725C6.94745 39.4005 9.59232 41.4851 9.59232 41.4851C9.59232 41.4851 9.1649 35.1823 13.6942 24.4154C17.7787 14.7053 23.9258 6.32763 23.9258 6.32763C23.9258 6.32763 23.8879 6.32617 23.8155 6.32617C23.1028 6.32617 19.05 6.46649 15.0177 9.51153Z" fill="white"/>
</mask>
<g mask="url(#mask9_2370_504)">
<path fill-rule="evenodd" clip-rule="evenodd" d="M15.0177 9.51153C7.98208 14.8248 0.00626103 25.8983 0 42.0008V42.0374C0.000417402 43.0124 0.0299486 44.0068 0.0906806 45.0183C0.0867153 44.9317 0.0795151 44.2597 0.714279 43.0128C1.40727 41.6516 2.10496 40.9667 3.63223 40.4725C6.94745 39.4005 9.59232 41.4851 9.59232 41.4851C9.59232 41.4851 9.1649 35.1823 13.6942 24.4154C17.7787 14.7053 23.9258 6.32763 23.9258 6.32763C23.9258 6.32763 23.8879 6.32617 23.8155 6.32617C23.1028 6.32617 19.05 6.46649 15.0177 9.51153Z" fill="url(#paint5_linear_2370_504)"/>
</g>
<mask id="mask10_2370_504" style="mask-type:alpha" maskUnits="userSpaceOnUse" x="55" y="6" width="25" height="40">
<path fill-rule="evenodd" clip-rule="evenodd" d="M55.9197 6.32812C55.9197 6.32812 62.0668 14.7058 66.1515 24.4159C70.6806 35.1828 70.2534 41.4856 70.2534 41.4856C70.2534 41.4856 72.898 39.4009 76.2132 40.473C77.7405 40.9672 78.2569 41.6927 79.0246 43.0133C79.519 43.8638 79.5087 45.0284 79.5087 45.0284C80.5782 27.2824 72.296 15.152 64.8278 9.51202C60.7957 6.46698 56.7428 6.32666 56.03 6.32666C55.9576 6.32666 55.9197 6.32812 55.9197 6.32812Z" fill="white"/>
</mask>
<g mask="url(#mask10_2370_504)">
<path fill-rule="evenodd" clip-rule="evenodd" d="M55.9197 6.32812C55.9197 6.32812 62.0668 14.7058 66.1515 24.4159C70.6806 35.1828 70.2534 41.4856 70.2534 41.4856C70.2534 41.4856 72.898 39.4009 76.2132 40.473C77.7405 40.9672 78.2569 41.6927 79.0246 43.0133C79.519 43.8638 79.5087 45.0284 79.5087 45.0284C80.5782 27.2824 72.296 15.152 64.8278 9.51202C60.7957 6.46698 56.7428 6.32666 56.03 6.32666C55.9576 6.32666 55.9197 6.32812 55.9197 6.32812Z" fill="url(#paint6_linear_2370_504)"/>
</g>
<mask id="mask11_2370_504" style="mask-type:alpha" maskUnits="userSpaceOnUse" x="9" y="2" width="29" height="40">
<path fill-rule="evenodd" clip-rule="evenodd" d="M24.5326 5.74891C14.6638 12.0122 6.87588 29.5199 9.59192 41.4861C9.59192 41.4861 10.9155 35.9611 18.0414 33.177C25.2396 30.3646 28.06 33.9898 28.06 33.9898L37.0907 2.13322C37.0907 2.13322 36.6651 2.06665 35.8997 2.06665C33.9114 2.06655 29.6271 2.51584 24.5326 5.74891Z" fill="white"/>
</mask>
<g mask="url(#mask11_2370_504)">
<path fill-rule="evenodd" clip-rule="evenodd" d="M24.5326 5.74891C14.6638 12.0122 6.87588 29.5199 9.59192 41.4861C9.59192 41.4861 10.9155 35.9611 18.0414 33.177C25.2396 30.3646 28.06 33.9898 28.06 33.9898L37.0907 2.13322C37.0907 2.13322 36.6651 2.06665 35.8997 2.06665C33.9114 2.06655 29.6271 2.51584 24.5326 5.74891Z" fill="url(#paint7_linear_2370_504)"/>
</g>
<mask id="mask12_2370_504" style="mask-type:alpha" maskUnits="userSpaceOnUse" x="42" y="2" width="29" height="40">
<path fill-rule="evenodd" clip-rule="evenodd" d="M42.9443 2.17604L51.9754 34.0323C51.9754 34.0323 54.7956 30.4073 61.9936 33.2195C69.1195 36.0037 70.253 41.4859 70.253 41.4859C72.969 29.5197 65.3716 12.0551 55.5026 5.79163C50.4085 2.55867 46.1242 2.10927 44.1356 2.10938C43.3699 2.10938 42.9443 2.17604 42.9443 2.17604Z" fill="white"/>
</mask>
<g mask="url(#mask12_2370_504)">
<path fill-rule="evenodd" clip-rule="evenodd" d="M42.9443 2.17604L51.9754 34.0323C51.9754 34.0323 54.7956 30.4073 61.9936 33.2195C69.1195 36.0037 70.253 41.4859 70.253 41.4859C72.969 29.5197 65.3716 12.0551 55.5026 5.79163C50.4085 2.55867 46.1242 2.10927 44.1356 2.10938C43.3699 2.10938 42.9443 2.17604 42.9443 2.17604Z" fill="url(#paint8_linear_2370_504)"/>
</g>
<mask id="mask13_2370_504" style="mask-type:alpha" maskUnits="userSpaceOnUse" x="28" y="0" width="24" height="34">
<path fill-rule="evenodd" clip-rule="evenodd" d="M40.0183 0.686238C38.2875 0.686238 28.0608 -0.124324 28.0608 33.9895C28.0608 33.9895 31.522 28.8369 40.0183 28.8369C48.5142 28.8369 51.9757 33.9895 51.9757 33.9895C51.9757 1.42481 42.6562 0.684676 40.3046 0.684572C40.1926 0.684572 40.0969 0.686238 40.0183 0.686238Z" fill="white"/>
</mask>
<g mask="url(#mask13_2370_504)">
<path fill-rule="evenodd" clip-rule="evenodd" d="M40.0183 0.686238C38.2875 0.686238 28.0608 -0.124324 28.0608 33.9895C28.0608 33.9895 31.522 28.8369 40.0183 28.8369C48.5142 28.8369 51.9757 33.9895 51.9757 33.9895C51.9757 1.42481 42.6562 0.684676 40.3046 0.684572C40.1926 0.684572 40.0969 0.686238 40.0183 0.686238Z" fill="url(#paint9_linear_2370_504)"/>
</g>
<mask id="mask14_2370_504" style="mask-type:alpha" maskUnits="userSpaceOnUse" x="66" y="48" width="3" height="3">
<path fill-rule="evenodd" clip-rule="evenodd" d="M66.0862 49.8814C66.0862 50.4222 66.525 50.8603 67.0667 50.8603C67.608 50.8603 68.0471 50.4222 68.0471 49.8814C68.0471 49.3409 67.608 48.9028 67.0667 48.9028C66.525 48.9028 66.0862 49.3409 66.0862 49.8814Z" fill="white"/>
</mask>
<g mask="url(#mask14_2370_504)">
<path fill-rule="evenodd" clip-rule="evenodd" d="M66.0862 49.8814C66.0862 50.4222 66.525 50.8603 67.0667 50.8603C67.608 50.8603 68.0471 50.4222 68.0471 49.8814C68.0471 49.3409 67.608 48.9028 67.0667 48.9028C66.525 48.9028 66.0862 49.3409 66.0862 49.8814Z" fill="#2FBEB5"/>
</g>
<mask id="mask15_2370_504" style="mask-type:alpha" maskUnits="userSpaceOnUse" x="11" y="48" width="3" height="3">
<path fill-rule="evenodd" clip-rule="evenodd" d="M11.946 49.8814C11.946 50.4222 12.3852 50.8603 12.9265 50.8603C13.468 50.8603 13.9071 50.4222 13.9071 49.8814C13.9071 49.3409 13.468 48.9028 12.9265 48.9028C12.3852 48.9028 11.946 49.3409 11.946 49.8814Z" fill="white"/>
</mask>
<g mask="url(#mask15_2370_504)">
<path fill-rule="evenodd" clip-rule="evenodd" d="M11.946 49.8814C11.946 50.4222 12.3852 50.8603 12.9265 50.8603C13.468 50.8603 13.9071 50.4222 13.9071 49.8814C13.9071 49.3409 13.468 48.9028 12.9265 48.9028C12.3852 48.9028 11.946 49.3409 11.946 49.8814Z" fill="#2FBEB5"/>
</g>
<mask id="mask16_2370_504" style="mask-type:alpha" maskUnits="userSpaceOnUse" x="27" y="54" width="3" height="2">
<path fill-rule="evenodd" clip-rule="evenodd" d="M27.9187 54.9812C27.9187 55.5219 28.3575 55.9599 28.8992 55.9599C29.4405 55.9599 29.8796 55.5219 29.8796 54.9812C29.8796 54.4405 29.4405 54.0024 28.8992 54.0024C28.3575 54.0024 27.9187 54.4405 27.9187 54.9812Z" fill="white"/>
</mask>
<g mask="url(#mask16_2370_504)">
<path fill-rule="evenodd" clip-rule="evenodd" d="M27.9187 54.9812C27.9187 55.5219 28.3575 55.9599 28.8992 55.9599C29.4405 55.9599 29.8796 55.5219 29.8796 54.9812C29.8796 54.4405 29.4405 54.0024 28.8992 54.0024C28.3575 54.0024 27.9187 54.4405 27.9187 54.9812Z" fill="#2FBEB5"/>
</g>
<mask id="mask17_2370_504" style="mask-type:alpha" maskUnits="userSpaceOnUse" x="50" y="54" width="3" height="2">
<path fill-rule="evenodd" clip-rule="evenodd" d="M50.1128 54.9793C50.1128 55.5199 50.5519 55.958 51.0934 55.958C51.6348 55.958 52.0739 55.5199 52.0739 54.9793C52.0739 54.4385 51.6348 54.0005 51.0934 54.0005C50.5519 54.0005 50.1128 54.4385 50.1128 54.9793Z" fill="white"/>
</mask>
<g mask="url(#mask17_2370_504)">
<path fill-rule="evenodd" clip-rule="evenodd" d="M50.1128 54.9793C50.1128 55.5199 50.5519 55.958 51.0934 55.958C51.6348 55.958 52.0739 55.5199 52.0739 54.9793C52.0739 54.4385 51.6348 54.0005 51.0934 54.0005C50.5519 54.0005 50.1128 54.4385 50.1128 54.9793Z" fill="#2FBEB5"/>
</g>
<mask id="mask18_2370_504" style="mask-type:alpha" maskUnits="userSpaceOnUse" x="39" y="42" width="32" height="54">
<path fill-rule="evenodd" clip-rule="evenodd" d="M69.963 42.596L39.7501 95.5578C39.7501 95.5578 39.7387 95.5774 39.7161 95.6173C39.7313 95.6258 39.7389 95.6302 39.7389 95.6302L39.7617 95.6432L39.7845 95.6562L39.8074 95.6693L39.8301 95.6824L39.853 95.6954L39.8758 95.7079C39.8758 95.7079 39.8833 95.7125 39.8987 95.7209C39.9212 95.6815 39.9326 95.6616 39.9326 95.6616L70.1456 42.7C70.1456 42.7 70.1571 42.6801 70.1796 42.6404C70.1644 42.6316 70.1568 42.6274 70.1568 42.6274L70.1341 42.6143L70.1112 42.6013L70.0883 42.5885L70.0655 42.5755L70.0426 42.5625L70.0199 42.5494C70.0199 42.5494 70.0124 42.5453 69.997 42.5366C69.9744 42.5762 69.963 42.596 69.963 42.596Z" fill="white"/>
</mask>
<g mask="url(#mask18_2370_504)">
<path fill-rule="evenodd" clip-rule="evenodd" d="M69.963 42.596L39.7501 95.5578C39.7501 95.5578 39.7387 95.5774 39.7161 95.6173C39.7313 95.6258 39.7389 95.6302 39.7389 95.6302L39.7617 95.6432L39.7845 95.6562L39.8074 95.6693L39.8301 95.6824L39.853 95.6954L39.8758 95.7079C39.8758 95.7079 39.8833 95.7125 39.8987 95.7209C39.9212 95.6815 39.9326 95.6616 39.9326 95.6616L70.1456 42.7C70.1456 42.7 70.1571 42.6801 70.1796 42.6404C70.1644 42.6316 70.1568 42.6274 70.1568 42.6274L70.1341 42.6143L70.1112 42.6013L70.0883 42.5885L70.0655 42.5755L70.0426 42.5625L70.0199 42.5494C70.0199 42.5494 70.0124 42.5453 69.997 42.5366C69.9744 42.5762 69.963 42.596 69.963 42.596Z" fill="currentColor"/>
</g>
<mask id="mask19_2370_504" style="mask-type:alpha" maskUnits="userSpaceOnUse" x="9" y="42" width="31" height="54">
<path fill-rule="evenodd" clip-rule="evenodd" d="M9.96865 42.5495L9.9458 42.5626L9.92284 42.5752L9.89999 42.5882L9.87724 42.601L9.85407 42.6138L9.83132 42.6268C9.83132 42.6268 9.82381 42.6309 9.80847 42.6394L9.84207 42.6992L39.6818 95.6605L39.7154 95.7203C39.7308 95.7118 39.7384 95.7076 39.7384 95.7076L39.7612 95.6947L39.7842 95.6816L39.8071 95.669L39.8298 95.6559L39.8527 95.6434L39.8757 95.6304C39.8757 95.6304 39.8834 95.6259 39.8985 95.6174C39.8763 95.5779 39.8649 95.5579 39.8649 95.5579L10.0253 42.5963C10.0253 42.5963 10.0141 42.5764 9.99171 42.5366C9.97637 42.5455 9.96865 42.5495 9.96865 42.5495Z" fill="white"/>
</mask>
<g mask="url(#mask19_2370_504)">
<path fill-rule="evenodd" clip-rule="evenodd" d="M9.96865 42.5495L9.9458 42.5626L9.92284 42.5752L9.89999 42.5882L9.87724 42.601L9.85407 42.6138L9.83132 42.6268C9.83132 42.6268 9.82381 42.6309 9.80847 42.6394L9.84207 42.6992L39.6818 95.6605L39.7154 95.7203C39.7308 95.7118 39.7384 95.7076 39.7384 95.7076L39.7612 95.6947L39.7842 95.6816L39.8071 95.669L39.8298 95.6559L39.8527 95.6434L39.8757 95.6304C39.8757 95.6304 39.8834 95.6259 39.8985 95.6174C39.8763 95.5779 39.8649 95.5579 39.8649 95.5579L10.0253 42.5963C10.0253 42.5963 10.0141 42.5764 9.99171 42.5366C9.97637 42.5455 9.96865 42.5495 9.96865 42.5495Z" fill="currentColor"/>
</g>
<path fill-rule="evenodd" clip-rule="evenodd" d="M63.1072 96.9016L39.4402 89.917L40.0137 121.425L63.6807 126.641L63.1072 96.9016Z" fill="#CFCFCF"/>
<path fill-rule="evenodd" clip-rule="evenodd" d="M49.8734 123.598L54.0639 124.522L53.7036 94.1269L49.7462 92.959L49.8734 123.598Z" fill="#B3B3B3"/>
<path fill-rule="evenodd" clip-rule="evenodd" d="M39.4405 89.917L15.9204 97.9982L16.4938 128.042L40.014 121.425L39.4405 89.917Z" fill="#FAFAFA"/>
<mask id="mask20_2370_504" style="mask-type:alpha" maskUnits="userSpaceOnUse" x="16" y="121" width="48" height="13">
<path fill-rule="evenodd" clip-rule="evenodd" d="M16.4948 121.424H63.6819V133.257H16.4948V121.424Z" fill="white"/>
</mask>
<g mask="url(#mask20_2370_504)">
<path fill-rule="evenodd" clip-rule="evenodd" d="M40.0149 121.424L16.4948 128.041L40.1617 133.257L63.6819 126.64L40.0149 121.424Z" fill="#B3B3B3"/>
</g>
<path fill-rule="evenodd" clip-rule="evenodd" d="M29.4496 124.397L25.1443 125.609L47.1398 131.294L51.5612 130.05L29.4496 124.397Z" fill="#9D9D9C"/>
<path fill-rule="evenodd" clip-rule="evenodd" d="M49.873 123.598L28.4149 130.669L32.7536 131.626L54.0635 124.521L49.873 123.598Z" fill="#9D9D9C"/>
<defs>
<linearGradient id="paint0_linear_2370_504" x1="79.5187" y1="13.6736" x2="51.572" y2="13.6736" gradientUnits="userSpaceOnUse">
<stop stop-color="#CCCCCC"/>
<stop offset="1" stop-color="#DFDFDF"/>
</linearGradient>
<linearGradient id="paint1_linear_2370_504" x1="0.0828867" y1="49.8819" x2="28.0383" y2="49.8819" gradientUnits="userSpaceOnUse">
<stop stop-color="#DFDFDF"/>
<stop offset="1" stop-color="#CCCCCC"/>
</linearGradient>
<linearGradient id="paint2_linear_2370_504" x1="12.5475" y1="54.5213" x2="37.3358" y2="54.686" gradientUnits="userSpaceOnUse">
<stop stop-color="#DFDFDF"/>
<stop offset="1" stop-color="#CCCCCC"/>
</linearGradient>
<linearGradient id="paint3_linear_2370_504" x1="66.8181" y1="15.5148" x2="42.0673" y2="15.3356" gradientUnits="userSpaceOnUse">
<stop stop-color="#CCCCCC"/>
<stop offset="1" stop-color="#DFDFDF"/>
</linearGradient>
<linearGradient id="paint4_linear_2370_504" x1="28.7696" y1="56.6468" x2="51.2244" y2="56.6468" gradientUnits="userSpaceOnUse">
<stop stop-color="#DFDFDF"/>
<stop offset="1" stop-color="#CCCCCC"/>
</linearGradient>
<linearGradient id="paint5_linear_2370_504" x1="23.9258" y1="6.32616" x2="0" y2="6.32616" gradientUnits="userSpaceOnUse">
<stop stop-color="white"/>
<stop offset="1" stop-color="#EBEBEB"/>
</linearGradient>
<linearGradient id="paint6_linear_2370_504" x1="67.0563" y1="34.1707" x2="77.4508" y2="34.1707" gradientUnits="userSpaceOnUse">
<stop stop-color="#EBEBEB"/>
<stop offset="1" stop-color="white"/>
</linearGradient>
<linearGradient id="paint7_linear_2370_504" x1="9.04541" y1="41.4861" x2="37.0907" y2="41.4861" gradientUnits="userSpaceOnUse">
<stop stop-color="#EBEBEB"/>
<stop offset="1" stop-color="white"/>
</linearGradient>
<linearGradient id="paint8_linear_2370_504" x1="70.8094" y1="2.10932" x2="42.9443" y2="2.10932" gradientUnits="userSpaceOnUse">
<stop stop-color="white"/>
<stop offset="1" stop-color="#EBEBEB"/>
</linearGradient>
<linearGradient id="paint9_linear_2370_504" x1="28.0607" y1="33.9895" x2="51.9757" y2="33.9895" gradientUnits="userSpaceOnUse">
<stop stop-color="#EBEBEB"/>
<stop offset="1" stop-color="white"/>
</linearGradient>
</defs>
</svg>
