<svg width="880" height="802" viewBox="0 0 880 802" fill="none" xmlns="http://www.w3.org/2000/svg">
<g id="Group 35">
<g id="Group 32">
<g id="Star Copy" filter="url(#filter0_d_12_3794)">
<path fill-rule="evenodd" clip-rule="evenodd" d="M365.708 211.014L357.723 240.275L364.25 210.654L343.581 232.853L363.127 209.659L334.509 219.709L362.594 208.255L332.584 203.855L362.775 206.765L338.247 188.922L363.628 205.529L350.201 178.331L364.957 204.831L365.708 174.509L366.459 204.831L381.215 178.331L367.788 205.529L393.169 188.922L368.641 206.765L398.832 203.855L368.822 208.255L396.907 219.709L368.29 209.659L387.835 232.853L367.166 210.654L373.694 240.275L365.708 211.014Z" fill="#FFF061"/>
</g>
<g id="Fill 17">
<path fill-rule="evenodd" clip-rule="evenodd" d="M474.82 500.332C472.799 498.863 469.966 499.312 468.497 501.333C467.025 503.359 467.474 506.192 469.495 507.66C471.516 509.129 474.349 508.68 475.821 506.654C477.289 504.633 476.841 501.8 474.82 500.332Z" fill="#FFC324"/>
<path d="M474.82 500.332C472.799 498.863 469.966 499.312 468.497 501.333C467.025 503.359 467.474 506.192 469.495 507.66C471.516 509.129 474.349 508.68 475.821 506.654C477.289 504.633 476.841 501.8 474.82 500.332" stroke="#FFC324" stroke-width="1.2"/>
</g>
<g id="Fill 23">
<path fill-rule="evenodd" clip-rule="evenodd" d="M449.287 555.324C447.279 553.827 444.442 554.25 442.945 556.258C441.456 558.264 441.87 561.103 443.877 562.591C445.89 564.092 448.727 563.669 450.224 561.661C451.712 559.655 451.293 556.812 449.287 555.324Z" fill="#FFC324"/>
<path d="M449.287 555.324C447.279 553.827 444.442 554.25 442.945 556.258C441.456 558.264 441.87 561.103 443.877 562.591C445.89 564.092 448.727 563.669 450.224 561.661C451.712 559.655 451.293 556.812 449.287 555.324" stroke="#FFC324" stroke-width="1.2"/>
</g>
<g id="Fill 48">
<path fill-rule="evenodd" clip-rule="evenodd" d="M604.654 334.18C602.628 332.708 599.795 333.156 598.323 335.182C596.851 337.208 597.299 340.042 599.326 341.514C601.347 342.982 604.18 342.533 605.652 340.507C607.124 338.481 606.675 335.648 604.654 334.18Z" fill="#FFC324"/>
<path d="M604.654 334.18C602.628 332.708 599.795 333.156 598.323 335.182C596.851 337.208 597.299 340.042 599.326 341.514C601.347 342.982 604.18 342.533 605.652 340.507C607.124 338.481 606.675 335.648 604.654 334.18" stroke="#FFC324" stroke-width="1.2"/>
</g>
<g id="Fill 54">
<path fill-rule="evenodd" clip-rule="evenodd" d="M684.616 345.828C682.589 344.356 679.756 344.805 678.288 346.826C676.816 348.852 677.265 351.685 679.291 353.157C681.312 354.626 684.145 354.177 685.617 352.151C687.085 350.13 686.637 347.297 684.616 345.828Z" fill="#FFC324"/>
<path d="M684.616 345.828C682.589 344.356 679.756 344.805 678.288 346.826C676.816 348.852 677.265 351.685 679.291 353.157C681.312 354.626 684.145 354.177 685.617 352.151C687.085 350.13 686.637 347.297 684.616 345.828" stroke="#FFC324" stroke-width="1.2"/>
</g>
<g id="Group 31">
<g id="Group 30">
<g id="Group 5 Copy" opacity="0.71545">
<path id="Fill 7" fill-rule="evenodd" clip-rule="evenodd" d="M193.556 234.912L274.182 293.49L278.154 337.747L309.628 360.614L366.001 370.866L365.715 372.416L308.846 361.998L276.646 338.603L272.676 294.343L193.117 236.54L142.926 241.45L60.2091 181.352L61.1371 180.075L143.374 239.823L193.556 234.912Z" fill="#B2D48A" stroke="#B2D48A" stroke-width="0.8"/>
<g id="Fill 11">
<path fill-rule="evenodd" clip-rule="evenodd" d="M63.4642 177.137C61.4381 175.665 58.6051 176.114 57.1331 178.14C55.661 180.166 56.1097 182.999 58.1358 184.471C60.1569 185.939 62.9899 185.49 64.4619 183.464C65.9339 181.438 65.4852 178.605 63.4642 177.137Z" fill="#B2D48A"/>
<path d="M63.4642 177.137C61.4381 175.665 58.6051 176.114 57.1331 178.14C55.661 180.166 56.1097 182.999 58.1358 184.471C60.1569 185.939 62.9899 185.49 64.4619 183.464C65.9339 181.438 65.4852 178.605 63.4642 177.137" stroke="#B2D48A" stroke-width="1.2"/>
</g>
<path id="Fill 13" fill-rule="evenodd" clip-rule="evenodd" d="M402.731 442.448L402.527 444.012L337.164 435.305L99.806 262.854L100.734 261.577L337.772 433.795L402.731 442.448Z" fill="#B2D48A" stroke="#B2D48A" stroke-width="0.8"/>
<path id="Fill 17_2" fill-rule="evenodd" clip-rule="evenodd" d="M96.7305 259.643C95.2584 261.669 95.7072 264.502 97.7282 265.97C99.7493 267.439 102.582 266.99 104.054 264.964C105.523 262.943 105.074 260.11 103.053 258.641C101.032 257.173 98.1989 257.622 96.7305 259.643Z" fill="#B2D48A" stroke="#B2D48A" stroke-width="1.2"/>
<path id="Fill 19" fill-rule="evenodd" clip-rule="evenodd" d="M466.893 540.255L466.708 541.822L411.587 535.415L234.15 406.5L214.774 409.905L214.503 409.703L111.229 332.958L112.165 331.692L215.168 408.235L234.538 404.83L412.178 533.893L466.893 540.255Z" fill="#B2D48A" stroke="#B2D48A" stroke-width="0.8"/>
<g id="Fill 23_2">
<path fill-rule="evenodd" clip-rule="evenodd" d="M114.52 328.782C112.512 327.285 109.675 327.708 108.178 329.716C106.69 331.723 107.104 334.561 109.11 336.05C111.123 337.55 113.96 337.127 115.457 335.12C116.946 333.113 116.527 330.271 114.52 328.782Z" fill="#B2D48A"/>
<path d="M114.52 328.782C112.512 327.285 109.675 327.708 108.178 329.716C106.69 331.723 107.104 334.561 109.11 336.05C111.123 337.55 113.96 337.127 115.457 335.12C116.946 333.113 116.527 330.271 114.52 328.782" stroke="#B2D48A" stroke-width="1.2"/>
</g>
<g id="Group 4">
<path id="Fill 38" fill-rule="evenodd" clip-rule="evenodd" d="M185.622 122.071L232.059 155.81L232.142 156.033L254.703 216.547L384.798 311.067L442.65 314.928L442.546 316.503L384.239 312.607L253.394 217.543L253.312 217.32L230.75 156.806L184.696 123.345L185.622 122.071Z" fill="#B2D48A" stroke="#B2D48A" stroke-width="0.8"/>
<g id="Fill 42">
<path fill-rule="evenodd" clip-rule="evenodd" d="M187.947 119.131C185.926 117.663 183.093 118.112 181.621 120.138C180.149 122.164 180.597 124.997 182.618 126.465C184.639 127.933 187.472 127.485 188.944 125.459C190.416 123.433 189.968 120.6 187.947 119.131Z" fill="#B2D48A"/>
<path d="M187.947 119.131C185.926 117.663 183.093 118.112 181.621 120.138C180.149 122.164 180.597 124.997 182.618 126.465C184.639 127.933 187.472 127.485 188.944 125.459C190.416 123.433 189.968 120.6 187.947 119.131" stroke="#B2D48A" stroke-width="1.2"/>
</g>
<path id="Fill 44" fill-rule="evenodd" clip-rule="evenodd" d="M203.561 63.429L266.364 109.058L266.452 109.239L299.546 178.618L458.012 293.751L457.087 295.025L298.297 179.657L298.209 179.476L265.115 110.097L202.636 64.703L203.561 63.429Z" fill="#B2D48A" stroke="#B2D48A" stroke-width="0.8"/>
<g id="Fill 48_2">
<path fill-rule="evenodd" clip-rule="evenodd" d="M205.887 60.4895C203.861 59.0175 201.028 59.4662 199.556 61.4922C198.084 63.5183 198.533 66.3513 200.559 67.8233C202.58 69.2917 205.413 68.843 206.885 66.817C208.357 64.7909 207.908 61.9579 205.887 60.4895Z" fill="#B2D48A"/>
<path d="M205.887 60.4895C203.861 59.0175 201.028 59.4662 199.556 61.4922C198.084 63.5183 198.533 66.3513 200.559 67.8233C202.58 69.2917 205.413 68.843 206.885 66.817C208.357 64.7909 207.908 61.9579 205.887 60.4895" stroke="#B2D48A" stroke-width="1.2"/>
</g>
<path id="Fill 50" fill-rule="evenodd" clip-rule="evenodd" d="M473.125 212.816L533.499 259.32L540.504 299.41L538.959 299.679L532.052 260.189L472.808 214.557L442.41 223.693L442.1 223.467L375.785 175.434L374.177 142.882L282.599 76.3469L283.524 75.0729L375.716 142.054L377.323 174.6L442.706 221.961L473.125 212.816Z" fill="#B2D48A" stroke="#B2D48A" stroke-width="0.8"/>
<g id="Fill 54_2">
<path fill-rule="evenodd" clip-rule="evenodd" d="M285.849 72.1382C283.823 70.6662 280.99 71.1149 279.521 73.1359C278.049 75.162 278.498 77.995 280.524 79.467C282.545 80.9354 285.378 80.4867 286.85 78.4606C288.318 76.4396 287.87 73.6066 285.849 72.1382Z" fill="#B2D48A"/>
<path d="M285.849 72.1382C283.823 70.6662 280.99 71.1149 279.521 73.1359C278.049 75.162 278.498 77.995 280.524 79.467C282.545 80.9354 285.378 80.4867 286.85 78.4606C288.318 76.4396 287.87 73.6066 285.849 72.1382" stroke="#B2D48A" stroke-width="1.2"/>
</g>
</g>
</g>
<path id="Path 10" d="M643.809 454.492L653.47 490.238L785.203 587.297L841.312 590.193L901.83 632.073" stroke="url(#paint0_linear_12_3794)" stroke-width="3.2"/>
<path id="Path 10 Copy 3" d="M385.787 506.819L395.449 542.564L527.182 639.623L583.291 642.52L808.815 800.284" stroke="url(#paint1_linear_12_3794)" stroke-width="3.2"/>
<path id="Path 10_2" d="M530.814 434.017L540.475 469.762L672.208 566.821L675.624 611.597L708.394 634.304L767.805 645.631L868.31 711.085" stroke="url(#paint2_linear_12_3794)" stroke-width="3.2"/>
<path id="Path 10 Copy" d="M671.45 397.144L697.075 451.182L898.184 598.738" stroke="url(#paint3_linear_12_3794)" stroke-width="3.2"/>
<path id="Path 10 Copy 2" d="M662.009 305.869L671.671 341.615L772.819 414.327L775.108 449.574L841.177 497.383L871.575 488.247L893.294 503.751" stroke="url(#paint4_linear_12_3794)" stroke-width="3.2"/>
<path id="Path 10_3" d="M570.552 547.77L580.213 583.515L711.946 680.574L768.055 683.471L898.184 773.505" stroke="url(#paint5_linear_12_3794)" stroke-width="3.2"/>
<g id="Group">
<path id="Path" fill-rule="evenodd" clip-rule="evenodd" d="M497.733 100.821C604.943 102.692 668.852 212.441 640.476 345.948C612.1 479.457 502.184 586.164 394.974 584.293C287.764 582.421 223.852 472.681 252.228 339.171C280.605 205.665 390.522 98.9503 497.733 100.821Z" fill="url(#paint6_linear_12_3794)"/>
<g id="Rectangle + Rectangle Copy Mask">
<g id="Group 17">
<path id="Combined Shape" fill-rule="evenodd" clip-rule="evenodd" d="M351.64 198.194L351.64 198.194H493.983L504.05 202.686H361.707L329.607 381.138L319.541 376.647L351.64 198.194ZM390.157 381.212L380.091 376.722L398.148 274.126L398.149 274.126H479.988L490.054 278.617H408.215L408.215 278.617L390.157 381.212ZM399.273 407.689L409.34 412.181L415.108 380.881L405.042 376.391L399.273 407.689ZM385.278 483.62L395.345 488.112L401.123 456.762L401.123 456.762H518.336L544.768 309.842L569.782 309.669L559.716 305.177L534.702 305.351L534.702 305.351L534.702 305.351H534.701L534.702 305.351L508.269 452.27H508.269H391.056L391.056 452.27L385.278 483.62ZM405.143 376.341L415.209 380.832H471.71L484.183 309.965L474.117 305.475L461.643 376.341H405.143ZM474.219 305.424L484.285 309.915L509.236 309.584L499.169 305.093L474.219 305.424Z" fill="url(#paint7_linear_12_3794)"/>
<g id="Combined Shape_2">
<mask id="path-35-inside-1_12_3794" fill="white">
<path fill-rule="evenodd" clip-rule="evenodd" d="M370.989 229.545L344.558 376.464L319.541 376.646L351.64 198.194H493.983L488.204 229.545H370.989ZM399.273 407.689L405.042 376.391L380.09 376.722L398.148 274.126H479.987L474.219 305.424L499.169 305.093L481.106 407.689H399.273ZM559.715 305.177L527.612 483.621H385.278L391.056 452.271H508.269L534.702 305.351L559.715 305.177ZM486.255 87.9476C374.921 87.9476 263.788 201.205 238.039 340.911C212.287 480.619 281.671 593.868 393.005 593.868C504.338 593.868 615.469 480.619 641.22 340.911C666.97 201.205 597.588 87.9476 486.255 87.9476ZM461.644 376.34L474.117 305.475H417.617L405.143 376.34H461.644Z"/>
</mask>
<path fill-rule="evenodd" clip-rule="evenodd" d="M370.989 229.545L344.558 376.464L319.541 376.646L351.64 198.194H493.983L488.204 229.545H370.989ZM399.273 407.689L405.042 376.391L380.09 376.722L398.148 274.126H479.987L474.219 305.424L499.169 305.093L481.106 407.689H399.273ZM559.715 305.177L527.612 483.621H385.278L391.056 452.271H508.269L534.702 305.351L559.715 305.177ZM486.255 87.9476C374.921 87.9476 263.788 201.205 238.039 340.911C212.287 480.619 281.671 593.868 393.005 593.868C504.338 593.868 615.469 480.619 641.22 340.911C666.97 201.205 597.588 87.9476 486.255 87.9476ZM461.644 376.34L474.117 305.475H417.617L405.143 376.34H461.644Z" fill="url(#paint8_linear_12_3794)"/>
<path d="M344.558 376.464L348.085 377.099L347.559 380.026L344.584 380.048L344.558 376.464ZM370.989 229.545L367.461 228.91L367.992 225.961H370.989V229.545ZM319.541 376.646L319.567 380.23L315.249 380.262L316.013 376.012L319.541 376.646ZM351.64 198.194L348.113 197.559L348.643 194.61H351.64V198.194ZM493.983 198.194V194.61H498.288L497.508 198.843L493.983 198.194ZM488.204 229.545L491.729 230.195L491.188 233.129H488.204V229.545ZM405.042 376.391L404.994 372.808L409.357 372.75L408.566 377.041L405.042 376.391ZM399.273 407.689V411.273H394.968L395.749 407.039L399.273 407.689ZM380.09 376.722L380.138 380.306L375.811 380.363L376.561 376.101L380.09 376.722ZM398.148 274.126L394.618 273.505L395.14 270.542H398.148V274.126ZM479.987 274.126V270.542H484.292L483.512 274.776L479.987 274.126ZM474.219 305.424L474.266 309.008L469.903 309.065L470.694 304.774L474.219 305.424ZM499.169 305.093L499.121 301.51L503.449 301.452L502.699 305.715L499.169 305.093ZM481.106 407.689L484.635 408.31L484.114 411.273H481.106V407.689ZM527.612 483.621L531.14 484.255L530.609 487.205H527.612V483.621ZM559.715 305.177L559.69 301.593L564.007 301.563L563.242 305.811L559.715 305.177ZM385.278 483.621V487.205H380.973L381.754 482.971L385.278 483.621ZM391.056 452.271L387.532 451.622L388.072 448.687H391.056V452.271ZM508.269 452.271L511.796 452.906L511.265 455.855H508.269V452.271ZM534.702 305.351L531.174 304.717L531.701 301.788L534.677 301.767L534.702 305.351ZM238.039 340.911L241.564 341.56V341.56L238.039 340.911ZM641.22 340.911L637.695 340.261L637.695 340.261L641.22 340.911ZM474.117 305.475V301.891H478.387L477.646 306.096L474.117 305.475ZM461.644 376.34L465.173 376.962L464.652 379.924H461.644V376.34ZM417.617 305.475L414.087 304.853L414.609 301.891H417.617V305.475ZM405.143 376.34V379.924H400.873L401.613 375.719L405.143 376.34ZM341.031 375.83L367.461 228.91L374.516 230.18L348.085 377.099L341.031 375.83ZM319.515 373.062L344.532 372.88L344.584 380.048L319.567 380.23L319.515 373.062ZM355.168 198.828L323.068 377.281L316.013 376.012L348.113 197.559L355.168 198.828ZM493.983 201.778H351.64V194.61H493.983V201.778ZM484.68 228.895L490.459 197.544L497.508 198.843L491.729 230.195L484.68 228.895ZM370.989 225.961H488.204V233.129H370.989V225.961ZM408.566 377.041L402.798 408.338L395.749 407.039L401.517 375.742L408.566 377.041ZM380.043 373.138L404.994 372.808L405.089 379.975L380.138 380.306L380.043 373.138ZM401.678 274.748L383.62 377.343L376.561 376.101L394.618 273.505L401.678 274.748ZM479.987 277.71H398.148V270.542H479.987V277.71ZM470.694 304.774L476.463 273.477L483.512 274.776L477.743 306.074L470.694 304.774ZM499.216 308.677L474.266 309.008L474.171 301.84L499.121 301.51L499.216 308.677ZM477.576 407.067L495.639 304.472L502.699 305.715L484.635 408.31L477.576 407.067ZM399.273 404.105H481.106V411.273H399.273V404.105ZM524.085 482.986L556.188 304.542L563.242 305.811L531.14 484.255L524.085 482.986ZM385.278 480.036H527.612V487.205H385.278V480.036ZM394.581 452.921L388.803 484.27L381.754 482.971L387.532 451.622L394.581 452.921ZM508.269 455.855H391.056V448.687H508.269V455.855ZM538.229 305.986L511.796 452.906L504.741 451.637L531.174 304.717L538.229 305.986ZM559.74 308.761L534.727 308.935L534.677 301.767L559.69 301.593L559.74 308.761ZM234.514 340.261C247.52 269.698 282.081 205.811 327.495 159.529C372.883 113.273 429.369 84.3636 486.255 84.3636V91.5316C431.807 91.5316 377.06 119.251 332.611 164.55C288.187 209.823 254.307 272.417 241.564 341.56L234.514 340.261ZM393.005 597.452C335.977 597.452 289.692 568.39 261.059 521.652C232.471 474.988 221.509 410.816 234.514 340.261L241.564 341.56C228.817 410.713 239.671 473.02 267.171 517.907C294.625 562.721 338.698 590.284 393.005 590.284V597.452ZM644.744 341.56C631.738 412.124 597.177 476.01 551.764 522.29C506.376 568.545 449.89 597.452 393.005 597.452V590.284C447.453 590.284 502.2 562.566 546.648 517.27C591.071 471.998 624.951 409.405 637.695 340.261L644.744 341.56ZM486.255 84.3636C543.283 84.3636 589.567 113.427 618.2 160.167C646.787 206.833 657.749 271.006 644.744 341.56L637.695 340.261C650.441 271.109 639.587 208.801 612.087 163.912C584.634 119.097 540.56 91.5316 486.255 91.5316V84.3636ZM477.646 306.096L465.173 376.962L458.114 375.719L470.587 304.853L477.646 306.096ZM417.617 301.891H474.117V309.059H417.617V301.891ZM401.613 375.719L414.087 304.853L421.147 306.096L408.673 376.962L401.613 375.719ZM461.644 379.924H405.143V372.756H461.644V379.924Z" fill="url(#paint9_linear_12_3794)" mask="url(#path-35-inside-1_12_3794)"/>
</g>
<mask id="mask0_12_3794" style="mask-type:alpha" maskUnits="userSpaceOnUse" x="232" y="87" width="415" height="507">
<g id="Combined Shape_3">
<mask id="path-37-inside-2_12_3794" fill="white">
<path fill-rule="evenodd" clip-rule="evenodd" d="M370.989 229.545L344.558 376.464L319.541 376.646L351.64 198.194H493.983L488.204 229.545H370.989ZM399.273 407.689L405.042 376.391L380.09 376.722L398.148 274.126H479.987L474.219 305.424L499.169 305.093L481.106 407.689H399.273ZM559.715 305.177L527.612 483.621H385.278L391.056 452.271H508.269L534.702 305.351L559.715 305.177ZM486.255 87.9476C374.921 87.9476 263.788 201.205 238.039 340.911C212.287 480.619 281.671 593.868 393.005 593.868C504.338 593.868 615.469 480.619 641.22 340.911C666.97 201.205 597.588 87.9476 486.255 87.9476ZM461.644 376.34L474.117 305.475H417.617L405.143 376.34H461.644Z"/>
</mask>
<path fill-rule="evenodd" clip-rule="evenodd" d="M370.989 229.545L344.558 376.464L319.541 376.646L351.64 198.194H493.983L488.204 229.545H370.989ZM399.273 407.689L405.042 376.391L380.09 376.722L398.148 274.126H479.987L474.219 305.424L499.169 305.093L481.106 407.689H399.273ZM559.715 305.177L527.612 483.621H385.278L391.056 452.271H508.269L534.702 305.351L559.715 305.177ZM486.255 87.9476C374.921 87.9476 263.788 201.205 238.039 340.911C212.287 480.619 281.671 593.868 393.005 593.868C504.338 593.868 615.469 480.619 641.22 340.911C666.97 201.205 597.588 87.9476 486.255 87.9476ZM461.644 376.34L474.117 305.475H417.617L405.143 376.34H461.644Z" fill="white"/>
<path d="M344.558 376.464L348.085 377.099L347.559 380.026L344.584 380.048L344.558 376.464ZM370.989 229.545L367.461 228.91L367.992 225.961H370.989V229.545ZM319.541 376.646L319.567 380.23L315.249 380.262L316.013 376.012L319.541 376.646ZM351.64 198.194L348.113 197.559L348.643 194.61H351.64V198.194ZM493.983 198.194V194.61H498.288L497.508 198.843L493.983 198.194ZM488.204 229.545L491.729 230.195L491.188 233.129H488.204V229.545ZM405.042 376.391L404.994 372.808L409.357 372.75L408.566 377.041L405.042 376.391ZM399.273 407.689V411.273H394.968L395.749 407.039L399.273 407.689ZM380.09 376.722L380.138 380.306L375.811 380.363L376.561 376.101L380.09 376.722ZM398.148 274.126L394.618 273.505L395.14 270.542H398.148V274.126ZM479.987 274.126V270.542H484.292L483.512 274.776L479.987 274.126ZM474.219 305.424L474.266 309.008L469.903 309.065L470.694 304.774L474.219 305.424ZM499.169 305.093L499.121 301.51L503.449 301.452L502.699 305.715L499.169 305.093ZM481.106 407.689L484.635 408.31L484.114 411.273H481.106V407.689ZM527.612 483.621L531.14 484.255L530.609 487.205H527.612V483.621ZM559.715 305.177L559.69 301.593L564.007 301.563L563.242 305.811L559.715 305.177ZM385.278 483.621V487.205H380.973L381.754 482.971L385.278 483.621ZM391.056 452.271L387.532 451.622L388.072 448.687H391.056V452.271ZM508.269 452.271L511.796 452.906L511.265 455.855H508.269V452.271ZM534.702 305.351L531.174 304.717L531.701 301.788L534.677 301.767L534.702 305.351ZM238.039 340.911L241.564 341.56V341.56L238.039 340.911ZM641.22 340.911L637.695 340.261L637.695 340.261L641.22 340.911ZM474.117 305.475V301.891H478.387L477.646 306.096L474.117 305.475ZM461.644 376.34L465.173 376.962L464.652 379.924H461.644V376.34ZM417.617 305.475L414.087 304.853L414.609 301.891H417.617V305.475ZM405.143 376.34V379.924H400.873L401.613 375.719L405.143 376.34ZM341.031 375.83L367.461 228.91L374.516 230.18L348.085 377.099L341.031 375.83ZM319.515 373.062L344.532 372.88L344.584 380.048L319.567 380.23L319.515 373.062ZM355.168 198.828L323.068 377.281L316.013 376.012L348.113 197.559L355.168 198.828ZM493.983 201.778H351.64V194.61H493.983V201.778ZM484.68 228.895L490.459 197.544L497.508 198.843L491.729 230.195L484.68 228.895ZM370.989 225.961H488.204V233.129H370.989V225.961ZM408.566 377.041L402.798 408.338L395.749 407.039L401.517 375.742L408.566 377.041ZM380.043 373.138L404.994 372.808L405.089 379.975L380.138 380.306L380.043 373.138ZM401.678 274.748L383.62 377.343L376.561 376.101L394.618 273.505L401.678 274.748ZM479.987 277.71H398.148V270.542H479.987V277.71ZM470.694 304.774L476.463 273.477L483.512 274.776L477.743 306.074L470.694 304.774ZM499.216 308.677L474.266 309.008L474.171 301.84L499.121 301.51L499.216 308.677ZM477.576 407.067L495.639 304.472L502.699 305.715L484.635 408.31L477.576 407.067ZM399.273 404.105H481.106V411.273H399.273V404.105ZM524.085 482.986L556.188 304.542L563.242 305.811L531.14 484.255L524.085 482.986ZM385.278 480.036H527.612V487.205H385.278V480.036ZM394.581 452.921L388.803 484.27L381.754 482.971L387.532 451.622L394.581 452.921ZM508.269 455.855H391.056V448.687H508.269V455.855ZM538.229 305.986L511.796 452.906L504.741 451.637L531.174 304.717L538.229 305.986ZM559.74 308.761L534.727 308.935L534.677 301.767L559.69 301.593L559.74 308.761ZM234.514 340.261C247.52 269.698 282.081 205.811 327.495 159.529C372.883 113.273 429.369 84.3636 486.255 84.3636V91.5316C431.807 91.5316 377.06 119.251 332.611 164.55C288.187 209.823 254.307 272.417 241.564 341.56L234.514 340.261ZM393.005 597.452C335.977 597.452 289.692 568.39 261.059 521.652C232.471 474.988 221.509 410.816 234.514 340.261L241.564 341.56C228.817 410.713 239.671 473.02 267.171 517.907C294.625 562.721 338.698 590.284 393.005 590.284V597.452ZM644.744 341.56C631.738 412.124 597.177 476.01 551.764 522.29C506.376 568.545 449.89 597.452 393.005 597.452V590.284C447.453 590.284 502.2 562.566 546.648 517.27C591.071 471.998 624.951 409.405 637.695 340.261L644.744 341.56ZM486.255 84.3636C543.283 84.3636 589.567 113.427 618.2 160.167C646.787 206.833 657.749 271.006 644.744 341.56L637.695 340.261C650.441 271.109 639.587 208.801 612.087 163.912C584.634 119.097 540.56 91.5316 486.255 91.5316V84.3636ZM477.646 306.096L465.173 376.962L458.114 375.719L470.587 304.853L477.646 306.096ZM417.617 301.891H474.117V309.059H417.617V301.891ZM401.613 375.719L414.087 304.853L421.147 306.096L408.673 376.962L401.613 375.719ZM461.644 379.924H405.143V372.756H461.644V379.924Z" fill="white" mask="url(#path-37-inside-2_12_3794)"/>
</g>
</mask>
<g mask="url(#mask0_12_3794)">
<path id="Rectangle" opacity="0.207663" fill-rule="evenodd" clip-rule="evenodd" d="M336.914 5.19556L307.613 34.4961L652.898 379.781L682.198 350.48L336.914 5.19556Z" fill="url(#paint10_linear_12_3794)"/>
<path id="Rectangle_2" opacity="0.207663" fill-rule="evenodd" clip-rule="evenodd" d="M151.492 159.412L122.191 188.712L467.476 533.997L496.777 504.696L151.492 159.412Z" fill="url(#paint11_linear_12_3794)"/>
<path id="Rectangle Copy" opacity="0.207663" fill-rule="evenodd" clip-rule="evenodd" d="M346.213 107.503L298.963 154.753L644.248 500.038L691.497 452.788L346.213 107.503Z" fill="url(#paint12_linear_12_3794)"/>
</g>
</g>
</g>
<path id="Combined Shape_4" fill-rule="evenodd" clip-rule="evenodd" d="M495.834 88.6147C383.595 86.656 268.52 198.377 238.812 338.147C209.105 477.92 276.015 592.809 388.255 594.768C484.839 596.454 583.52 513.968 628.1 401.861C585.018 507.568 491.568 585.024 400.089 583.427C292.879 581.555 228.967 471.815 257.343 338.306C285.72 204.799 395.637 98.0849 502.847 99.9559C592.447 101.519 651.803 178.433 652.321 281.59C652.856 172.178 590.453 90.2659 495.834 88.6147Z" fill="url(#paint13_linear_12_3794)"/>
<path id="Fill 43" fill-rule="evenodd" clip-rule="evenodd" d="M388.448 584.253C281.221 584.253 214.4 475.175 239.2 340.625C264.001 206.071 371.031 96.9933 478.258 96.9933C585.484 96.9933 652.299 206.071 627.499 340.625C602.698 475.175 495.674 584.253 388.448 584.253ZM263.127 240.607C246.601 272.293 234.983 305.944 228.591 340.625C222.199 375.303 221.412 408.953 226.257 440.639C230.927 471.239 240.625 498.715 255.076 522.304C269.532 545.893 288.014 564.419 310.014 577.362C332.794 590.763 358.358 597.556 385.996 597.556C413.632 597.556 441.701 590.763 469.422 577.362C496.187 564.419 521.498 545.893 544.649 522.304C567.796 498.715 587.624 471.239 603.579 440.639C620.098 408.953 631.716 375.303 638.108 340.625C644.499 305.944 645.287 272.293 640.448 240.607C635.772 210.008 626.073 182.532 611.623 158.943C597.169 135.346 578.686 116.82 556.691 103.885C533.912 90.4769 508.348 83.6808 480.712 83.6808C453.074 83.6808 425.005 90.4769 397.284 103.885C370.513 116.82 345.202 135.346 322.049 158.943C298.903 182.532 279.075 210.008 263.127 240.607Z" fill="url(#paint14_linear_12_3794)"/>
<path id="Fill 46" fill-rule="evenodd" clip-rule="evenodd" d="M385.996 597.556C413.632 597.556 441.701 590.763 469.422 577.362C496.187 564.419 521.498 545.893 544.65 522.304C546.062 520.864 547.462 519.409 548.849 517.941C549.315 517.447 549.772 516.944 550.235 516.449C551.153 515.466 552.07 514.485 552.975 513.49C553.519 512.893 554.054 512.285 554.594 511.684C555.408 510.776 556.224 509.871 557.028 508.954C557.598 508.303 558.16 507.642 558.728 506.986C559.487 506.105 560.248 505.227 560.999 504.338C561.58 503.649 562.155 502.952 562.731 502.257C563.455 501.386 564.182 500.514 564.898 499.633C565.478 498.921 566.05 498.2 566.625 497.482C567.326 496.607 568.026 495.732 568.719 494.848C569.294 494.114 569.863 493.374 570.432 492.633C571.112 491.753 571.789 490.871 572.461 489.981C573.029 489.23 573.59 488.471 574.153 487.714C574.813 486.823 575.472 485.931 576.125 485.033C576.683 484.266 577.235 483.494 577.787 482.721C578.431 481.819 579.073 480.915 579.709 480.007C580.256 479.224 580.799 478.438 581.341 477.652C581.967 476.738 582.592 475.82 583.212 474.899C583.747 474.106 584.278 473.309 584.807 472.51C585.422 471.581 586.031 470.647 586.638 469.71C587.158 468.906 587.677 468.102 588.192 467.293C588.792 466.349 589.387 465.398 589.98 464.446C590.487 463.633 590.992 462.82 591.493 462.002C592.08 461.041 592.66 460.073 593.241 459.105C593.732 458.284 594.224 457.463 594.709 456.636C595.285 455.656 595.854 454.668 596.423 453.68C596.895 452.856 597.371 452.033 597.839 451.203C598.408 450.195 598.968 449.179 599.528 448.164C599.981 447.343 600.436 446.525 600.883 445.7C601.792 444.021 602.693 442.338 603.578 440.639C620.098 408.954 631.716 375.303 638.108 340.625C644.499 305.944 645.287 272.293 640.448 240.607C635.772 210.008 626.074 182.53 611.623 158.943C610.761 157.533 609.881 156.145 608.988 154.772C608.694 154.32 608.392 153.878 608.096 153.431C607.49 152.517 606.884 151.605 606.266 150.707C605.905 150.183 605.536 149.668 605.17 149.148C604.603 148.343 604.035 147.54 603.458 146.749C603.062 146.207 602.66 145.675 602.261 145.139C601.697 144.386 601.132 143.637 600.559 142.895C600.142 142.356 599.721 141.824 599.3 141.291C598.728 140.57 598.152 139.854 597.572 139.146C597.141 138.62 596.707 138.098 596.271 137.579C595.682 136.878 595.087 136.185 594.489 135.497C594.05 134.993 593.612 134.489 593.169 133.991C592.55 133.297 591.924 132.613 591.297 131.933C590.862 131.462 590.429 130.989 589.991 130.523C589.488 129.992 588.977 129.472 588.468 128.95C587.767 128.226 587.063 127.506 586.351 126.8C585.834 126.288 585.309 125.785 584.787 125.281C584.083 124.602 583.377 123.928 582.661 123.265C582.122 122.765 581.579 122.271 581.035 121.78C580.318 121.134 579.597 120.495 578.871 119.864C578.315 119.382 577.758 118.904 577.197 118.431C576.461 117.81 575.717 117.198 574.969 116.593C574.408 116.137 573.845 115.681 573.276 115.233C572.507 114.627 571.729 114.035 570.949 113.446C570.388 113.021 569.83 112.594 569.264 112.179C568.445 111.577 567.615 110.994 566.786 110.41C566.245 110.03 565.708 109.642 565.162 109.268C564.238 108.638 563.302 108.027 562.364 107.418C561.898 107.114 561.44 106.802 560.971 106.504C559.559 105.609 558.134 104.733 556.692 103.884C551.976 101.11 547.141 98.6169 542.195 96.41L592.952 119.052C597.899 121.26 602.734 123.752 607.45 126.528C608.891 127.376 610.317 128.251 611.729 129.147C612.199 129.445 612.66 129.76 613.128 130.064C614.063 130.673 614.998 131.282 615.92 131.912C616.466 132.285 617.002 132.672 617.544 133.053C618.374 133.637 619.203 134.221 620.023 134.822C620.589 135.237 621.147 135.665 621.707 136.088C622.487 136.678 623.265 137.27 624.034 137.876C624.603 138.323 625.165 138.78 625.728 139.236C626.476 139.841 627.22 140.453 627.957 141.074C628.516 141.547 629.074 142.025 629.628 142.506C630.355 143.137 631.076 143.777 631.793 144.422C632.338 144.914 632.88 145.407 633.419 145.907C634.134 146.571 634.843 147.246 635.546 147.925C636.069 148.428 636.592 148.931 637.109 149.442C637.822 150.149 638.526 150.871 639.227 151.594C639.586 151.962 639.954 152.318 640.309 152.691C640.457 152.846 640.6 153.009 640.747 153.165C641.188 153.631 641.621 154.106 642.057 154.578C642.685 155.259 643.309 155.94 643.926 156.634C644.37 157.131 644.807 157.635 645.245 158.138C645.844 158.828 646.439 159.521 647.03 160.222C647.465 160.741 647.899 161.263 648.33 161.79C648.911 162.498 649.486 163.215 650.058 163.935C650.479 164.466 650.9 164.999 651.316 165.537C651.89 166.279 652.456 167.03 653.019 167.784C653.419 168.318 653.82 168.85 654.215 169.391C654.793 170.184 655.361 170.988 655.929 171.794C656.294 172.312 656.664 172.826 657.024 173.35C657.642 174.247 658.248 175.159 658.853 176.072C659.149 176.522 659.453 176.962 659.746 177.415C660.639 178.788 661.518 180.177 662.381 181.586C676.832 205.174 686.531 232.651 691.206 263.25C696.045 294.936 695.258 328.586 688.865 363.267C682.474 397.946 670.856 431.597 654.337 463.282C653.572 464.747 652.8 466.206 652.018 467.658C651.894 467.886 651.767 468.11 651.644 468.338C651.193 469.169 650.734 469.994 650.278 470.821C649.722 471.83 649.165 472.839 648.6 473.841C648.129 474.675 647.651 475.503 647.175 476.332C646.609 477.316 646.042 478.301 645.467 479.277C644.982 480.105 644.49 480.928 643.997 481.749C643.419 482.717 642.839 483.683 642.252 484.643C641.75 485.463 641.244 486.278 640.735 487.093C640.144 488.043 639.551 488.991 638.952 489.933C638.435 490.744 637.916 491.551 637.394 492.356C636.788 493.292 636.18 494.224 635.566 495.151C635.037 495.951 634.506 496.747 633.97 497.542C633.35 498.464 632.725 499.381 632.097 500.296C631.557 501.082 631.014 501.866 630.468 502.648C629.831 503.557 629.189 504.463 628.545 505.364C627.993 506.137 627.44 506.908 626.883 507.676C626.229 508.574 625.571 509.467 624.909 510.359C624.348 511.116 623.787 511.871 623.22 512.622C622.547 513.514 621.867 514.398 621.187 515.282C620.618 516.019 620.052 516.757 619.478 517.489C618.784 518.374 618.082 519.252 617.38 520.129C616.806 520.846 616.235 521.565 615.656 522.276C614.938 523.158 614.212 524.031 613.486 524.904C612.911 525.597 612.339 526.292 611.759 526.978C611.005 527.871 610.242 528.751 609.48 529.634C608.916 530.288 608.355 530.947 607.786 531.597C606.981 532.514 606.166 533.42 605.352 534.326C604.812 534.928 604.277 535.536 603.733 536.134C602.824 537.133 601.901 538.118 600.981 539.106C600.523 539.596 600.07 540.094 599.61 540.582C598.221 542.051 596.821 543.507 595.408 544.947C572.256 568.536 546.945 587.062 520.18 600.005C492.46 613.405 464.391 620.199 436.754 620.199C414.827 620.199 394.207 615.922 375.246 607.465L324.487 584.821C343.448 593.28 364.07 597.556 385.996 597.556Z" fill="url(#paint15_linear_12_3794)"/>
</g>
</g>
<g id="Star" filter="url(#filter1_d_12_3794)">
<path fill-rule="evenodd" clip-rule="evenodd" d="M634.166 358.245L624.547 393.492L632.41 357.812L607.513 384.551L631.056 356.613L596.585 368.719L630.415 354.922L594.266 349.622L630.633 353.127L601.088 331.635L631.66 351.638L615.487 318.878L633.261 350.798L634.166 314.274L635.07 350.798L652.844 318.878L636.671 351.638L667.244 331.635L637.699 353.127L674.065 349.622L637.917 354.922L671.746 368.719L637.275 356.613L660.818 384.551L635.922 357.812L643.784 393.492L634.166 358.245Z" fill="white"/>
</g>
</g>
</g>
<g id="Star Copy_2" filter="url(#filter2_d_12_3794)">
<path fill-rule="evenodd" clip-rule="evenodd" d="M355.076 201.381L344.546 239.966L353.153 200.907L325.898 230.179L351.671 199.594L313.935 212.847L350.969 197.743L311.396 191.941L351.208 195.778L318.864 172.25L352.333 194.148L334.628 158.284L354.086 193.228L355.076 153.245L356.066 193.228L375.524 158.284L357.819 194.148L391.287 172.25L358.943 195.778L398.755 191.941L359.182 197.743L396.216 212.847L358.48 199.594L384.253 230.179L356.998 200.907L365.606 239.966L355.076 201.381Z" fill="#C1F082"/>
</g>
</g>
<defs>
<filter id="filter0_d_12_3794" x="320.584" y="164.509" width="90.2487" height="89.7656" filterUnits="userSpaceOnUse" color-interpolation-filters="sRGB">
<feFlood flood-opacity="0" result="BackgroundImageFix"/>
<feColorMatrix in="SourceAlpha" type="matrix" values="0 0 0 0 0 0 0 0 0 0 0 0 0 0 0 0 0 0 127 0" result="hardAlpha"/>
<feOffset dy="2"/>
<feGaussianBlur stdDeviation="6"/>
<feColorMatrix type="matrix" values="0 0 0 0 1 0 0 0 0 1 0 0 0 0 1 0 0 0 1 0"/>
<feBlend mode="normal" in2="BackgroundImageFix" result="effect1_dropShadow_12_3794"/>
<feBlend mode="normal" in="SourceGraphic" in2="effect1_dropShadow_12_3794" result="shape"/>
</filter>
<filter id="filter1_d_12_3794" x="582.266" y="304.274" width="103.799" height="103.218" filterUnits="userSpaceOnUse" color-interpolation-filters="sRGB">
<feFlood flood-opacity="0" result="BackgroundImageFix"/>
<feColorMatrix in="SourceAlpha" type="matrix" values="0 0 0 0 0 0 0 0 0 0 0 0 0 0 0 0 0 0 127 0" result="hardAlpha"/>
<feOffset dy="2"/>
<feGaussianBlur stdDeviation="6"/>
<feColorMatrix type="matrix" values="0 0 0 0 1 0 0 0 0 1 0 0 0 0 1 0 0 0 1 0"/>
<feBlend mode="normal" in2="BackgroundImageFix" result="effect1_dropShadow_12_3794"/>
<feBlend mode="normal" in="SourceGraphic" in2="effect1_dropShadow_12_3794" result="shape"/>
</filter>
<filter id="filter2_d_12_3794" x="296.396" y="140.245" width="117.358" height="116.721" filterUnits="userSpaceOnUse" color-interpolation-filters="sRGB">
<feFlood flood-opacity="0" result="BackgroundImageFix"/>
<feColorMatrix in="SourceAlpha" type="matrix" values="0 0 0 0 0 0 0 0 0 0 0 0 0 0 0 0 0 0 127 0" result="hardAlpha"/>
<feOffset dy="2"/>
<feGaussianBlur stdDeviation="7.5"/>
<feColorMatrix type="matrix" values="0 0 0 0 1 0 0 0 0 1 0 0 0 0 1 0 0 0 1 0"/>
<feBlend mode="normal" in2="BackgroundImageFix" result="effect1_dropShadow_12_3794"/>
<feBlend mode="normal" in="SourceGraphic" in2="effect1_dropShadow_12_3794" result="shape"/>
</filter>
<linearGradient id="paint0_linear_12_3794" x1="969.912" y1="587.378" x2="814.03" y2="342.899" gradientUnits="userSpaceOnUse">
<stop stop-color="#83DCFA" stop-opacity="0.01"/>
<stop offset="1" stop-color="#7793F0"/>
</linearGradient>
<linearGradient id="paint1_linear_12_3794" x1="920.436" y1="726.423" x2="661.971" y2="324.263" gradientUnits="userSpaceOnUse">
<stop stop-color="#83DCFA" stop-opacity="0.01"/>
<stop offset="0.0863455" stop-color="#83DBFA" stop-opacity="0.0135849"/>
<stop offset="0.990812" stop-color="#7793F0"/>
</linearGradient>
<linearGradient id="paint2_linear_12_3794" x1="957.363" y1="641.351" x2="698.845" y2="301.446" gradientUnits="userSpaceOnUse">
<stop stop-color="#83DCFA" stop-opacity="0.01"/>
<stop offset="0.0863455" stop-color="#83DBFA" stop-opacity="0.0135849"/>
<stop offset="0.990812" stop-color="#7793F0"/>
</linearGradient>
<linearGradient id="paint3_linear_12_3794" x1="958.011" y1="548" x2="766.439" y2="315.428" gradientUnits="userSpaceOnUse">
<stop stop-color="#83DCFA" stop-opacity="0.01"/>
<stop offset="0.0863455" stop-color="#83DBFA" stop-opacity="0.0135849"/>
<stop offset="0.990812" stop-color="#7793F0"/>
</linearGradient>
<linearGradient id="paint4_linear_12_3794" x1="954.321" y1="453.947" x2="767.789" y2="218.615" gradientUnits="userSpaceOnUse">
<stop stop-color="#83DCFA" stop-opacity="0.01"/>
<stop offset="0.0863455" stop-color="#83DBFA" stop-opacity="0.0135849"/>
<stop offset="0.990812" stop-color="#7793F0"/>
</linearGradient>
<linearGradient id="paint5_linear_12_3794" x1="984.634" y1="716.691" x2="786.39" y2="406.111" gradientUnits="userSpaceOnUse">
<stop stop-color="#83DCFA" stop-opacity="0.01"/>
<stop offset="0.0863455" stop-color="#83DBFA" stop-opacity="0.0135849"/>
<stop offset="0.990812" stop-color="#7793F0"/>
</linearGradient>
<linearGradient id="paint6_linear_12_3794" x1="643.512" y1="375.759" x2="401.724" y2="645.128" gradientUnits="userSpaceOnUse">
<stop stop-color="#131823"/>
<stop offset="1" stop-color="#7693F0"/>
</linearGradient>
<linearGradient id="paint7_linear_12_3794" x1="646.762" y1="344.157" x2="418.224" y2="544.881" gradientUnits="userSpaceOnUse">
<stop stop-color="#121823"/>
<stop offset="1" stop-color="#9BCF62"/>
</linearGradient>
<linearGradient id="paint8_linear_12_3794" x1="518.218" y1="72.6087" x2="752.368" y2="376.852" gradientUnits="userSpaceOnUse">
<stop stop-color="#B2CF67"/>
<stop offset="0.565969" stop-color="#75CED7"/>
<stop offset="1" stop-color="#B6B7F8"/>
</linearGradient>
<linearGradient id="paint9_linear_12_3794" x1="287.366" y1="608.152" x2="215.522" y2="120.999" gradientUnits="userSpaceOnUse">
<stop stop-color="#9FD6FF"/>
<stop offset="1" stop-color="#B0F760"/>
</linearGradient>
<linearGradient id="paint10_linear_12_3794" x1="452.114" y1="325.739" x2="420.329" y2="240.157" gradientUnits="userSpaceOnUse">
<stop stop-color="white" stop-opacity="0.01"/>
<stop offset="1" stop-color="#FFF061"/>
</linearGradient>
<linearGradient id="paint11_linear_12_3794" x1="266.693" y1="479.955" x2="234.907" y2="394.373" gradientUnits="userSpaceOnUse">
<stop stop-color="white" stop-opacity="0.01"/>
<stop offset="1" stop-color="#FFF061"/>
</linearGradient>
<linearGradient id="paint12_linear_12_3794" x1="450.389" y1="443.407" x2="417.08" y2="353.723" gradientUnits="userSpaceOnUse">
<stop stop-color="white" stop-opacity="0.01"/>
<stop offset="1" stop-color="#FFF061"/>
</linearGradient>
<linearGradient id="paint13_linear_12_3794" x1="536" y1="154.061" x2="425.353" y2="430.674" gradientUnits="userSpaceOnUse">
<stop stop-color="#5E781A"/>
<stop offset="1" stop-color="#7891CF"/>
</linearGradient>
<linearGradient id="paint14_linear_12_3794" x1="233.658" y1="103.066" x2="622.756" y2="120.312" gradientUnits="userSpaceOnUse">
<stop stop-color="#A8CE7A"/>
<stop offset="1" stop-color="#FCFFFF"/>
</linearGradient>
<linearGradient id="paint15_linear_12_3794" x1="773.071" y1="292.277" x2="493.702" y2="630.883" gradientUnits="userSpaceOnUse">
<stop stop-color="#9CCF62"/>
<stop offset="0.321494" stop-color="#FFFAEF"/>
<stop offset="0.628177" stop-color="#77CDD8"/>
<stop offset="1" stop-color="#7693F0"/>
</linearGradient>
</defs>
</svg>
