<svg width="152" height="26" viewBox="0 0 152 26" fill="none" xmlns="http://www.w3.org/2000/svg">
<path fill-rule="evenodd" clip-rule="evenodd" d="M85.4156 13.4298C85.4156 11.3764 84.0329 9.85712 82.0283 9.85712C80.044 9.85712 78.6812 11.3764 78.6812 13.4298C78.6812 15.4626 80.044 17.0025 82.0283 17.0025C84.0329 17.0025 85.4156 15.4626 85.4156 13.4298ZM76.0356 13.4299C76.0356 10.1033 78.3608 7.43396 81.5076 7.43396C83.4717 7.43396 84.9949 8.52204 85.6966 10.0211H85.7769V7.76238H88.2219V19.1176H85.7769V16.9H85.6966C84.7346 18.6867 83.2914 19.4255 81.5076 19.4255C78.3608 19.4255 76.0356 16.7564 76.0356 13.4299Z" fill="currentColor"/>
<path fill-rule="evenodd" clip-rule="evenodd" d="M90.9275 7.7627H100.929V19.1179H98.4439V10.1653H93.4127V19.1179H90.9275V7.7627Z" fill="currentColor"/>
<path fill-rule="evenodd" clip-rule="evenodd" d="M112.134 13.4301C112.134 11.3767 110.751 9.85742 108.766 9.85742C106.762 9.85742 105.419 11.3767 105.419 13.4301C105.419 15.4629 106.762 17.0028 108.766 17.0028C110.751 17.0028 112.134 15.4629 112.134 13.4301ZM102.773 13.4299C102.773 10.1034 105.099 7.43404 108.105 7.43404C110.069 7.43404 111.653 8.52212 112.354 10.0212H112.435V4.55933H114.96V19.1177H112.515V16.9001H112.415C111.452 18.6867 109.869 19.4255 108.105 19.4255C105.099 19.4255 102.773 16.7565 102.773 13.4299Z" fill="currentColor"/>
<path fill-rule="evenodd" clip-rule="evenodd" d="M120.854 4.55933H129.953V6.94112H123.339V10.6169H128.831V13.0193H123.339V19.118H120.854V4.55933Z" fill="currentColor"/>
<path fill-rule="evenodd" clip-rule="evenodd" d="M139.814 13.4299C139.814 11.3765 138.431 9.85718 136.426 9.85718C134.442 9.85718 133.079 11.3765 133.079 13.4299C133.079 15.4627 134.442 17.0025 136.426 17.0025C138.431 17.0025 139.814 15.4627 139.814 13.4299ZM130.434 13.43C130.434 10.1035 132.759 7.43408 135.906 7.43408C137.87 7.43408 139.393 8.52216 140.095 10.0212H140.175V7.7625H142.62V19.1177H140.175V16.9001H140.095C139.133 18.6868 137.689 19.4256 135.906 19.4256C132.759 19.4256 130.434 16.7565 130.434 13.43Z" fill="currentColor"/>
<path fill-rule="evenodd" clip-rule="evenodd" d="M145.326 7.7627H152V10.1653H147.851V19.1179H145.326V7.7627Z" fill="currentColor"/>
<path fill-rule="evenodd" clip-rule="evenodd" d="M35.0662 4.55933H44.1485V6.93671H37.5465V10.6052H43.0284V13.0034H37.5465V19.0904H35.0662V4.55933Z" fill="currentColor"/>
<path fill-rule="evenodd" clip-rule="evenodd" d="M57.0522 7.75659H59.6329L61.7537 15.4625L63.7342 7.75659H65.9146L67.8949 15.4625L69.9958 7.75659H72.5768L69.4358 19.0904H66.7952L64.8141 11.3842L62.8539 19.0904H60.2127L57.0522 7.75659Z" fill="currentColor"/>
<path fill-rule="evenodd" clip-rule="evenodd" d="M50.6102 9.84674C52.3709 9.84674 53.6709 10.9742 53.8912 12.3266H47.3491C47.5292 10.8922 48.8496 9.84674 50.6102 9.84674ZM53.6556 15.2168H53.6312C53.1113 16.3648 52.0108 17.0002 50.6904 17.0002C49.0098 17.0002 47.5895 15.8316 47.3094 14.2741H56.5921C56.652 13.9665 56.6724 13.6387 56.6724 13.4542C56.6724 10.0522 54.0315 7.44922 50.6505 7.44922C47.2695 7.44922 44.6289 10.0522 44.6289 13.3723C44.6289 16.6926 47.2695 19.3978 50.6505 19.3978C52.8914 19.3978 54.7627 18.2498 55.8056 16.5134L53.6556 15.2168Z" fill="currentColor"/>
<path fill-rule="evenodd" clip-rule="evenodd" d="M0 0L0.0879734 16.2569L2.87586 16.2407L2.80369 2.85609H15.8826V0H0ZM6.75098 6.91772L6.84607 16.2638L9.63396 16.234L9.56798 9.77382H15.8825V6.91772H6.75098ZM18.7917 19.0827H9.66016V16.2266H15.9747L15.9087 9.76611L18.6966 9.73628L18.7917 19.0827ZM9.66016 25.9998H25.5428L25.4548 9.74263L22.6669 9.75882L22.7391 23.1437H9.66016V25.9998Z" fill="url(#paint0_radial_176_1758)"/>
<defs>
<radialGradient id="paint0_radial_176_1758" cx="0" cy="0" r="1" gradientUnits="userSpaceOnUse" gradientTransform="translate(5.61636 17.8984) rotate(-43.8475) scale(19.006 19.0226)">
<stop stop-color="#B2CF67"/>
<stop offset="0.159415" stop-color="#B2CF67"/>
<stop offset="0.565969" stop-color="#75CED7"/>
<stop offset="1" stop-color="#B6B7F8"/>
</radialGradient>
</defs>
</svg>
