<svg width="535" height="66" viewBox="0 0 535 66" fill="none" xmlns="http://www.w3.org/2000/svg">
<path fill-rule="evenodd" clip-rule="evenodd" d="M146 4L146.207 42.1502L152.755 42.1123L152.586 10.7024H183.308V4H146ZM161.858 20.2335L162.082 42.1661L168.631 42.0961L168.476 26.936H183.308V20.2335H161.858ZM190.142 48.7813H168.692V42.0789H183.524L183.369 26.918L189.918 26.848L190.142 48.7813ZM168.692 65.0144H206L205.793 26.8634L199.244 26.9014L199.414 58.312H168.692V65.0144Z" fill="url(#paint0_radial_2537_15)"/>
<path d="M3.35014 51V12.4545H29.3232V19.1736H11.4996V28.3583H27.9869V35.0774H11.4996V44.2809H29.3984V51H3.35014ZM43.8953 51.5458C42.0509 51.5458 40.4072 51.2259 38.9642 50.5859C37.5213 49.9335 36.3795 48.9736 35.5388 47.7063C34.7107 46.4265 34.2966 44.833 34.2966 42.9258C34.2966 41.3197 34.5915 39.9709 35.1812 38.8793C35.7709 37.7876 36.574 36.9093 37.5903 36.2443C38.6066 35.5793 39.761 35.0774 41.0534 34.7386C42.3583 34.3999 43.7259 34.1615 45.1563 34.0234C46.8377 33.8478 48.1928 33.6847 49.2217 33.5341C50.2506 33.371 50.9971 33.1326 51.4614 32.8189C51.9256 32.5052 52.1578 32.041 52.1578 31.4261V31.3132C52.1578 30.1212 51.7813 29.199 51.0285 28.5465C50.2882 27.8941 49.2342 27.5678 47.8666 27.5678C46.4236 27.5678 45.2755 27.8878 44.4223 28.5277C43.5691 29.1551 43.0045 29.9455 42.7284 30.8991L35.3129 30.2969C35.6894 28.5402 36.4297 27.022 37.5338 25.7422C38.638 24.4498 40.0621 23.4586 41.8062 22.7685C43.5628 22.0658 45.5955 21.7145 47.9042 21.7145C49.5103 21.7145 51.0473 21.9027 52.5154 22.2791C53.9959 22.6555 55.3071 23.239 56.449 24.0295C57.6033 24.82 58.513 25.8363 59.178 27.0785C59.843 28.3081 60.1755 29.7824 60.1755 31.5014V51H52.5718V46.9911H52.346C51.8817 47.8945 51.2606 48.6913 50.4827 49.3814C49.7048 50.0589 48.77 50.5922 47.6784 50.9812C46.5867 51.3576 45.3257 51.5458 43.8953 51.5458ZM46.1915 46.0124C47.3709 46.0124 48.4124 45.7803 49.3158 45.3161C50.2192 44.8393 50.9281 44.1993 51.4426 43.3963C51.957 42.5933 52.2142 41.6836 52.2142 40.6673V37.5994C51.9633 37.7625 51.6182 37.9131 51.1791 38.0511C50.7525 38.1766 50.2694 38.2958 49.7298 38.4087C49.1903 38.5091 48.6508 38.6032 48.1112 38.6911C47.5717 38.7663 47.0824 38.8353 46.6432 38.8981C45.7021 39.0361 44.8803 39.2557 44.1776 39.5568C43.475 39.858 42.9292 40.2657 42.5402 40.7802C42.1512 41.2821 41.9568 41.9094 41.9568 42.6623C41.9568 43.7539 42.352 44.5883 43.1425 45.1655C43.9455 45.7301 44.9619 46.0124 46.1915 46.0124ZM66.3959 51V22.0909H74.1689V27.1349H74.4701C74.9971 25.3407 75.8817 23.9856 77.1238 23.0696C78.366 22.1411 79.7964 21.6768 81.415 21.6768C81.8166 21.6768 82.2494 21.7019 82.7137 21.7521C83.1779 21.8023 83.5857 21.8713 83.9371 21.9592V29.0735C83.5606 28.9606 83.0399 28.8602 82.3749 28.7724C81.7099 28.6845 81.1014 28.6406 80.5493 28.6406C79.3698 28.6406 78.3158 28.8978 77.3873 29.4123C76.4714 29.9142 75.7436 30.6168 75.2041 31.5202C74.6771 32.4237 74.4136 33.4651 74.4136 34.6445V51H66.3959ZM96.1001 12.4545V51H88.0824V12.4545H96.1001ZM107.473 61.8409C106.456 61.8409 105.503 61.7594 104.612 61.5962C103.734 61.4457 103.006 61.2512 102.429 61.0128L104.236 55.0277C105.177 55.3163 106.024 55.4731 106.776 55.4982C107.542 55.5233 108.2 55.3477 108.753 54.9712C109.317 54.5948 109.775 53.9549 110.127 53.0515L110.597 51.8281L100.227 22.0909H108.658L114.644 43.321H114.945L120.986 22.0909H129.475L118.238 54.1243C117.699 55.6802 116.965 57.0353 116.036 58.1896C115.12 59.3565 113.96 60.2537 112.554 60.881C111.149 61.521 109.455 61.8409 107.473 61.8409Z" fill="currentColor"/>
<path d="M224.35 52V13.4545H249.871V20.1736H232.5V29.3583H248.178V36.0774H232.5V52H224.35ZM257.183 52H248.45L261.757 13.4545H272.259L285.547 52H276.814L267.159 22.2628H266.857L257.183 52ZM256.638 36.8491H277.265V43.2106H256.638V36.8491ZM290.186 52V13.4545H305.393C308.304 13.4545 310.789 13.9753 312.847 15.0167C314.917 16.0456 316.492 17.5073 317.571 19.402C318.662 21.2841 319.208 23.4987 319.208 26.0458C319.208 28.6055 318.656 30.8075 317.552 32.652C316.448 34.4839 314.848 35.8892 312.752 36.8679C310.67 37.8466 308.148 38.3359 305.186 38.3359H295.004V31.7862H303.869C305.425 31.7862 306.717 31.5729 307.746 31.1463C308.775 30.7197 309.54 30.0798 310.042 29.2266C310.557 28.3733 310.814 27.3131 310.814 26.0458C310.814 24.766 310.557 23.6869 310.042 22.8086C309.54 21.9303 308.769 21.2653 307.727 20.8136C306.698 20.3493 305.4 20.1172 303.831 20.1172H298.336V52H290.186ZM311.002 34.4588L320.582 52H311.586L302.213 34.4588H311.002ZM343.878 52H335.145L348.451 13.4545H358.953L372.241 52H363.508L353.853 22.2628H353.552L343.878 52ZM343.332 36.8491H363.96V43.2106H343.332V36.8491ZM376.885 52V23.0909H384.903V52H376.885ZM380.913 19.3643C379.721 19.3643 378.698 18.9691 377.845 18.1786C377.004 17.3756 376.584 16.4157 376.584 15.299C376.584 14.1948 377.004 13.2475 377.845 12.457C378.698 11.654 379.721 11.2525 380.913 11.2525C382.105 11.2525 383.121 11.654 383.962 12.457C384.815 13.2475 385.242 14.1948 385.242 15.299C385.242 16.4157 384.815 17.3756 383.962 18.1786C383.121 18.9691 382.105 19.3643 380.913 19.3643ZM391.326 52V23.0909H399.099V28.1349H399.4C399.927 26.3407 400.811 24.9856 402.054 24.0696C403.296 23.1411 404.726 22.6768 406.345 22.6768C406.746 22.6768 407.179 22.7019 407.643 22.7521C408.108 22.8023 408.515 22.8713 408.867 22.9592V30.0735C408.49 29.9606 407.97 29.8602 407.305 29.7724C406.64 29.6845 406.031 29.6406 405.479 29.6406C404.3 29.6406 403.246 29.8978 402.317 30.4123C401.401 30.9142 400.673 31.6168 400.134 32.5202C399.607 33.4237 399.343 34.4651 399.343 35.6445V52H391.326ZM426.827 52H413.163V13.4545H426.94C430.817 13.4545 434.154 14.2262 436.952 15.7695C439.75 17.3003 441.902 19.5024 443.408 22.3757C444.926 25.2491 445.685 28.687 445.685 32.6896C445.685 36.7048 444.926 40.1553 443.408 43.0412C441.902 45.9271 439.738 48.1417 436.915 49.685C434.104 51.2283 430.741 52 426.827 52ZM421.312 45.0174H426.488C428.897 45.0174 430.923 44.5908 432.567 43.7376C434.223 42.8718 435.466 41.5355 436.294 39.7287C437.134 37.9093 437.555 35.563 437.555 32.6896C437.555 29.8414 437.134 27.5138 436.294 25.707C435.466 23.9002 434.23 22.5702 432.586 21.717C430.942 20.8638 428.916 20.4371 426.507 20.4371H421.312V45.0174ZM451.572 52V23.0909H459.345V28.1349H459.646C460.173 26.3407 461.057 24.9856 462.3 24.0696C463.542 23.1411 464.972 22.6768 466.591 22.6768C466.992 22.6768 467.425 22.7019 467.889 22.7521C468.354 22.8023 468.762 22.8713 469.113 22.9592V30.0735C468.736 29.9606 468.216 29.8602 467.551 29.7724C466.886 29.6845 466.277 29.6406 465.725 29.6406C464.546 29.6406 463.492 29.8978 462.563 30.4123C461.647 30.9142 460.919 31.6168 460.38 32.5202C459.853 33.4237 459.589 34.4651 459.589 35.6445V52H451.572ZM484.974 52.5646C482.051 52.5646 479.522 51.9435 477.389 50.7013C475.269 49.4466 473.631 47.7025 472.477 45.4691C471.323 43.2231 470.746 40.6196 470.746 37.6584C470.746 34.6721 471.323 32.0623 472.477 29.8288C473.631 27.5829 475.269 25.8388 477.389 24.5966C479.522 23.3419 482.051 22.7145 484.974 22.7145C487.898 22.7145 490.42 23.3419 492.54 24.5966C494.673 25.8388 496.317 27.5829 497.471 29.8288C498.626 32.0623 499.203 34.6721 499.203 37.6584C499.203 40.6196 498.626 43.2231 497.471 45.4691C496.317 47.7025 494.673 49.4466 492.54 50.7013C490.42 51.9435 487.898 52.5646 484.974 52.5646ZM485.012 46.3537C486.342 46.3537 487.452 45.9773 488.343 45.2244C489.234 44.459 489.905 43.4176 490.357 42.1001C490.821 40.7827 491.053 39.2833 491.053 37.6019C491.053 35.9206 490.821 34.4212 490.357 33.1037C489.905 31.7862 489.234 30.7448 488.343 29.9794C487.452 29.214 486.342 28.8313 485.012 28.8313C483.669 28.8313 482.54 29.214 481.624 29.9794C480.721 30.7448 480.037 31.7862 479.573 33.1037C479.121 34.4212 478.895 35.9206 478.895 37.6019C478.895 39.2833 479.121 40.7827 479.573 42.1001C480.037 43.4176 480.721 44.459 481.624 45.2244C482.54 45.9773 483.669 46.3537 485.012 46.3537ZM504.416 62.8409V23.0909H512.321V27.9467H512.679C513.03 27.1688 513.538 26.3783 514.203 25.5753C514.881 24.7597 515.759 24.0821 516.838 23.5426C517.93 22.9905 519.285 22.7145 520.904 22.7145C523.012 22.7145 524.956 23.2666 526.738 24.3707C528.52 25.4624 529.944 27.1123 531.01 29.3207C532.077 31.5165 532.61 34.2706 532.61 37.5831C532.61 40.8078 532.09 43.5305 531.048 45.7514C530.019 47.9598 528.614 49.6348 526.832 50.7766C525.063 51.9059 523.081 52.4705 520.885 52.4705C519.329 52.4705 518.005 52.2133 516.914 51.6989C515.834 51.1844 514.95 50.5382 514.26 49.7603C513.57 48.9698 513.043 48.1731 512.679 47.37H512.434V62.8409H504.416ZM512.265 37.5455C512.265 39.2644 512.503 40.7638 512.98 42.0437C513.457 43.3235 514.147 44.321 515.05 45.0362C515.954 45.7389 517.052 46.0902 518.344 46.0902C519.649 46.0902 520.753 45.7326 521.656 45.0174C522.56 44.2897 523.244 43.2859 523.708 42.006C524.185 40.7137 524.423 39.2268 524.423 37.5455C524.423 35.8767 524.191 34.4086 523.727 33.1413C523.262 31.8741 522.579 30.8828 521.675 30.1676C520.772 29.4524 519.661 29.0948 518.344 29.0948C517.039 29.0948 515.935 29.4399 515.031 30.13C514.141 30.8201 513.457 31.7988 512.98 33.066C512.503 34.3333 512.265 35.8265 512.265 37.5455Z" fill="currentColor"/>
<defs>
<radialGradient id="paint0_radial_2537_15" cx="0" cy="0" r="1" gradientUnits="userSpaceOnUse" gradientTransform="translate(159.193 46.0025) rotate(-43.8198) scale(44.6243 44.6614)">
<stop stop-color="#B2CF67"/>
<stop offset="0.159415" stop-color="#B2CF67"/>
<stop offset="0.565969" stop-color="#75CED7"/>
<stop offset="1" stop-color="#B6B7F8"/>
</radialGradient>
</defs>
</svg>
