<svg  viewBox="0 0 135 18" fill="none" xmlns="http://www.w3.org/2000/svg">
<path fill-rule="evenodd" clip-rule="evenodd" d="M58.3403 10.9945C58.3403 8.63277 56.7484 6.88525 54.4405 6.88525C52.156 6.88525 50.5868 8.63277 50.5868 10.9945C50.5868 13.3327 52.156 15.1038 54.4405 15.1038C56.7484 15.1038 58.3403 13.3327 58.3403 10.9945ZM47.541 10.9946C47.541 7.16845 50.218 4.09814 53.8409 4.09814C56.1023 4.09814 57.8559 5.34965 58.6638 7.07385H58.7562V4.47589H61.5712V17.5366H58.7562V14.986H58.6638C57.5562 17.0409 55.8946 17.8907 53.8409 17.8907C50.218 17.8907 47.541 14.8207 47.541 10.9946Z" fill="currentColor"/>
<path fill-rule="evenodd" clip-rule="evenodd" d="M64.6863 4.47607H76.2013V17.5368H73.3401V7.23959H67.5476V17.5368H64.6863V4.47607Z" fill="currentColor"/>
<path fill-rule="evenodd" clip-rule="evenodd" d="M89.1013 10.9948C89.1013 8.63299 87.5091 6.88548 85.2245 6.88548C82.9169 6.88548 81.3706 8.63299 81.3706 10.9948C81.3706 13.3329 82.9169 15.1041 85.2245 15.1041C87.5091 15.1041 89.1013 13.3329 89.1013 10.9948ZM78.3247 10.9947C78.3247 7.16854 81.0017 4.09823 84.4632 4.09823C86.7246 4.09823 88.5476 5.34974 89.3554 7.07394H89.4478V0.791748H92.355V17.5367H89.5399V14.9861H89.4247C88.3168 17.041 86.4941 17.8908 84.4632 17.8908C81.0017 17.8908 78.3247 14.8208 78.3247 10.9947Z" fill="currentColor"/>
<path fill-rule="evenodd" clip-rule="evenodd" d="M99.1408 0.791748H109.617V3.53127H102.002V7.75916H108.325V10.5223H102.002V17.537H99.1408V0.791748Z" fill="currentColor"/>
<path fill-rule="evenodd" clip-rule="evenodd" d="M120.97 10.9945C120.97 8.63277 119.378 6.88525 117.07 6.88525C114.785 6.88525 113.216 8.63277 113.216 10.9945C113.216 13.3327 114.785 15.1038 117.07 15.1038C119.378 15.1038 120.97 13.3327 120.97 10.9945ZM110.17 10.9946C110.17 7.16845 112.847 4.09814 116.47 4.09814C118.731 4.09814 120.485 5.34965 121.293 7.07385H121.385V4.47589H124.2V17.5366H121.385V14.986H121.293C120.185 17.0409 118.524 17.8907 116.47 17.8907C112.847 17.8907 110.17 14.8207 110.17 10.9946Z" fill="currentColor"/>
<path fill-rule="evenodd" clip-rule="evenodd" d="M127.316 4.47607H135V7.23959H130.224V17.5368H127.316V4.47607Z" fill="currentColor"/>
<path fill-rule="evenodd" clip-rule="evenodd" d="M0.372131 0.791748H10.8287V3.52621H3.22777V7.74564H9.53923V10.5041H3.22777V17.5053H0.372131V0.791748Z" fill="currentColor"/>
<path fill-rule="evenodd" clip-rule="evenodd" d="M25.6852 4.46899H28.6564L31.098 13.3322L33.3782 4.46899H35.8886L38.1685 13.3322L40.5873 4.46899H43.5588L39.9426 17.5051H36.9024L34.6215 8.64147L32.3647 17.5051H29.3239L25.6852 4.46899Z" fill="currentColor"/>
<path fill-rule="evenodd" clip-rule="evenodd" d="M18.2683 6.87338C20.2953 6.87338 21.7921 8.17017 22.0457 9.72576H14.5137C14.721 8.0759 16.2413 6.87338 18.2683 6.87338ZM21.7744 13.0497H21.7463C21.1478 14.3701 19.8807 15.1009 18.3605 15.1009C16.4256 15.1009 14.7904 13.7569 14.4679 11.9654H25.1553C25.2243 11.6117 25.2477 11.2346 25.2477 11.0224C25.2477 7.10943 22.2072 4.11548 18.3146 4.11548C14.422 4.11548 11.3818 7.10943 11.3818 10.9281C11.3818 14.7472 14.422 17.8587 18.3146 17.8587C20.8946 17.8587 23.049 16.5383 24.2497 14.5411L21.7744 13.0497Z" fill="currentColor"/>
</svg>
