<svg width="518" height="66" viewBox="0 0 518 66" fill="none" xmlns="http://www.w3.org/2000/svg">
<path d="M3.73295 51V12.4545H29.2543V19.1736H11.8825V28.3583H27.5604V35.0774H11.8825V51H3.73295ZM36.5662 51H27.8333L41.1397 12.4545H51.6419L64.9295 51H56.1966L46.5414 21.2628H46.2402L36.5662 51ZM36.0204 35.8491H56.6483V42.2106H36.0204V35.8491ZM69.5689 51V12.4545H84.7763C87.6873 12.4545 90.1716 12.9753 92.2294 14.0167C94.2997 15.0456 95.8744 16.5073 96.9535 18.402C98.0451 20.2841 98.5909 22.4987 98.5909 25.0458C98.5909 27.6055 98.0388 29.8075 96.9347 31.652C95.8305 33.4839 94.2307 34.8892 92.1353 35.8679C90.0524 36.8466 87.5304 37.3359 84.5692 37.3359H74.3871V30.7862H83.2518C84.8076 30.7862 86.1 30.5729 87.1289 30.1463C88.1578 29.7197 88.9232 29.0798 89.4251 28.2266C89.9395 27.3733 90.1967 26.3131 90.1967 25.0458C90.1967 23.766 89.9395 22.6869 89.4251 21.8086C88.9232 20.9303 88.1515 20.2653 87.1101 19.8136C86.0812 19.3493 84.7826 19.1172 83.2141 19.1172H77.7184V51H69.5689ZM90.3849 33.4588L99.9648 51H90.9684L81.5955 33.4588H90.3849Z" fill="white"/>
<path d="M228.36 26.9492H220.116C219.966 25.8827 219.658 24.9354 219.194 24.1072C218.73 23.2666 218.134 22.5514 217.406 21.9616C216.678 21.3719 215.837 20.9202 214.884 20.6065C213.943 20.2929 212.92 20.136 211.816 20.136C209.821 20.136 208.083 20.6316 206.603 21.6229C205.122 22.6016 203.974 24.032 203.158 25.9141C202.343 27.7836 201.935 30.0547 201.935 32.7273C201.935 35.4751 202.343 37.7839 203.158 39.6534C203.987 41.523 205.141 42.9345 206.621 43.8881C208.102 44.8417 209.815 45.3185 211.76 45.3185C212.851 45.3185 213.861 45.1742 214.79 44.8857C215.731 44.5971 216.565 44.1767 217.293 43.6246C218.021 43.06 218.623 42.3762 219.1 41.5732C219.589 40.7701 219.928 39.8542 220.116 38.8253L228.36 38.8629C228.146 40.6321 227.613 42.3385 226.76 43.9822C225.919 45.6134 224.784 47.0752 223.353 48.3675C221.935 49.6474 220.242 50.6637 218.272 51.4165C216.314 52.1568 214.1 52.527 211.628 52.527C208.19 52.527 205.116 51.7491 202.406 50.1932C199.708 48.6373 197.575 46.3851 196.006 43.4364C194.451 40.4878 193.673 36.9181 193.673 32.7273C193.673 28.5239 194.463 24.9479 196.044 21.9993C197.625 19.0507 199.771 16.8047 202.481 15.2614C205.191 13.7055 208.24 12.9276 211.628 12.9276C213.861 12.9276 215.932 13.2412 217.839 13.8686C219.759 14.496 221.459 15.4119 222.939 16.6165C224.42 17.8085 225.624 19.2702 226.553 21.0018C227.494 22.7333 228.096 24.7158 228.36 26.9492ZM242.071 13.4545V52H234.053V13.4545H242.071ZM256.737 52.5458C254.893 52.5458 253.249 52.2259 251.806 51.5859C250.363 50.9335 249.221 49.9736 248.381 48.7063C247.552 47.4265 247.138 45.833 247.138 43.9258C247.138 42.3197 247.433 40.9709 248.023 39.8793C248.613 38.7876 249.416 37.9093 250.432 37.2443C251.448 36.5793 252.603 36.0774 253.895 35.7386C255.2 35.3999 256.568 35.1615 257.998 35.0234C259.679 34.8478 261.035 34.6847 262.063 34.5341C263.092 34.371 263.839 34.1326 264.303 33.8189C264.767 33.5052 265 33.041 265 32.4261V32.3132C265 31.1212 264.623 30.199 263.87 29.5465C263.13 28.8941 262.076 28.5678 260.708 28.5678C259.265 28.5678 258.117 28.8878 257.264 29.5277C256.411 30.1551 255.846 30.9455 255.57 31.8991L248.155 31.2969C248.531 29.5402 249.271 28.022 250.376 26.7422C251.48 25.4498 252.904 24.4586 254.648 23.7685C256.405 23.0658 258.437 22.7145 260.746 22.7145C262.352 22.7145 263.889 22.9027 265.357 23.2791C266.838 23.6555 268.149 24.239 269.291 25.0295C270.445 25.82 271.355 26.8363 272.02 28.0785C272.685 29.3081 273.017 30.7824 273.017 32.5014V52H265.414V47.9911H265.188C264.724 48.8945 264.102 49.6913 263.324 50.3814C262.547 51.0589 261.612 51.5922 260.52 51.9812C259.429 52.3576 258.168 52.5458 256.737 52.5458ZM259.033 47.0124C260.213 47.0124 261.254 46.7803 262.158 46.3161C263.061 45.8393 263.77 45.1993 264.284 44.3963C264.799 43.5933 265.056 42.6836 265.056 41.6673V38.5994C264.805 38.7625 264.46 38.9131 264.021 39.0511C263.594 39.1766 263.111 39.2958 262.572 39.4087C262.032 39.5091 261.493 39.6032 260.953 39.6911C260.414 39.7663 259.924 39.8353 259.485 39.8981C258.544 40.0361 257.722 40.2557 257.019 40.5568C256.317 40.858 255.771 41.2657 255.382 41.7802C254.993 42.2821 254.799 42.9094 254.799 43.6623C254.799 44.7539 255.194 45.5883 255.984 46.1655C256.787 46.7301 257.804 47.0124 259.033 47.0124ZM279.238 52V23.0909H287.255V52H279.238ZM283.265 19.3643C282.073 19.3643 281.051 18.9691 280.198 18.1786C279.357 17.3756 278.937 16.4157 278.937 15.299C278.937 14.1948 279.357 13.2475 280.198 12.457C281.051 11.654 282.073 11.2525 283.265 11.2525C284.457 11.2525 285.474 11.654 286.314 12.457C287.168 13.2475 287.594 14.1948 287.594 15.299C287.594 16.4157 287.168 17.3756 286.314 18.1786C285.474 18.9691 284.457 19.3643 283.265 19.3643ZM293.678 52V23.0909H301.319V28.1914H301.658C302.26 26.4975 303.264 25.1612 304.67 24.1825C306.075 23.2038 307.756 22.7145 309.714 22.7145C311.696 22.7145 313.384 23.2101 314.776 24.2013C316.169 25.18 317.098 26.5101 317.562 28.1914H317.863C318.453 26.5352 319.519 25.2114 321.063 24.2202C322.619 23.2164 324.457 22.7145 326.577 22.7145C329.275 22.7145 331.464 23.574 333.146 25.293C334.84 26.9994 335.687 29.421 335.687 32.5579V52H327.688V34.1388C327.688 32.5328 327.261 31.3282 326.408 30.5252C325.555 29.7222 324.488 29.3207 323.208 29.3207C321.753 29.3207 320.617 29.7849 319.802 30.7134C318.986 31.6294 318.578 32.8402 318.578 34.3459V52H310.805V33.9695C310.805 32.5516 310.397 31.4223 309.582 30.5817C308.779 29.741 307.719 29.3207 306.401 29.3207C305.51 29.3207 304.707 29.5465 303.992 29.9982C303.289 30.4374 302.731 31.0585 302.317 31.8615C301.903 32.652 301.696 33.5805 301.696 34.647V52H293.678ZM388.447 26.9492H380.203C380.052 25.8827 379.745 24.9354 379.281 24.1072C378.817 23.2666 378.221 22.5514 377.493 21.9616C376.765 21.3719 375.924 20.9202 374.971 20.6065C374.03 20.2929 373.007 20.136 371.903 20.136C369.908 20.136 368.17 20.6316 366.69 21.6229C365.209 22.6016 364.061 24.032 363.245 25.9141C362.43 27.7836 362.022 30.0547 362.022 32.7273C362.022 35.4751 362.43 37.7839 363.245 39.6534C364.073 41.523 365.228 42.9345 366.708 43.8881C368.189 44.8417 369.902 45.3185 371.847 45.3185C372.938 45.3185 373.948 45.1742 374.877 44.8857C375.818 44.5971 376.652 44.1767 377.38 43.6246C378.108 43.06 378.71 42.3762 379.187 41.5732C379.676 40.7701 380.015 39.8542 380.203 38.8253L388.447 38.8629C388.233 40.6321 387.7 42.3385 386.847 43.9822C386.006 45.6134 384.871 47.0752 383.44 48.3675C382.022 49.6474 380.329 50.6637 378.359 51.4165C376.401 52.1568 374.187 52.527 371.715 52.527C368.277 52.527 365.203 51.7491 362.492 50.1932C359.795 48.6373 357.662 46.3851 356.093 43.4364C354.537 40.4878 353.759 36.9181 353.759 32.7273C353.759 28.5239 354.55 24.9479 356.131 21.9993C357.712 19.0507 359.858 16.8047 362.568 15.2614C365.278 13.7055 368.327 12.9276 371.715 12.9276C373.948 12.9276 376.018 13.2412 377.926 13.8686C379.845 14.496 381.546 15.4119 383.026 16.6165C384.507 17.8085 385.711 19.2702 386.64 21.0018C387.581 22.7333 388.183 24.7158 388.447 26.9492ZM402.158 35.2869V52H394.14V13.4545H401.932V28.1914H402.271C402.923 26.485 403.977 25.1487 405.433 24.1825C406.888 23.2038 408.714 22.7145 410.91 22.7145C412.917 22.7145 414.667 23.1536 416.161 24.032C417.666 24.8977 418.833 26.1462 419.661 27.7773C420.502 29.396 420.916 31.3345 420.903 33.593V52H412.886V35.0234C412.898 33.2417 412.447 31.8552 411.531 30.864C410.627 29.8728 409.36 29.3771 407.729 29.3771C406.637 29.3771 405.671 29.6093 404.83 30.0735C404.002 30.5378 403.35 31.2153 402.873 32.1062C402.409 32.9845 402.17 34.0447 402.158 35.2869ZM440.388 52.5646C437.414 52.5646 434.855 51.9624 432.709 50.7578C430.576 49.5407 428.932 47.8217 427.778 45.6009C426.624 43.3674 426.046 40.7262 426.046 37.6772C426.046 34.7035 426.624 32.0936 427.778 29.8477C428.932 27.6017 430.557 25.8513 432.653 24.5966C434.76 23.3419 437.232 22.7145 440.068 22.7145C441.975 22.7145 443.751 23.0219 445.394 23.6367C447.051 24.239 448.494 25.1487 449.723 26.3658C450.965 27.5829 451.932 29.1136 452.622 30.9581C453.312 32.79 453.657 34.9356 453.657 37.3949V39.5969H429.246V34.6282H446.11C446.11 33.4738 445.859 32.4512 445.357 31.5604C444.855 30.6695 444.158 29.9731 443.268 29.4712C442.389 28.9568 441.367 28.6996 440.2 28.6996C438.983 28.6996 437.904 28.9819 436.963 29.5465C436.034 30.0986 435.306 30.8452 434.779 31.7862C434.252 32.7147 433.983 33.7499 433.97 34.8917V39.6158C433.97 41.0462 434.233 42.2821 434.76 43.3235C435.3 44.3649 436.059 45.168 437.038 45.7326C438.017 46.2972 439.177 46.5795 440.52 46.5795C441.411 46.5795 442.226 46.4541 442.966 46.2031C443.707 45.9522 444.34 45.5758 444.867 45.0739C445.394 44.572 445.796 43.9571 446.072 43.2294L453.487 43.7188C453.111 45.5005 452.339 47.0563 451.172 48.3864C450.018 49.7038 448.525 50.7327 446.693 51.473C444.874 52.2008 442.772 52.5646 440.388 52.5646ZM471.951 52.5646C468.99 52.5646 466.443 51.9373 464.309 50.6825C462.189 49.4152 460.558 47.6586 459.416 45.4126C458.287 43.1667 457.722 40.5819 457.722 37.6584C457.722 34.6972 458.293 32.0999 459.435 29.8665C460.589 27.6205 462.227 25.8701 464.347 24.6154C466.468 23.3481 468.99 22.7145 471.913 22.7145C474.435 22.7145 476.644 23.1725 478.538 24.0884C480.433 25.0044 481.932 26.2905 483.036 27.9467C484.141 29.603 484.749 31.5478 484.862 33.7812H477.296C477.083 32.3383 476.518 31.1777 475.602 30.2994C474.699 29.4085 473.513 28.9631 472.045 28.9631C470.803 28.9631 469.717 29.3018 468.789 29.9794C467.873 30.6444 467.158 31.6168 466.643 32.8967C466.129 34.1765 465.872 35.7261 465.872 37.5455C465.872 39.3899 466.123 40.9583 466.624 42.2507C467.139 43.5431 467.86 44.5281 468.789 45.2056C469.717 45.8832 470.803 46.2219 472.045 46.2219C472.961 46.2219 473.783 46.0337 474.51 45.6573C475.251 45.2809 475.859 44.7351 476.336 44.0199C476.825 43.2921 477.145 42.4201 477.296 41.4038H484.862C484.737 43.6121 484.134 45.5569 483.055 47.2383C481.989 48.9071 480.514 50.212 478.632 51.1531C476.75 52.0941 474.523 52.5646 471.951 52.5646ZM497.26 43.6811L497.279 34.0636H498.446L507.706 23.0909H516.91L504.469 37.6207H502.568L497.26 43.6811ZM489.995 52V13.4545H498.013V52H489.995ZM508.064 52L499.557 39.4087L504.902 33.7436L517.455 52H508.064Z" fill="white"/>
<path fill-rule="evenodd" clip-rule="evenodd" d="M116 4L116.207 42.1502L122.755 42.1123L122.586 10.7024H153.308V4H116ZM131.858 20.2335L132.082 42.1661L138.631 42.0961L138.476 26.936H153.308V20.2335H131.858ZM160.142 48.7813H138.692V42.0789H153.524L153.369 26.918L159.918 26.848L160.142 48.7813ZM138.692 65.0144H176L175.793 26.8634L169.244 26.9014L169.414 58.312H138.692V65.0144Z" fill="url(#paint0_radial_4318_1249)"/>
<defs>
<radialGradient id="paint0_radial_4318_1249" cx="0" cy="0" r="1" gradientUnits="userSpaceOnUse" gradientTransform="translate(129.193 46.0025) rotate(-43.8198) scale(44.6243 44.6614)">
<stop stop-color="#B2CF67"/>
<stop offset="0.159415" stop-color="#B2CF67"/>
<stop offset="0.565969" stop-color="#75CED7"/>
<stop offset="1" stop-color="#B6B7F8"/>
</radialGradient>
</defs>
</svg>
