<svg  viewBox="0 0 22 22" fill="none" xmlns="http://www.w3.org/2000/svg">
<path d="M17.6293 1.12444L13.0388 7.94444C12.7214 8.40889 13.3319 8.97111 13.7714 8.58L18.2886 4.64444C18.4107 4.54667 18.5816 4.62 18.5816 4.79111V17.0867C18.5816 17.2578 18.3618 17.3311 18.2642 17.2089L4.59046 0.831111C4.15094 0.293333 3.51609 0 2.80799 0H2.31964C1.04994 0 0 1.05111 0 2.34667V19.6533C0 20.9489 1.04994 22 2.34406 22C3.14983 22 3.90677 21.5844 4.34628 20.8756L8.93674 14.0556C9.25416 13.5911 8.64373 13.0289 8.20422 13.42L3.68701 17.3311C3.56493 17.4289 3.39401 17.3556 3.39401 17.1844V4.91333C3.39401 4.74222 3.61376 4.66889 3.71143 4.79111L17.3851 21.1689C17.8246 21.7067 18.4839 22 19.1676 22H19.6559C20.9501 22 22 20.9489 22 19.6533V2.34667C22 1.05111 20.9501 0 19.6559 0C18.8257 0 18.0688 0.415556 17.6293 1.12444Z" fill="currentColor"/>
</svg>
