<svg width="42" height="50" viewBox="0 0 42 50" fill="none" xmlns="http://www.w3.org/2000/svg">
<mask id="mask0_1158_4804" style="mask-type:alpha" maskUnits="userSpaceOnUse" x="6" y="41" width="12" height="7">
<path fill-rule="evenodd" clip-rule="evenodd" d="M12.0958 45.8173L17.4211 47.3629C15.2212 46.7244 13.1689 45.447 11.4239 43.5004L6.09863 41.9549C7.8436 43.9015 9.8961 45.1789 12.0958 45.8173Z" fill="white"/>
</mask>
<g mask="url(#mask0_1158_4804)">
<path fill-rule="evenodd" clip-rule="evenodd" d="M6.09863 41.9549L11.4239 43.5004C11.5811 43.6757 11.7407 43.8457 11.9028 44.0102L6.57759 42.4647C6.41552 42.3003 6.25587 42.1302 6.09863 41.9549Z" fill="#A89433"/>
</g>
<mask id="mask1_1158_4804" style="mask-type:alpha" maskUnits="userSpaceOnUse" x="6" y="41" width="12" height="7">
<path fill-rule="evenodd" clip-rule="evenodd" d="M12.0958 45.8173L17.4211 47.3629C15.2212 46.7244 13.1689 45.447 11.4239 43.5004L6.09863 41.9549C7.8436 43.9015 9.8961 45.1789 12.0958 45.8173Z" fill="white"/>
</mask>
<g mask="url(#mask1_1158_4804)">
<path fill-rule="evenodd" clip-rule="evenodd" d="M6.57715 42.4649L11.9024 44.0103C12.1022 44.2132 12.3057 44.408 12.5126 44.5944L7.1874 43.0489C6.98053 42.8625 6.77693 42.6678 6.57715 42.4649Z" fill="#A38F32"/>
</g>
<mask id="mask2_1158_4804" style="mask-type:alpha" maskUnits="userSpaceOnUse" x="6" y="41" width="12" height="7">
<path fill-rule="evenodd" clip-rule="evenodd" d="M12.0958 45.8173L17.4211 47.3629C15.2212 46.7244 13.1689 45.447 11.4239 43.5004L6.09863 41.9549C7.8436 43.9015 9.8961 45.1789 12.0958 45.8173Z" fill="white"/>
</mask>
<g mask="url(#mask2_1158_4804)">
<path fill-rule="evenodd" clip-rule="evenodd" d="M7.1875 43.0488L12.5127 44.5942C12.7359 44.7954 12.9631 44.9872 13.1939 45.1694L7.86873 43.6239C7.63786 43.4417 7.41066 43.25 7.1875 43.0488Z" fill="#9E8B30"/>
</g>
<mask id="mask3_1158_4804" style="mask-type:alpha" maskUnits="userSpaceOnUse" x="6" y="41" width="12" height="7">
<path fill-rule="evenodd" clip-rule="evenodd" d="M12.0958 45.8173L17.4211 47.3629C15.2212 46.7244 13.1689 45.447 11.4239 43.5004L6.09863 41.9549C7.8436 43.9015 9.8961 45.1789 12.0958 45.8173Z" fill="white"/>
</mask>
<g mask="url(#mask3_1158_4804)">
<path fill-rule="evenodd" clip-rule="evenodd" d="M7.86914 43.6238L13.1943 45.1692C13.4431 45.3655 13.6963 45.5509 13.9533 45.7254L8.62806 44.1799C8.37101 44.0055 8.11793 43.8201 7.86914 43.6238Z" fill="#99862F"/>
</g>
<mask id="mask4_1158_4804" style="mask-type:alpha" maskUnits="userSpaceOnUse" x="6" y="41" width="12" height="7">
<path fill-rule="evenodd" clip-rule="evenodd" d="M12.0958 45.8173L17.4211 47.3629C15.2212 46.7244 13.1689 45.447 11.4239 43.5004L6.09863 41.9549C7.8436 43.9015 9.8961 45.1789 12.0958 45.8173Z" fill="white"/>
</mask>
<g mask="url(#mask4_1158_4804)">
<path fill-rule="evenodd" clip-rule="evenodd" d="M8.62793 44.1801L13.9531 45.7256C14.2345 45.9165 14.5206 46.0943 14.811 46.2592L9.48572 44.7138C9.19533 44.5489 8.90921 44.3711 8.62793 44.1801Z" fill="#94822D"/>
</g>
<path fill-rule="evenodd" clip-rule="evenodd" d="M35.7822 41.0343C35.7932 41.0196 35.8037 41.0037 35.8147 40.9889C35.9992 40.7396 36.1817 40.4861 36.3611 40.2266C36.3769 40.2037 36.3927 40.1807 36.4086 40.1577C36.5911 39.8921 36.7669 39.6223 36.9405 39.3513C36.9695 39.306 37.0007 39.262 37.0294 39.2166C37.0305 39.2148 37.0317 39.213 37.0329 39.2113C37.2417 38.8813 37.4441 38.5476 37.6398 38.2106C37.6414 38.2078 37.6428 38.205 37.6443 38.2024C37.8482 37.8512 38.0447 37.4965 38.2343 37.1383C38.2353 37.1365 38.2364 37.1346 38.2374 37.1327C38.2507 37.1076 38.2624 37.0818 38.2755 37.0567C38.4604 36.705 38.6384 36.3502 38.8095 35.9924C38.8207 35.9689 38.8333 35.9461 38.8445 35.9227C38.8845 35.8385 38.9192 35.7524 38.9585 35.6679C39.1007 35.3617 39.2392 35.0541 39.3715 34.7441C39.3963 34.686 39.4245 34.6293 39.449 34.5711C39.5246 34.3907 39.5963 34.2091 39.6687 34.0276C39.6935 33.9654 39.7196 33.9037 39.744 33.8415C39.8565 33.5542 39.9656 33.2659 40.0697 32.9761C40.0823 32.941 40.0931 32.9055 40.1057 32.8704C40.1623 32.7111 40.2146 32.5508 40.2687 32.3908C40.3384 32.1848 40.4085 31.9789 40.474 31.7719C40.5259 31.6077 40.574 31.4429 40.6233 31.2781C40.6675 31.1299 40.7154 30.9823 40.7576 30.8335C40.7734 30.7781 40.7865 30.7221 40.8019 30.6666C40.8501 30.4933 40.8948 30.3194 40.9401 30.1457C40.9921 29.9461 41.044 29.7467 41.0922 29.5466C41.1344 29.3711 41.1735 29.1954 41.2128 29.0195C41.2574 28.8198 41.3016 28.6203 41.3424 28.4203C41.3785 28.2438 41.4117 28.0672 41.4448 27.8906C41.482 27.6912 41.5185 27.4919 41.552 27.2924C41.5819 27.1145 41.6093 26.9367 41.6362 26.7587C41.6662 26.5599 41.695 26.3613 41.7213 26.1625C41.7447 25.9846 41.7662 25.8068 41.7867 25.629C41.8096 25.4301 41.831 25.2315 41.8501 25.0329C41.8672 24.8553 41.8827 24.6781 41.8968 24.5008C41.9126 24.3025 41.9263 24.1046 41.9384 23.9067C41.949 23.7298 41.9585 23.5532 41.9663 23.3765C41.9749 23.179 41.9811 22.9819 41.986 22.785C41.9903 22.6092 41.9938 22.4336 41.9951 22.2583C41.9957 22.1772 41.9994 22.0956 41.9993 22.0147C41.9993 21.9062 41.9942 21.7988 41.9931 21.6905C41.9909 21.4968 41.9877 21.3034 41.9817 21.1104C41.9761 20.9255 41.968 20.7413 41.9589 20.5571C41.9494 20.3652 41.9388 20.174 41.9257 19.9832C41.9201 19.902 41.9178 19.8199 41.9116 19.7389C41.9009 19.6014 41.8861 19.4652 41.8735 19.3284C41.864 19.2252 41.8554 19.1218 41.8449 19.0191C41.8109 18.6899 41.7729 18.3622 41.7278 18.0372C41.7271 18.0322 41.7266 18.0273 41.7259 18.0224C41.7258 18.0219 41.7257 18.0212 41.7257 18.0208C41.6808 17.6992 41.6283 17.3806 41.5723 17.0633C41.5582 16.984 41.5439 16.9048 41.5292 16.8258C41.5144 16.7464 41.5013 16.6662 41.4859 16.587C41.4681 16.4958 41.4447 16.4074 41.426 16.3167C41.3733 16.0619 41.3175 15.8087 41.2574 15.5573C41.2391 15.4804 41.225 15.4015 41.2059 15.325C41.1871 15.2492 41.1639 15.1758 41.1445 15.1004C41.0923 14.8992 41.0372 14.6998 40.9803 14.5011C40.9532 14.4063 40.9302 14.3092 40.902 14.2149C40.8824 14.1499 40.8593 14.0869 40.8393 14.0222C40.7851 13.8467 40.7278 13.6734 40.6698 13.5001C40.6354 13.3979 40.6051 13.2934 40.5695 13.1918C40.5477 13.1295 40.5224 13.0694 40.5001 13.0074C40.4428 12.8488 40.3827 12.6921 40.3223 12.5355C40.283 12.4338 40.2475 12.3298 40.2068 12.2291C40.1798 12.1623 40.1495 12.0979 40.1219 12.0316C40.0654 11.8954 40.0069 11.7609 39.9478 11.6265C39.9072 11.5344 39.8701 11.4402 39.8284 11.3488C39.7924 11.27 39.7523 11.1939 39.7154 11.1157C39.6538 10.9855 39.5913 10.8561 39.5272 10.7277C39.4901 10.653 39.4559 10.5762 39.4179 10.5022C39.3691 10.4072 39.3158 10.3157 39.2656 10.2218C39.2025 10.1038 39.1396 9.98591 39.0744 9.86973C39.0434 9.81457 39.0151 9.75745 38.9837 9.70268C38.917 9.58666 38.8454 9.47493 38.7766 9.36077C38.712 9.25348 38.6487 9.14541 38.5822 9.03975C38.56 9.00461 38.5398 8.96784 38.5174 8.93285C38.4236 8.78605 38.3239 8.64432 38.2264 8.50072C38.1684 8.41548 38.1128 8.32821 38.0535 8.24414C38.0419 8.2277 38.0314 8.21032 38.0198 8.19396C37.858 7.96605 37.69 7.74328 37.5183 7.52418C37.5064 7.50898 37.4956 7.49301 37.4837 7.47797C37.4829 7.47696 37.4821 7.47587 37.4813 7.47486C37.2949 7.23877 37.1026 7.0079 36.9047 6.78256C36.8847 6.75988 36.8647 6.73721 36.8446 6.71461C36.6928 6.54514 36.538 6.38214 36.3819 6.22218C36.3627 6.20246 36.3444 6.18111 36.3251 6.16163C36.307 6.14324 36.288 6.12704 36.2699 6.10881C36.0796 5.91759 35.8869 5.73223 35.6909 5.55458C35.6815 5.54616 35.6727 5.53666 35.6634 5.52824C35.6473 5.51383 35.6305 5.50128 35.6143 5.48687C35.394 5.28997 35.1706 5.10047 34.9435 4.92064C34.9375 4.91581 34.9318 4.91035 34.9257 4.90552C34.8763 4.86656 34.826 4.8301 34.7763 4.79184C34.702 4.73481 34.628 4.6773 34.553 4.62206C34.4919 4.57694 34.4301 4.53393 34.3686 4.48999C34.2947 4.43732 34.2209 4.38418 34.1462 4.33314C34.1322 4.32356 34.1185 4.31319 34.1045 4.30369C34.064 4.27626 34.0228 4.25117 33.9822 4.22421C33.8911 4.16382 33.8 4.10383 33.7081 4.04601C33.6493 4.00892 33.5901 3.97316 33.531 3.93724C33.4424 3.88324 33.3534 3.8301 33.264 3.77837C33.2349 3.76161 33.2062 3.7433 33.1771 3.72678C33.15 3.71136 33.1221 3.6978 33.0949 3.68261C32.9705 3.6131 32.8455 3.54617 32.7199 3.48119C32.6763 3.45867 32.633 3.43522 32.5892 3.41317C32.4225 3.32925 32.2548 3.24876 32.0858 3.17248C32.0794 3.1696 32.073 3.16625 32.0665 3.16336C32.0521 3.15682 32.0372 3.15175 32.0227 3.14521C31.8075 3.04945 31.5904 2.96015 31.3719 2.8767C31.3448 2.86642 31.318 2.85528 31.2909 2.84515C31.069 2.76209 30.8452 2.68658 30.6201 2.61607C30.5975 2.60906 30.5754 2.6001 30.5529 2.59324C30.4893 2.57368 30.4257 2.55467 30.362 2.53613L25.0367 0.990707C25.1231 1.01572 25.2088 1.04377 25.2948 1.07065C25.5199 1.14109 25.7437 1.21667 25.9657 1.29965C25.9928 1.30986 26.0196 1.32092 26.0467 1.33129C26.2652 1.41474 26.4823 1.50403 26.6974 1.59979C26.7184 1.60914 26.7396 1.61755 26.7605 1.62698C26.9295 1.70334 27.0972 1.78383 27.264 1.86775C27.3078 1.8898 27.3512 1.91325 27.3948 1.93585C27.5203 2.00068 27.6449 2.06753 27.769 2.1368C27.8259 2.16851 27.8827 2.20053 27.9394 2.23326C28.0285 2.28484 28.1172 2.33783 28.2055 2.39167C28.2648 2.42766 28.324 2.46343 28.3828 2.50052C28.4747 2.55841 28.566 2.61833 28.657 2.67871C28.7117 2.71502 28.7666 2.75048 28.8209 2.78772C28.8956 2.83868 28.9694 2.8919 29.0434 2.94457C29.1049 2.98844 29.1667 3.0316 29.2278 3.07664C29.3027 3.13188 29.3767 3.18931 29.451 3.24634C29.5068 3.2892 29.5629 3.33128 29.6183 3.37514C29.8455 3.55498 30.0687 3.74455 30.2891 3.94137C30.3145 3.96412 30.3403 3.98617 30.3657 4.00916C30.5617 4.18681 30.7545 4.37218 30.9447 4.56331C30.9821 4.60094 31.0195 4.63858 31.0567 4.67668C31.2127 4.83672 31.3675 4.99972 31.5194 5.16912C31.7395 5.4169 31.9525 5.67145 32.1585 5.93256C32.1704 5.94752 32.1811 5.96349 32.193 5.9786C32.3771 6.21353 32.5557 6.45359 32.7284 6.6988C32.7875 6.78264 32.843 6.86967 32.9008 6.95468C33.0217 7.13272 33.1419 7.31146 33.257 7.49441C33.3234 7.59991 33.3868 7.70799 33.4512 7.81512C33.5525 7.98327 33.6527 8.15227 33.7491 8.32424C33.8143 8.44049 33.8773 8.55838 33.9403 8.67627C34.0297 8.8434 34.1172 9.01186 34.2021 9.18234C34.266 9.3106 34.3285 9.43986 34.3899 9.56991C34.4697 9.73891 34.5471 9.90963 34.6228 10.0816C34.6817 10.2157 34.7402 10.3502 34.7967 10.486C34.8657 10.6525 34.9317 10.821 34.9971 10.99C35.0575 11.1466 35.1177 11.3033 35.1748 11.462C35.2336 11.6249 35.2892 11.7897 35.3445 11.9547C35.4025 12.1279 35.4599 12.3014 35.5141 12.4767C35.5631 12.6352 35.6092 12.7953 35.6551 12.9556C35.712 13.1543 35.7672 13.3538 35.8193 13.555C35.8585 13.7065 35.8958 13.859 35.9322 14.0118C35.9922 14.2632 36.048 14.5164 36.1007 14.7712C36.1357 14.9407 36.1722 15.1095 36.2039 15.2803C36.2187 15.3593 36.233 15.4386 36.247 15.5179C36.3031 15.8357 36.3556 16.1548 36.4006 16.4769C36.4013 16.4818 36.4018 16.4868 36.4025 16.4917C36.4477 16.8167 36.4857 17.1445 36.5196 17.4736C36.5302 17.5763 36.5388 17.6798 36.5483 17.7829C36.5682 18.0004 36.5854 18.2188 36.6005 18.4378C36.6136 18.6285 36.6242 18.8198 36.6337 19.0116C36.6428 19.1958 36.6508 19.38 36.6566 19.565C36.6624 19.7579 36.6656 19.9514 36.6678 20.1451C36.67 20.3341 36.6713 20.5232 36.6699 20.7128C36.6686 20.8881 36.6651 21.0638 36.6607 21.2396C36.6559 21.4364 36.6496 21.6336 36.641 21.8311C36.6333 22.0077 36.6238 22.1844 36.6131 22.3613C36.6011 22.5592 36.5873 22.7571 36.5716 22.9553C36.5575 23.1325 36.5419 23.3098 36.5248 23.4874C36.5057 23.686 36.4844 23.8847 36.4615 24.0835C36.441 24.2614 36.4195 24.4392 36.396 24.617C36.3698 24.8158 36.341 25.0145 36.3109 25.2133C36.284 25.3912 36.2566 25.5691 36.2267 25.7469C36.1932 25.9464 36.1568 26.1458 36.1195 26.3451C36.0864 26.5217 36.0532 26.6984 36.0172 26.8748C35.9763 27.0748 35.9322 27.2744 35.8877 27.4741C35.8483 27.6499 35.8092 27.8256 35.767 28.0011C35.7188 28.2012 35.6669 28.4007 35.615 28.6002C35.5695 28.774 35.5249 28.9479 35.4767 29.1212C35.4199 29.3255 35.3588 29.5291 35.298 29.7327C35.2488 29.8974 35.2006 30.0623 35.1488 30.2264C35.0832 30.4338 35.0129 30.6401 34.9431 30.8464C34.8892 31.0058 34.837 31.1656 34.7806 31.3244C34.6649 31.6499 34.5448 31.9742 34.4185 32.2965C34.3944 32.3582 34.3685 32.4194 34.344 32.481C34.2482 32.7213 34.148 32.9602 34.0463 33.1987C33.914 33.5086 33.7754 33.8162 33.6332 34.1225C33.583 34.2304 33.5357 34.3395 33.4843 34.4469C33.3132 34.8047 33.1351 35.1595 32.9503 35.5112C32.9362 35.5382 32.9234 35.5659 32.909 35.5928C32.7195 35.951 32.5229 36.3058 32.3191 36.6569C32.1208 36.9985 31.9159 37.3368 31.7041 37.6711C31.6754 37.7166 31.6443 37.7605 31.6152 37.8058C31.4267 38.1003 31.2351 38.393 31.0358 38.6812C30.8565 38.9405 30.6741 39.1938 30.4898 39.443C30.4377 39.5133 30.3844 39.5812 30.332 39.6508C30.1881 39.8416 30.0432 40.0303 29.8964 40.2151C29.8255 40.3043 29.754 40.3919 29.6826 40.4795C29.5536 40.6377 29.4239 40.7938 29.293 40.9473C29.2186 41.0345 29.1441 41.1216 29.069 41.2074C28.9313 41.3647 28.7923 41.5187 28.6526 41.671C28.5853 41.7442 28.5185 41.8188 28.4508 41.891C28.2563 42.0981 28.0602 42.3008 27.8621 42.4981C27.8487 42.5115 27.8355 42.5257 27.822 42.539C27.6077 42.7514 27.3909 42.9569 27.1726 43.1579C27.1063 43.2189 27.0393 43.2775 26.9726 43.3375C26.8149 43.4794 26.6565 43.6191 26.4968 43.7551C26.4204 43.8203 26.3435 43.8844 26.2666 43.9483C26.093 44.0922 25.9185 44.2324 25.743 44.3694C25.6786 44.4197 25.6145 44.4712 25.5499 44.5206C25.309 44.7044 25.0666 44.8823 24.8224 45.0528C24.7821 45.081 24.7414 45.1071 24.701 45.1349C24.4736 45.2914 24.2448 45.4416 24.0149 45.5867C23.9468 45.6297 23.8786 45.6726 23.8103 45.7145C23.5268 45.8886 23.242 46.0559 22.9555 46.2125C22.9196 46.2321 22.8835 46.2499 22.8475 46.2693C22.5368 46.4366 22.2244 46.5937 21.9108 46.7404C21.8715 46.7589 21.8323 46.7789 21.7928 46.7969C21.6859 46.8461 21.5784 46.8914 21.4712 46.9382C21.3665 46.9837 21.2619 47.0307 21.157 47.074C21.0495 47.1183 20.9416 47.1589 20.8338 47.2009C20.7307 47.241 20.6278 47.2824 20.5247 47.3204C20.2738 47.4125 20.0226 47.4977 19.771 47.5766C19.7082 47.5964 19.6454 47.6135 19.5826 47.6324C19.3899 47.6904 19.1969 47.7449 19.0039 47.7951C18.9262 47.8153 18.8484 47.8347 18.7707 47.8537C18.526 47.9133 18.2813 47.9677 18.0365 48.0149C18.0044 48.0212 17.9722 48.0289 17.9401 48.0349C17.6673 48.0856 17.3947 48.1267 17.1224 48.1619C17.0515 48.171 16.9807 48.1786 16.9098 48.1867C16.6852 48.2123 16.4609 48.2327 16.2369 48.2476C16.1799 48.2514 16.1228 48.2567 16.0659 48.2598C15.7961 48.2746 15.527 48.2812 15.2588 48.2802C15.197 48.2799 15.1356 48.2776 15.0739 48.2765C14.8545 48.2727 14.6356 48.2636 14.4175 48.2494C14.3497 48.2449 14.2818 48.2412 14.214 48.2358C13.9478 48.2142 13.6826 48.186 13.4187 48.1486C13.3764 48.1426 13.3344 48.1344 13.2921 48.1279C13.0648 48.0934 12.8386 48.0523 12.6134 48.0059C12.5428 47.9913 12.4722 47.9766 12.4017 47.9609C12.1393 47.9021 11.878 47.8382 11.6191 47.763L16.9443 49.3085C17.2033 49.3836 17.4647 49.4476 17.7271 49.5063C17.7975 49.5221 17.8679 49.5367 17.9384 49.5513C18.1639 49.5978 18.3903 49.639 18.6179 49.6735C18.6599 49.6799 18.7017 49.6881 18.7438 49.6941C19.0077 49.7315 19.2731 49.7596 19.5393 49.7812C19.607 49.7867 19.6748 49.7904 19.7426 49.7948C19.961 49.8091 20.1799 49.8182 20.3996 49.822C20.461 49.823 20.5222 49.8254 20.5836 49.8257C20.8521 49.8267 21.1213 49.8201 21.3912 49.8053C21.4481 49.8022 21.5052 49.7969 21.5621 49.7931C21.7861 49.7782 22.0104 49.7578 22.2351 49.7322C22.3059 49.724 22.3767 49.7165 22.4476 49.7073C22.7199 49.6722 22.9925 49.6311 23.2653 49.5804C23.2975 49.5744 23.3296 49.5666 23.3618 49.5604C23.6065 49.5132 23.8512 49.4588 24.0959 49.3991C24.1339 49.3899 24.1719 49.3836 24.2098 49.374C24.2497 49.3641 24.2894 49.3509 24.3291 49.3406C24.5221 49.2904 24.7151 49.2358 24.9078 49.1779C24.9706 49.159 25.0335 49.1419 25.0962 49.1221C25.3477 49.0432 25.5989 48.958 25.8496 48.8659C25.8617 48.8615 25.8738 48.8581 25.8859 48.8536C25.9774 48.8197 26.0687 48.7816 26.1601 48.746C26.2676 48.7041 26.3751 48.6637 26.4823 48.6195C26.5869 48.5763 26.6911 48.5294 26.7955 48.4839C26.9031 48.4372 27.011 48.3916 27.1184 48.3423C27.1327 48.3357 27.1473 48.33 27.1616 48.3233C27.1865 48.3118 27.2109 48.2976 27.2357 48.286C27.5495 48.1393 27.8619 47.9822 28.1727 47.8148C28.1978 47.8014 28.2232 47.7905 28.2483 47.7768C28.2591 47.7709 28.2698 47.7639 28.2807 47.758C28.5672 47.6013 28.8521 47.4341 29.1356 47.2599C29.1654 47.2417 29.1958 47.2261 29.2256 47.2076C29.264 47.1837 29.3016 47.1564 29.3399 47.1323C29.57 46.987 29.7989 46.8369 30.0264 46.6803C30.0569 46.6592 30.088 46.6409 30.1185 46.6197C30.1282 46.6129 30.1378 46.6052 30.1476 46.5983C30.3918 46.4277 30.6342 46.2499 30.8751 46.0661C30.8939 46.0518 30.913 46.039 30.9317 46.0247C30.9776 45.9894 31.0226 45.9505 31.0684 45.9147C31.2438 45.7778 31.4182 45.6378 31.5917 45.4938C31.6317 45.4607 31.6725 45.4304 31.7124 45.3968C31.7492 45.3658 31.7853 45.3318 31.8222 45.3005C31.9821 45.1642 32.1409 45.0242 32.2989 44.8819C32.3471 44.8385 32.3963 44.7983 32.4443 44.7542C32.4622 44.7379 32.4795 44.7202 32.4973 44.7038C32.7158 44.5027 32.9328 44.2971 33.1473 44.0845C33.1486 44.0831 33.15 44.0819 33.1514 44.0806C33.1635 44.0686 33.1752 44.0555 33.1873 44.0435C33.3854 43.8463 33.5815 43.6435 33.776 43.4365C33.7945 43.4168 33.8135 43.3985 33.8321 43.3788C33.8812 43.326 33.9289 43.2697 33.9779 43.2164C34.1176 43.0641 34.2565 42.9102 34.3943 42.7528C34.4276 42.7147 34.4619 42.6789 34.4951 42.6405C34.5367 42.5924 34.5769 42.5412 34.6182 42.4928C34.7491 42.3392 34.8789 42.1832 35.0078 42.025C35.0519 41.9709 35.0971 41.9197 35.141 41.865C35.1682 41.8312 35.1944 41.7948 35.2216 41.7606C35.3687 41.5754 35.5141 41.3862 35.6584 41.1947C35.6993 41.1404 35.7416 41.0891 35.7822 41.0343Z" fill="url(#paint0_linear_1158_4804)"/>
<path fill-rule="evenodd" clip-rule="evenodd" d="M31.121 6.96417C37.459 14.1693 37.1064 27.8582 30.3765 37.5912C23.6617 47.2991 13.133 49.4019 6.8331 42.3074C0.491148 35.1014 0.843647 21.4125 7.57495 11.6809C14.2892 1.97035 24.8195 -0.131013 31.121 6.96417Z" fill="black"/>
<path fill-rule="evenodd" clip-rule="evenodd" d="M12.4731 45.9509C12.4029 45.9262 12.3318 45.9049 12.2619 45.8789C12.0073 45.7839 11.7549 45.6806 11.5053 45.5678C11.4821 45.5573 11.4592 45.5454 11.436 45.5347C11.2214 45.4361 11.009 45.3294 10.7983 45.2174C10.7433 45.1882 10.6883 45.1591 10.6336 45.1289C10.4134 45.0076 10.1954 44.8796 9.9802 44.7434C9.94459 44.7209 9.90937 44.6973 9.87399 44.6744C9.65123 44.5303 9.43088 44.3798 9.21411 44.2195C9.19362 44.2045 9.17344 44.1884 9.1531 44.1732C8.98909 44.0505 8.82873 43.9188 8.66838 43.7868C8.55875 43.6965 8.44935 43.6055 8.34151 43.5109C8.21092 43.3965 8.0822 43.2775 7.95434 43.1567C7.86606 43.0732 7.77739 42.9907 7.69043 42.904C7.49275 42.7075 7.29695 42.5063 7.10644 42.2936C6.94858 42.1175 6.79796 41.9343 6.64797 41.7506C6.59997 41.6917 6.54948 41.6352 6.50219 41.5756C6.32267 41.349 6.14899 41.1171 5.98115 40.8799C5.94258 40.8254 5.9069 40.7683 5.86887 40.7132C5.74241 40.5297 5.61774 40.3446 5.49814 40.1553C5.44118 40.0651 5.38742 39.9723 5.33202 39.8809C5.23564 39.7218 5.14011 39.5622 5.04848 39.3992C4.99035 39.2959 4.93456 39.1908 4.87831 39.086C4.79525 38.931 4.71351 38.7751 4.6345 38.6171C4.57669 38.5012 4.52043 38.3843 4.46472 38.2668C4.39124 38.1117 4.31964 37.9552 4.25013 37.7973C4.19637 37.6754 4.14347 37.553 4.09204 37.4295C4.02823 37.2763 3.96714 37.1214 3.90699 36.9659C3.85213 36.8243 3.79798 36.6826 3.74616 36.5392C3.6917 36.3885 3.63996 36.2362 3.58885 36.0836C3.53649 35.9276 3.48491 35.7712 3.43605 35.6132C3.39055 35.4664 3.34761 35.3182 3.30507 35.1698C3.2538 34.9905 3.20401 34.8104 3.15703 34.629C3.1208 34.4894 3.08628 34.3491 3.0527 34.2081C2.99823 33.9803 2.94774 33.7506 2.89998 33.5196C2.87364 33.3923 2.84668 33.2653 2.82237 33.1372C2.7503 32.7571 2.68446 32.3743 2.62999 31.9869C2.62867 31.9777 2.62688 31.9686 2.62555 31.9594C2.62423 31.9493 2.62321 31.939 2.62181 31.929C2.58153 31.6372 2.54732 31.343 2.51709 31.0476C2.50735 30.9533 2.4994 30.8585 2.49075 30.7639C2.47252 30.5656 2.45709 30.3662 2.44338 30.1665C2.43161 29.9936 2.42188 29.8201 2.41338 29.6463C2.40505 29.4763 2.3978 29.3062 2.39266 29.1355C2.38751 28.9609 2.3844 28.7858 2.38253 28.6104C2.38066 28.4353 2.37964 28.2599 2.38112 28.084C2.38237 27.9256 2.38541 27.7669 2.38938 27.608C2.39398 27.4258 2.40014 27.2433 2.40824 27.0607C2.41533 26.9011 2.42375 26.7414 2.43356 26.5815C2.44478 26.3984 2.45795 26.2152 2.47268 26.0317C2.48561 25.8714 2.4994 25.7111 2.51499 25.5505C2.53283 25.3665 2.55309 25.1825 2.57452 24.9983C2.59314 24.8379 2.61231 24.6775 2.63366 24.517C2.6582 24.3322 2.68555 24.1475 2.7136 23.9627C2.73799 23.8027 2.76245 23.6426 2.78941 23.4828C2.82081 23.297 2.85533 23.1113 2.89032 22.9257C2.92016 22.7668 2.94985 22.6078 2.98241 22.449C3.02067 22.2625 3.06251 22.0764 3.10436 21.8902C3.13981 21.7328 3.1744 21.5753 3.21243 21.4182C3.25778 21.2303 3.30725 21.0431 3.35634 20.8558C3.39701 20.701 3.43636 20.5461 3.47945 20.3918C3.53384 20.1971 3.59274 20.0031 3.6511 19.8091C3.69435 19.6656 3.7358 19.5218 3.78115 19.3788C3.84559 19.1759 3.91509 18.9741 3.98397 18.7722C4.02939 18.6389 4.07248 18.5051 4.11986 18.3724C4.2273 18.0711 4.3399 17.7714 4.45724 17.4731C4.48622 17.3993 4.51677 17.3263 4.5463 17.2529C4.62585 17.0551 4.70891 16.8587 4.79291 16.6624C4.90823 16.3929 5.02869 16.1253 5.15227 15.8588C5.20642 15.742 5.25854 15.6245 5.31426 15.5083C5.43744 15.2516 5.56679 14.9976 5.69769 14.7442C5.74779 14.6474 5.79477 14.5492 5.84597 14.4528C5.94609 14.2642 6.05245 14.0786 6.15693 13.8921C6.23439 13.7537 6.3088 13.6139 6.38866 13.4768C6.46557 13.3447 6.54761 13.2152 6.6267 13.0843C6.73617 12.903 6.84401 12.7209 6.95777 12.542C7.02837 12.4308 7.10324 12.3222 7.17555 12.2119C7.31417 12.0004 7.45169 11.7883 7.59631 11.5805C7.75393 11.3539 7.91367 11.132 8.07558 10.9139C8.09903 10.8822 8.12334 10.8521 8.14695 10.8206C8.30333 10.6117 8.46158 10.4065 8.6217 10.2054C8.68396 10.1272 8.74731 10.051 8.81011 9.97403C8.9315 9.82513 9.05352 9.67794 9.17687 9.53356C9.24613 9.45252 9.31579 9.37242 9.38561 9.29279C9.50848 9.15262 9.63237 9.01502 9.75712 8.87921C9.82506 8.80518 9.89285 8.73069 9.96134 8.658C10.1049 8.50551 10.25 8.35685 10.3957 8.21005C10.4459 8.15948 10.4955 8.10728 10.546 8.05741C10.744 7.8616 10.944 7.67109 11.1458 7.4858C11.1917 7.44357 11.2385 7.40368 11.2846 7.36199C11.4453 7.21699 11.6068 7.07471 11.7696 6.93633C11.838 6.8782 11.9067 6.82163 11.9755 6.7646C12.1327 6.6344 12.2908 6.50724 12.4498 6.38327C12.5159 6.33169 12.5818 6.27948 12.6481 6.22907C12.8719 6.05874 13.0968 5.89286 13.3236 5.73476C13.3319 5.729 13.3404 5.7237 13.3487 5.71785C13.5865 5.55275 13.8264 5.39644 14.0673 5.24482C14.13 5.20523 14.1928 5.16635 14.2558 5.12778C14.5214 4.96486 14.7881 4.8077 15.0567 4.66129C15.0727 4.65256 15.0889 4.64469 15.1051 4.63597C15.3994 4.4767 15.6955 4.32889 15.9928 4.18942C16.0427 4.16605 16.0922 4.14127 16.1421 4.11844C16.2416 4.07293 16.3414 4.03039 16.4412 3.98715C16.5383 3.94507 16.6352 3.90214 16.7325 3.86209C16.8324 3.82103 16.9327 3.78292 17.033 3.74404C17.1272 3.7075 17.2214 3.67018 17.3158 3.63566C17.5492 3.55011 17.7831 3.47016 18.0173 3.39684C18.0631 3.38258 18.1089 3.37051 18.1546 3.35664C18.3457 3.29882 18.5371 3.24483 18.7286 3.19519C18.7989 3.17688 18.8692 3.15982 18.9394 3.14268C19.158 3.08938 19.3767 3.04107 19.5952 2.99853C19.6365 2.9905 19.6779 2.98092 19.7191 2.9732C19.9724 2.92614 20.2255 2.88765 20.4783 2.85508C20.5415 2.84706 20.6046 2.84051 20.6678 2.83334C20.876 2.8095 21.0838 2.79057 21.2914 2.77662C21.3478 2.77288 21.4043 2.76781 21.4607 2.76477C21.7118 2.75114 21.9622 2.74467 22.2119 2.74569C22.2658 2.74592 22.3194 2.74818 22.3732 2.74911C22.5798 2.75246 22.7859 2.76103 22.9912 2.77451C23.0548 2.77872 23.1183 2.78223 23.1817 2.78737C23.4296 2.80747 23.6769 2.8335 23.9225 2.86841C23.9584 2.87355 23.9939 2.88048 24.0298 2.88594C24.2445 2.91843 24.458 2.95723 24.6706 3.00102C24.736 3.01458 24.8014 3.02829 24.8666 3.04279C25.1107 3.09748 25.3539 3.15686 25.5947 3.22683L24.6123 2.94173C24.3715 2.87183 24.1284 2.81238 23.8842 2.75776C23.819 2.74319 23.7536 2.72948 23.6882 2.716C23.4755 2.67213 23.2619 2.63333 23.0471 2.60084C23.0115 2.59538 22.9761 2.58837 22.9403 2.58338C22.6946 2.5484 22.4474 2.52237 22.1993 2.50227C22.136 2.49721 22.0724 2.49362 22.0089 2.48941C21.8034 2.47593 21.5973 2.46744 21.3905 2.46401C21.3369 2.46308 21.2834 2.46082 21.2297 2.46058C20.98 2.45965 20.7295 2.46604 20.4784 2.47967C20.422 2.48271 20.3654 2.48778 20.309 2.49152C20.1015 2.50547 19.8937 2.5244 19.6856 2.54824C19.6223 2.55541 19.5592 2.56196 19.496 2.57006C19.243 2.60255 18.9899 2.64112 18.7366 2.68818C18.6954 2.69574 18.6545 2.70525 18.6134 2.71327C18.3948 2.75589 18.176 2.8042 17.9573 2.85757C17.92 2.86661 17.8827 2.87277 17.8454 2.88212C17.8122 2.89046 17.7793 2.90144 17.7462 2.91001C17.5546 2.95972 17.3634 3.01372 17.1721 3.07161C17.1264 3.08533 17.0807 3.09756 17.035 3.11174C16.8006 3.18514 16.5665 3.26516 16.3328 3.35079C16.3161 3.35687 16.2992 3.36162 16.2826 3.36786C16.2055 3.39638 16.1289 3.42863 16.0521 3.4584C15.9513 3.49743 15.8506 3.53577 15.7501 3.57707C15.6528 3.61704 15.5559 3.65989 15.4588 3.70197C15.3591 3.74529 15.2592 3.78783 15.1596 3.83342C15.1384 3.84308 15.1171 3.85157 15.0958 3.86139C15.0673 3.87456 15.0392 3.89084 15.0106 3.90424C14.7131 4.04387 14.4165 4.19184 14.1218 4.35133C14.1101 4.35765 14.0981 4.36279 14.0865 4.36918C14.0825 4.37128 14.0786 4.37377 14.0747 4.37603C13.806 4.52252 13.5392 4.67976 13.2734 4.84268C13.2422 4.86185 13.2105 4.87813 13.1793 4.89754C13.1476 4.91725 13.1165 4.93977 13.0849 4.95971C12.8441 5.11134 12.6042 5.26765 12.3664 5.43283C12.3596 5.43758 12.3526 5.44171 12.3457 5.44647C12.3442 5.44748 12.3427 5.44857 12.3413 5.44966C12.1144 5.6076 11.8896 5.77364 11.6659 5.94389C11.6416 5.96228 11.617 5.9788 11.5929 5.99727C11.5506 6.02968 11.5094 6.06537 11.4674 6.09817C11.3083 6.22237 11.1501 6.34945 10.9929 6.47981C10.9521 6.51363 10.9103 6.54472 10.8695 6.57892C10.842 6.60214 10.8151 6.62754 10.7875 6.65092C10.625 6.78914 10.4637 6.93126 10.3032 7.07611C10.2655 7.11016 10.227 7.14164 10.1893 7.176C10.1805 7.18411 10.172 7.19291 10.1631 7.20109C9.96142 7.3863 9.76148 7.57666 9.56349 7.77239C9.55414 7.78158 9.54456 7.79007 9.53521 7.79934C9.49422 7.84002 9.45441 7.88373 9.4135 7.92487C9.26772 8.07159 9.12264 8.22033 8.97896 8.3729C8.95433 8.39908 8.92901 8.42339 8.90439 8.44972C8.8606 8.49671 8.81813 8.54689 8.7745 8.59434C8.65014 8.72984 8.52649 8.86713 8.40377 9.00699C8.36668 9.04938 8.3285 9.08935 8.29141 9.1322C8.25853 9.17015 8.22674 9.21082 8.19401 9.24916C8.0709 9.39315 7.94904 9.5401 7.82796 9.68861C7.78378 9.74277 7.73851 9.79404 7.69464 9.84866C7.67602 9.87203 7.65802 9.89689 7.6394 9.92034C7.4792 10.1214 7.32102 10.3265 7.16464 10.5354C7.14415 10.5627 7.12288 10.5883 7.10247 10.6158C7.09935 10.6201 7.09631 10.6246 7.09319 10.6288C6.93136 10.8469 6.77147 11.0689 6.614 11.2954C6.58361 11.339 6.55338 11.3826 6.52338 11.4263C6.40931 11.5924 6.30124 11.7619 6.19098 11.9301C6.11953 12.0391 6.04551 12.1465 5.97562 12.2564C5.96713 12.2699 5.95786 12.283 5.94921 12.2965C5.84316 12.4641 5.74343 12.6351 5.64096 12.8048C5.56305 12.9338 5.48232 13.0612 5.40659 13.1913C5.40082 13.2011 5.39451 13.2106 5.38882 13.2205C5.31371 13.35 5.24444 13.4823 5.17135 13.6128C5.06811 13.7972 4.96285 13.9807 4.86389 14.1672C4.85688 14.1804 4.84909 14.1932 4.84215 14.2064C4.79766 14.2905 4.75785 14.3768 4.71429 14.4613C4.58378 14.714 4.45475 14.9672 4.33195 15.2233C4.31644 15.2555 4.29914 15.287 4.28364 15.3193C4.24382 15.4032 4.20907 15.4893 4.16996 15.5737C4.04646 15.8402 3.92592 16.1078 3.81052 16.3774C3.78403 16.4393 3.75403 16.4999 3.72801 16.562C3.67136 16.6968 3.61822 16.8327 3.56368 16.9682C3.53423 17.0414 3.50392 17.1142 3.47509 17.1876C3.36546 17.4661 3.25902 17.7457 3.15804 18.0267C3.15087 18.0468 3.14472 18.0671 3.13755 18.0871C3.0901 18.2202 3.04685 18.3541 3.00135 18.4877C2.93263 18.6894 2.8632 18.8909 2.79884 19.0937C2.75341 19.2368 2.71196 19.3806 2.66872 19.5242C2.62228 19.6784 2.57288 19.8319 2.52901 19.9864C2.51764 20.0263 2.50836 20.0666 2.49722 20.1066C2.45406 20.2612 2.41455 20.4162 2.37396 20.5712C2.32487 20.7584 2.27547 20.9454 2.23012 21.133C2.1921 21.2903 2.15734 21.4478 2.12197 21.6053C2.08013 21.7914 2.03829 21.9773 2.00011 22.1637C1.96746 22.3227 1.93785 22.4819 1.90785 22.6411C1.87295 22.8266 1.83843 23.012 1.80703 23.1975C1.78007 23.3576 1.7556 23.5175 1.73129 23.6776C1.70316 23.8625 1.67589 24.0471 1.65127 24.2319C1.62992 24.3924 1.61083 24.5527 1.59221 24.7132C1.57078 24.8974 1.55044 25.0814 1.53268 25.2654C1.5171 25.426 1.50323 25.5864 1.49037 25.7467C1.47557 25.9301 1.4624 26.113 1.45126 26.296C1.44144 26.4563 1.43302 26.6161 1.42593 26.7759C1.41775 26.9585 1.4116 27.1408 1.40708 27.3228C1.4031 27.4818 1.40006 27.6405 1.39874 27.799C1.39804 27.8783 1.39453 27.9581 1.39453 28.0373C1.39461 28.1336 1.39913 28.229 1.40014 28.3251C1.40209 28.5006 1.40505 28.6757 1.41035 28.8503C1.41549 29.0212 1.42274 29.1915 1.431 29.3616C1.43957 29.5352 1.44931 29.7085 1.46107 29.8814C1.46637 29.9586 1.46855 30.0367 1.47455 30.1138C1.48406 30.236 1.49723 30.357 1.50837 30.4788C1.5171 30.5734 1.52497 30.6682 1.53471 30.7625C1.56502 31.0579 1.59914 31.3521 1.6395 31.6439C1.64091 31.654 1.64184 31.6642 1.64324 31.6742C1.64348 31.6758 1.64363 31.6774 1.64387 31.6788C1.64488 31.6866 1.64659 31.694 1.64761 31.7018C1.70215 32.0892 1.76783 32.472 1.83999 32.8521C1.84832 32.8958 1.85362 32.9407 1.86211 32.9844C1.87856 33.0687 1.90029 33.1507 1.91759 33.2346C1.96543 33.4656 2.01585 33.695 2.07023 33.9226C2.08691 33.9924 2.09969 34.0641 2.11698 34.1335C2.13467 34.2045 2.15641 34.2736 2.17472 34.3442C2.2217 34.5256 2.27142 34.7055 2.32269 34.8845C2.34715 34.97 2.36788 35.0575 2.39336 35.1425C2.41214 35.2052 2.43434 35.2658 2.45359 35.3282C2.5026 35.4861 2.5541 35.6425 2.60646 35.7985C2.63708 35.8898 2.66404 35.9831 2.69583 36.0736C2.71726 36.1347 2.74188 36.1935 2.76393 36.2543C2.81559 36.3974 2.86959 36.5387 2.92421 36.6799C2.95881 36.769 2.98989 36.8604 3.02558 36.9487C3.05238 37.015 3.08246 37.0792 3.10989 37.145C3.16124 37.2682 3.21406 37.3903 3.26767 37.5119C3.30234 37.5906 3.33406 37.6712 3.36967 37.7492C3.40566 37.8279 3.44556 37.9039 3.48249 37.982C3.53797 38.0992 3.59415 38.2158 3.65188 38.3314C3.68297 38.3935 3.71133 38.4575 3.74297 38.5192C3.79213 38.6149 3.84566 38.7071 3.89639 38.8016C3.95249 38.9062 4.00804 39.011 4.06609 39.1141C4.0904 39.1574 4.11269 39.2023 4.13747 39.2453C4.20564 39.3642 4.27889 39.4789 4.34964 39.5957C4.40503 39.6872 4.45888 39.78 4.51583 39.8702C4.53134 39.8947 4.54544 39.9204 4.5611 39.945C4.66598 40.1091 4.77647 40.2684 4.88657 40.4281C4.92451 40.4832 4.9602 40.5403 4.99877 40.5948C5.00375 40.6019 5.00827 40.6092 5.01326 40.6162C5.17096 40.8385 5.33397 41.0562 5.50211 41.2692C5.5078 41.2765 5.51411 41.2833 5.51988 41.2904C5.5671 41.3501 5.61759 41.4067 5.66566 41.4655C5.78457 41.6112 5.90261 41.7577 6.02658 41.8987C6.05891 41.9355 6.09141 41.9721 6.12413 42.0085C6.28153 42.1842 6.44141 42.3543 6.60371 42.5191C6.63792 42.5539 6.67384 42.585 6.70836 42.6193C6.79516 42.7057 6.88359 42.788 6.9718 42.8713C7.05299 42.9482 7.13239 43.0297 7.21482 43.104C7.26212 43.1467 7.3116 43.1841 7.3592 43.2259C7.46704 43.3204 7.57605 43.4113 7.68568 43.5014C7.75651 43.5598 7.82539 43.6233 7.89699 43.6799C7.98753 43.7513 8.07916 43.8196 8.17087 43.8881C8.19121 43.9034 8.21131 43.9194 8.23165 43.9344C8.37229 44.0384 8.51387 44.1397 8.65684 44.2367C8.73468 44.2895 8.81354 44.3388 8.89192 44.3895C8.92714 44.4124 8.96213 44.4358 8.99758 44.4582C9.16892 44.5666 9.34135 44.672 9.51589 44.7711C9.56061 44.7965 9.60627 44.819 9.65123 44.8438C9.70593 44.874 9.76094 44.9031 9.81595 44.9323C10.0269 45.0445 10.2396 45.1513 10.4546 45.2501C10.4774 45.2606 10.4998 45.2723 10.5227 45.2826C10.5305 45.2861 10.5382 45.2902 10.546 45.2937C10.788 45.4025 11.0329 45.5017 11.2796 45.5938C11.3494 45.6198 11.4205 45.6411 11.4907 45.6658C11.644 45.7198 11.797 45.7757 11.952 45.8232C12.0109 45.8414 12.0699 45.859 12.1292 45.8762L13.1115 46.1612C12.8967 46.0989 12.6848 46.0253 12.4731 45.9509Z" fill="url(#paint1_linear_1158_4804)"/>
<path fill-rule="evenodd" clip-rule="evenodd" d="M14.478 12.6141C14.3936 12.5885 14.306 12.5722 14.216 12.566C14.1482 12.5613 14.0791 12.5622 14.0088 12.5691L13.2833 12.6397C13.2362 12.6442 13.1894 12.652 13.1428 12.6616C13.1347 12.6633 13.1268 12.6647 13.1189 12.6665C13.0744 12.6764 13.0302 12.6885 12.9863 12.7028C12.9777 12.7056 12.9694 12.7085 12.9608 12.7115C12.9162 12.7269 12.8719 12.7439 12.8281 12.7636C12.8244 12.7653 12.8209 12.7672 12.8172 12.7689C12.775 12.7882 12.7332 12.8099 12.6919 12.8331C12.6857 12.8367 12.6793 12.8399 12.6731 12.8436C12.6409 12.8622 12.6089 12.8817 12.5775 12.9026C12.571 12.9067 12.5651 12.912 12.5587 12.9163C12.531 12.9352 12.5039 12.9557 12.4768 12.9763C12.4616 12.9879 12.4456 12.9982 12.4305 13.0103C12.425 13.0147 12.42 13.0196 12.4146 13.024C12.3998 13.0361 12.3853 13.0492 12.3706 13.0619C12.3531 13.0771 12.3353 13.0914 12.3181 13.1074C12.3082 13.1165 12.2986 13.1265 12.2889 13.1359C12.2772 13.1472 12.2655 13.1586 12.2539 13.1702C12.2439 13.1802 12.2335 13.1895 12.2237 13.1999C12.2013 13.2231 12.1795 13.2474 12.1579 13.2717C12.1537 13.2765 12.1493 13.2808 12.1452 13.2855C12.1439 13.2871 12.1424 13.2885 12.141 13.2901C12.1161 13.3188 12.0916 13.3483 12.0676 13.3784C12.0591 13.3892 12.051 13.4005 12.0426 13.4114C12.0359 13.4201 12.0293 13.4288 12.0227 13.4377C12.0154 13.4473 12.0079 13.4567 12.0009 13.4664C11.9797 13.4956 11.9591 13.5253 11.939 13.5555C11.9356 13.5604 11.9326 13.5656 11.9292 13.5706C11.9249 13.5774 11.9205 13.5844 11.9161 13.5912C11.9045 13.6093 11.8926 13.6272 11.8814 13.6457C11.863 13.6756 11.8452 13.7061 11.8279 13.737C11.8274 13.7378 11.827 13.7387 11.8266 13.7395C11.8255 13.7414 11.8246 13.7432 11.8235 13.745C11.8078 13.7733 11.7924 13.8019 11.7775 13.831C11.7653 13.8544 11.754 13.8785 11.7425 13.9024C11.7399 13.9076 11.7373 13.9129 11.7347 13.9181C11.7332 13.9213 11.7316 13.9244 11.7301 13.9276C11.7146 13.9607 11.6998 13.9942 11.6854 14.0281C11.6786 14.0444 11.6723 14.061 11.6657 14.0775C11.6618 14.0872 11.6579 14.0968 11.6541 14.1065C11.6505 14.1157 11.6467 14.1246 11.6432 14.1339C11.6292 14.1707 11.616 14.208 11.6035 14.2456C11.6009 14.2535 11.5986 14.2616 11.596 14.2694C11.5924 14.2806 11.5892 14.2918 11.5856 14.3029C11.5792 14.3236 11.5724 14.3442 11.5665 14.3651C11.5579 14.3946 11.5505 14.4246 11.5429 14.4545C11.5402 14.4649 11.5373 14.4749 11.5347 14.4853C11.5337 14.4897 11.5324 14.494 11.5313 14.4984C11.5193 14.5489 11.5085 14.5998 11.4989 14.6514C11.4974 14.6601 11.4957 14.6688 11.4943 14.6776L8.11102 33.9687C8.10159 34.022 8.09381 34.0749 8.08758 34.1274C8.0866 34.135 8.08627 34.1424 8.08537 34.1499C8.08365 34.1657 8.08242 34.1814 8.08094 34.1972C8.07676 34.241 8.07357 34.2845 8.07144 34.3277C8.0707 34.3448 8.06972 34.362 8.06923 34.379C8.0689 34.3902 8.06791 34.4016 8.06775 34.4127C8.06701 34.4562 8.06742 34.4993 8.06865 34.5421C8.06873 34.5433 8.06865 34.5446 8.06873 34.5459C8.07054 34.6011 8.07455 34.6553 8.07971 34.7088C8.08111 34.7239 8.08291 34.7385 8.08455 34.7534C8.08947 34.7955 8.09528 34.8369 8.10209 34.8777C8.10422 34.8899 8.10586 34.9022 8.10815 34.9143C8.10913 34.9197 8.10979 34.9254 8.11085 34.9308C8.11962 34.9768 8.12995 35.0218 8.14134 35.0661C8.1438 35.0757 8.14675 35.0849 8.14937 35.0943C8.15724 35.1235 8.16502 35.1526 8.17395 35.1809C8.17674 35.1895 8.18018 35.1974 8.18313 35.2059C8.19239 35.2338 8.20263 35.2608 8.21296 35.2879C8.21943 35.3049 8.22476 35.3228 8.23164 35.3394C8.23525 35.348 8.23943 35.356 8.24312 35.3645C8.25041 35.3814 8.25811 35.3977 8.26573 35.4142C8.27303 35.4298 8.27958 35.446 8.28728 35.4613C8.29466 35.476 8.30294 35.4899 8.31056 35.5042C8.31695 35.5163 8.32334 35.5282 8.32998 35.54C8.33408 35.5472 8.33785 35.555 8.34211 35.5623C8.35973 35.5923 8.37808 35.6215 8.39718 35.6498C8.39832 35.6515 8.39955 35.653 8.4007 35.6546C8.4034 35.6587 8.40644 35.6625 8.40914 35.6665C8.42364 35.6872 8.43815 35.7079 8.45331 35.7278C8.46339 35.7407 8.47388 35.7529 8.4842 35.7655C8.48945 35.7717 8.49445 35.7781 8.49977 35.7842C8.50354 35.7887 8.50707 35.7935 8.51092 35.7979C8.52985 35.8196 8.54927 35.8406 8.56934 35.8609C8.57508 35.8667 8.58106 35.8719 8.58688 35.8777C8.59245 35.883 8.59803 35.8883 8.6036 35.8936C8.61228 35.9017 8.62064 35.9103 8.62958 35.9182C8.6499 35.9364 8.67071 35.9539 8.69202 35.9707C8.69464 35.9728 8.69735 35.9745 8.69997 35.9766C8.70406 35.9798 8.70833 35.9827 8.71251 35.9858C8.72709 35.9969 8.74168 36.0081 8.75676 36.0184C8.77724 36.0325 8.79814 36.0457 8.81936 36.0586C8.82067 36.0593 8.82199 36.0602 8.82322 36.0611C8.82379 36.0614 8.82436 36.0618 8.82494 36.0621C8.84837 36.076 8.87222 36.0892 8.89656 36.1015C8.90975 36.1081 8.92335 36.1139 8.93679 36.1201C8.94359 36.1232 8.95023 36.1264 8.95712 36.1294C8.96252 36.1318 8.96777 36.1345 8.97318 36.1369C9.00055 36.1482 9.02849 36.1587 9.05684 36.1681C9.06578 36.171 9.07463 36.1738 9.08364 36.1766L10.6835 36.6631C10.6402 36.6499 10.5981 36.6338 10.557 36.6159C10.5502 36.6129 10.5434 36.6096 10.5366 36.6065C10.4979 36.5886 10.4598 36.5694 10.4232 36.5476C10.4218 36.5468 10.4205 36.5458 10.4192 36.5449C10.3824 36.5228 10.3468 36.4983 10.3123 36.4723C10.3082 36.4691 10.3039 36.4662 10.2999 36.4631C10.2665 36.4373 10.2346 36.4093 10.2035 36.3801C10.1979 36.3747 10.1923 36.3695 10.1867 36.364C10.1566 36.3345 10.1275 36.3035 10.0996 36.2708C10.0944 36.2645 10.0893 36.2581 10.0841 36.2518C10.058 36.2202 10.033 36.1873 10.0091 36.1529C10.0064 36.1489 10.0033 36.1451 10.0005 36.1411C9.97563 36.1044 9.95219 36.066 9.92982 36.0264C9.92318 36.0148 9.91687 36.0027 9.91048 35.9908C9.89475 35.9615 9.88 35.9313 9.86566 35.9007C9.85795 35.8842 9.85025 35.8679 9.84304 35.851C9.8323 35.8261 9.82255 35.8001 9.8128 35.7743C9.80248 35.7473 9.79215 35.7202 9.78297 35.6924C9.77084 35.6558 9.75954 35.6186 9.74921 35.5807C9.74667 35.5712 9.74372 35.5622 9.74126 35.5527C9.72856 35.5031 9.7175 35.4524 9.70799 35.4007C9.70586 35.3887 9.70406 35.3763 9.70201 35.3641C9.69521 35.3233 9.68931 35.2818 9.68455 35.2399C9.68275 35.2251 9.68103 35.2102 9.67956 35.1953C9.67448 35.1417 9.67038 35.0875 9.66866 35.0324C9.66858 35.0311 9.66866 35.0298 9.66858 35.0284C9.66694 34.9749 9.66751 34.9204 9.66907 34.8655C9.66964 34.8485 9.67054 34.8314 9.67136 34.8142C9.67341 34.771 9.67661 34.7274 9.68087 34.6834C9.68234 34.6677 9.68349 34.6522 9.68529 34.6364C9.69201 34.5765 9.70012 34.516 9.71086 34.4551L13.0941 15.164C13.1055 15.0991 13.1193 15.0351 13.1346 14.9718C13.1372 14.9615 13.1402 14.9512 13.1428 14.9408C13.1558 14.8898 13.1701 14.8393 13.1856 14.7895C13.1891 14.7783 13.1924 14.767 13.1959 14.7559C13.2138 14.7008 13.2332 14.6465 13.254 14.5929C13.2578 14.5832 13.2617 14.5736 13.2656 14.5639C13.2873 14.5099 13.3101 14.4566 13.3346 14.4047C13.3372 14.3993 13.3399 14.3941 13.3425 14.3886C13.3681 14.3351 13.395 14.2825 13.4234 14.2315C13.4245 14.2297 13.4253 14.2278 13.4264 14.226C13.4548 14.1752 13.485 14.1259 13.516 14.0778C13.5204 14.0708 13.5247 14.0637 13.5292 14.0569C13.5592 14.0113 13.5905 13.9671 13.6227 13.924C13.6292 13.9153 13.6359 13.9066 13.6425 13.898C13.6757 13.8547 13.7098 13.8124 13.7452 13.772C13.7492 13.7673 13.7535 13.763 13.7577 13.7583C13.7889 13.7231 13.8211 13.6893 13.8539 13.6566C13.8654 13.645 13.8771 13.6336 13.8888 13.6224C13.9156 13.5967 13.943 13.5723 13.9706 13.5483C13.9852 13.5357 13.9996 13.5226 14.0144 13.5104C14.0349 13.4936 14.056 13.4786 14.0768 13.4627C14.1038 13.4422 14.1309 13.4216 14.1586 13.4028C14.1963 13.3772 14.2341 13.3524 14.2729 13.33C14.2791 13.3264 14.2855 13.3231 14.2919 13.3195C14.3331 13.2963 14.3748 13.2748 14.4171 13.2553C14.4208 13.2537 14.4244 13.2517 14.428 13.2501C14.4718 13.2304 14.5161 13.2133 14.5608 13.198C14.5692 13.195 14.5777 13.1921 14.5862 13.1893C14.63 13.175 14.6743 13.1628 14.7188 13.1529C14.7266 13.1512 14.7348 13.1497 14.7426 13.1481C14.7893 13.1385 14.8361 13.1307 14.8832 13.1261L15.6087 13.0556C15.6789 13.0487 15.748 13.0478 15.8158 13.0525C15.9059 13.0587 15.9935 13.0749 16.0779 13.1006L14.478 12.6141Z" fill="url(#paint2_linear_1158_4804)"/>
<path fill-rule="evenodd" clip-rule="evenodd" d="M18.0894 27.7651L18.0891 27.765L17.5069 27.588L16.4896 27.2786H16.4895H16.4892C16.4825 27.2765 16.4753 27.2763 16.4684 27.2748C16.4538 27.2714 16.4392 27.2677 16.4241 27.2665H16.4235C16.4022 27.265 16.3805 27.2664 16.3587 27.2695C16.3519 27.2704 16.3452 27.2722 16.3383 27.2736C16.3229 27.2767 16.3076 27.2807 16.2922 27.2859C16.2845 27.2886 16.2769 27.2915 16.2693 27.2947C16.2538 27.3011 16.2384 27.309 16.2232 27.3176C16.2165 27.3214 16.2098 27.3246 16.2033 27.3289C16.2007 27.3304 16.1981 27.3315 16.1955 27.3332C16.183 27.3415 16.1707 27.3505 16.1586 27.3604C16.152 27.3656 16.1456 27.371 16.1393 27.3766L11.6656 31.3429C11.6543 31.3529 11.6426 31.3612 11.6309 31.3687C11.6271 31.371 11.6233 31.3729 11.6195 31.3751C11.6112 31.3797 11.603 31.3839 11.5947 31.3873C11.5905 31.3891 11.5863 31.3906 11.582 31.3921C11.5736 31.395 11.5653 31.397 11.557 31.3987C11.5533 31.3995 11.5495 31.4004 11.5458 31.401C11.5339 31.4026 11.5221 31.4032 11.5107 31.4025C11.4983 31.4016 11.4863 31.3995 11.4746 31.3959L11.4749 31.396L13.0748 31.8824C13.0863 31.8859 13.0983 31.888 13.1105 31.8889C13.1221 31.8898 13.1338 31.889 13.1457 31.8875C13.1494 31.8869 13.1532 31.8859 13.1569 31.8852C13.1652 31.8835 13.1735 31.8814 13.1819 31.8785C13.1861 31.8771 13.1903 31.8755 13.1946 31.8738C13.2029 31.8704 13.2111 31.8662 13.2193 31.8616C13.2232 31.8594 13.227 31.8575 13.2308 31.8551C13.2324 31.8541 13.2339 31.8535 13.2356 31.8525C13.2424 31.8479 13.2492 31.843 13.2558 31.8376C13.2591 31.8349 13.2624 31.8322 13.2656 31.8294L17.7392 27.8631L18.0234 27.753C18.046 27.7545 18.0679 27.7586 18.0894 27.7651Z" fill="url(#paint3_linear_1158_4804)"/>
<path fill-rule="evenodd" clip-rule="evenodd" d="M27.8888 13.5602C27.8179 13.5419 27.7462 13.5303 27.6736 13.5253C27.6378 13.5228 27.6016 13.5222 27.5656 13.523C27.5538 13.5231 27.5421 13.5243 27.5302 13.5248C27.5058 13.526 27.4813 13.5274 27.4568 13.53C27.4429 13.5314 27.429 13.5336 27.415 13.5355C27.3924 13.5386 27.3701 13.5421 27.3476 13.5463C27.3329 13.5491 27.3184 13.5522 27.3038 13.5555C27.2817 13.5605 27.2597 13.566 27.2377 13.5721C27.2232 13.576 27.2088 13.58 27.1943 13.5845C27.1718 13.5915 27.1493 13.5993 27.1268 13.6074C27.1132 13.6123 27.0996 13.6169 27.086 13.6223C27.061 13.632 27.0363 13.643 27.0115 13.6542C27.0007 13.6591 26.9898 13.6634 26.979 13.6685C26.9437 13.6855 26.9085 13.7037 26.8736 13.7233C26.8688 13.7261 26.8639 13.7294 26.859 13.7323C26.8291 13.7496 26.7993 13.7677 26.77 13.7871C26.7673 13.7887 26.7647 13.7901 26.7622 13.7918C26.7572 13.795 26.7526 13.7991 26.7477 13.8024C26.708 13.8292 26.6688 13.858 26.6303 13.8885C26.6249 13.8926 26.6194 13.8961 26.6141 13.9003C26.6109 13.9029 26.6079 13.9058 26.6047 13.9085C26.5698 13.9369 26.5352 13.9664 26.5013 13.9978L26.5011 13.998C26.4985 14.0004 26.4961 14.003 26.4935 14.0055C26.4657 14.0315 26.4382 14.0583 26.4111 14.0863C26.4102 14.0873 26.4092 14.0881 26.4083 14.0891C26.3898 14.1082 26.3719 14.1285 26.3539 14.1485C26.3452 14.1581 26.3365 14.1671 26.3279 14.1768C26.3275 14.1773 26.327 14.1778 26.3266 14.1783C26.3016 14.207 26.2771 14.2364 26.2531 14.2667C26.2521 14.268 26.2511 14.2694 26.25 14.2708C26.2442 14.2782 26.2386 14.2859 26.2328 14.2934C26.2172 14.3138 26.2013 14.3341 26.186 14.3552C26.1803 14.363 26.1747 14.3709 26.1691 14.3787L21.0066 21.6533C21.0023 21.6593 20.9981 21.6653 20.994 21.6715C20.9884 21.68 20.983 21.6885 20.9776 21.6973C20.9724 21.7058 20.9673 21.7145 20.9624 21.7233C20.9574 21.7321 20.9527 21.741 20.9481 21.7499V21.75L20.948 21.7501C20.9433 21.7592 20.9389 21.7682 20.9346 21.7774C20.9302 21.7868 20.926 21.7963 20.9219 21.8058C20.9178 21.8158 20.9138 21.8258 20.91 21.8359C20.908 21.841 20.9064 21.846 20.9046 21.8512C20.904 21.8528 20.9034 21.8543 20.9028 21.8559C20.9015 21.8598 20.9 21.8637 20.8987 21.8677C20.8949 21.879 20.8914 21.8903 20.8881 21.9018C20.8845 21.9141 20.8812 21.9267 20.8783 21.9392C20.8769 21.945 20.8758 21.9509 20.8745 21.9567C20.8739 21.9596 20.8733 21.9624 20.8728 21.9653C20.8715 21.9709 20.8702 21.9765 20.8692 21.9821C20.8659 21.9999 20.8632 22.0177 20.8611 22.0355C20.8601 22.0426 20.8601 22.0498 20.8596 22.0569C20.8587 22.0662 20.8581 22.0755 20.8575 22.0848C20.857 22.0945 20.8557 22.1042 20.8556 22.1137C20.8552 22.1301 20.8562 22.146 20.8569 22.1623C20.8571 22.1687 20.857 22.1754 20.8574 22.1819C20.8593 22.2095 20.8624 22.2368 20.8674 22.2632C20.868 22.2665 20.8692 22.2695 20.8698 22.2727C20.8713 22.2804 20.8736 22.2875 20.8753 22.2949C20.8786 22.3086 20.8814 22.3226 20.8856 22.3358C20.8895 22.3483 20.8942 22.3604 20.8987 22.3724C20.8994 22.374 20.8999 22.3756 20.9005 22.3772C20.901 22.3783 20.9013 22.3794 20.9017 22.3806C20.9066 22.3923 20.9119 22.4039 20.9175 22.4152C20.9224 22.4251 20.9277 22.4347 20.9332 22.4442C20.9367 22.4501 20.9404 22.4561 20.9441 22.4619C20.9442 22.4619 20.9442 22.4621 20.9443 22.4622L20.9444 22.4623C20.9445 22.4624 20.9446 22.4625 20.9446 22.4627C20.9448 22.4629 20.945 22.4633 20.9452 22.4635C20.9465 22.4656 20.9479 22.4677 20.9493 22.4698C20.9546 22.4776 20.96 22.4851 20.9657 22.4924C20.971 22.4994 20.9765 22.506 20.9822 22.5125C20.9836 22.5143 20.9853 22.5158 20.9868 22.5176C20.9877 22.5186 20.9887 22.5196 20.9897 22.5206C20.9928 22.524 20.9959 22.5275 20.999 22.5307C21.0047 22.5364 21.0104 22.5419 21.0163 22.5472C21.0222 22.5524 21.0281 22.5575 21.0343 22.5623C21.0348 22.5627 21.0354 22.563 21.0358 22.5634C21.0364 22.5638 21.0369 22.5641 21.0374 22.5645C21.0425 22.5685 21.0476 22.5724 21.0529 22.576C21.0594 22.5804 21.0658 22.5846 21.0725 22.5886C21.0776 22.5916 21.0828 22.5943 21.088 22.5971C21.0889 22.5975 21.0896 22.598 21.0905 22.5985C21.0914 22.5989 21.0923 22.5995 21.0931 22.5999C21.1004 22.6035 21.1077 22.6069 21.1152 22.6101C21.123 22.6134 21.131 22.6163 21.139 22.619C21.1415 22.6199 21.1439 22.6205 21.1465 22.6213H21.1466L21.2889 22.6647L22.7469 23.108C22.7467 23.1079 22.7466 23.1079 22.7464 23.1078C22.7271 23.1019 22.7085 23.0942 22.6903 23.0848C22.6895 23.0845 22.6888 23.084 22.688 23.0836C22.6704 23.0744 22.6535 23.0635 22.6372 23.051C22.6367 23.0507 22.6363 23.0503 22.6358 23.0499C22.6195 23.0373 22.6042 23.023 22.5895 23.0071C22.5886 23.0061 22.5877 23.0051 22.5867 23.004C22.5719 22.9876 22.5579 22.9697 22.5451 22.95C22.5448 22.9497 22.5446 22.9493 22.5444 22.949C22.5442 22.9487 22.5441 22.9485 22.544 22.9482C22.5269 22.9219 22.5125 22.8936 22.5004 22.8636C22.4997 22.8621 22.4992 22.8605 22.4988 22.8589C22.4889 22.8341 22.4816 22.808 22.4752 22.7814C22.4734 22.774 22.4712 22.7668 22.4697 22.7592C22.4637 22.7297 22.4594 22.6993 22.4574 22.6683C22.4569 22.6618 22.457 22.6552 22.4568 22.6487C22.4556 22.6232 22.456 22.5973 22.4575 22.5713C22.458 22.562 22.4585 22.5527 22.4594 22.5433C22.4622 22.5128 22.4663 22.4823 22.4726 22.4518C22.4732 22.4489 22.4738 22.4461 22.4744 22.4432C22.4818 22.4093 22.4912 22.3756 22.5027 22.3424C22.5033 22.3407 22.5038 22.3393 22.5044 22.3376C22.5293 22.2679 22.5632 22.2007 22.6064 22.1397L27.769 14.8653C27.7896 14.8361 27.811 14.8081 27.8325 14.7803C27.8384 14.7727 27.844 14.7647 27.8499 14.7572C27.8754 14.725 27.9013 14.6937 27.9278 14.6633C27.9366 14.6533 27.9457 14.6438 27.9548 14.6339C27.9734 14.6133 27.992 14.5925 28.011 14.5727C28.0384 14.5444 28.0664 14.5171 28.0947 14.4906C28.0968 14.4885 28.099 14.4863 28.1012 14.4843C28.1351 14.4529 28.1697 14.4233 28.2046 14.395C28.213 14.388 28.2216 14.3816 28.2302 14.3749C28.2689 14.3444 28.3079 14.3157 28.3476 14.2888C28.355 14.2838 28.3623 14.2784 28.3697 14.2735C28.3994 14.2541 28.4293 14.2358 28.4594 14.2184C28.4641 14.2157 28.4687 14.2126 28.4735 14.2099C28.5084 14.1901 28.5435 14.172 28.5789 14.155C28.5898 14.1499 28.6007 14.1456 28.6114 14.1406C28.6361 14.1295 28.661 14.1185 28.686 14.1087C28.6995 14.1034 28.7131 14.0987 28.7267 14.0939C28.7491 14.0857 28.7716 14.0779 28.7942 14.071C28.8087 14.0665 28.8231 14.0625 28.8376 14.0585C28.8596 14.0525 28.8816 14.0469 28.9038 14.042C28.9183 14.0387 28.9328 14.0356 28.9474 14.0328C28.9698 14.0286 28.9924 14.0251 29.0149 14.022C29.0288 14.0201 29.0428 14.0179 29.0567 14.0165C29.0812 14.0138 29.1057 14.0125 29.1301 14.0113C29.1419 14.0107 29.1537 14.0096 29.1654 14.0094C29.2016 14.0088 29.2376 14.0092 29.2734 14.0118C29.346 14.0168 29.4177 14.0284 29.4886 14.0467L27.8888 13.5602Z" fill="url(#paint4_linear_1158_4804)"/>
<path fill-rule="evenodd" clip-rule="evenodd" d="M26.1588 18.5556C26.1588 18.5575 26.1593 18.5593 26.1593 18.5612C26.1593 18.5621 26.1592 18.563 26.1592 18.5638C26.1592 18.561 26.1588 18.5583 26.1588 18.5556ZM26.1529 18.5028C26.1538 18.5063 26.1549 18.5098 26.1556 18.5135C26.156 18.5155 26.1558 18.5178 26.1561 18.5198C26.1552 18.5141 26.1542 18.5084 26.1529 18.5028ZM27.7551 18.9998C27.7537 18.9922 27.7517 18.9848 27.7495 18.9777C27.748 18.9732 27.7465 18.9687 27.7446 18.9643C27.7433 18.9611 27.7419 18.958 27.7404 18.9548C27.7401 18.9543 27.7398 18.9538 27.7396 18.9532C27.7377 18.9493 27.7357 18.9456 27.7335 18.9419C27.7325 18.94 27.7312 18.9383 27.7302 18.9365C27.73 18.9362 27.7298 18.936 27.7297 18.9357H27.7296H27.7297C27.7297 18.9357 27.7296 18.9357 27.7295 18.9356C27.7292 18.935 27.7289 18.9344 27.7284 18.9339C27.7269 18.9315 27.7251 18.9291 27.7234 18.9268C27.7216 18.9247 27.72 18.9225 27.7181 18.9205C27.7165 18.9185 27.7147 18.9166 27.7129 18.9148C27.7111 18.913 27.7093 18.9112 27.7074 18.9095C27.7056 18.908 27.7036 18.9063 27.7017 18.9048C27.7015 18.9046 27.7012 18.9044 27.7009 18.9043L27.7007 18.904C27.6991 18.9028 27.6975 18.9016 27.6958 18.9004C27.6938 18.899 27.6917 18.8977 27.6897 18.8965C27.6875 18.8952 27.6853 18.894 27.6831 18.8929C27.6808 18.8917 27.6785 18.8907 27.6761 18.8896C27.6735 18.8885 27.671 18.8876 27.6685 18.8868C27.6676 18.8865 27.6667 18.8862 27.666 18.886L26.0662 18.3996H26.066C26.0784 18.4033 26.0901 18.4093 26.1008 18.4175L26.1011 18.4178C26.1117 18.426 26.1213 18.4364 26.1296 18.4491C26.1298 18.4494 26.1301 18.4498 26.1303 18.4502C26.1339 18.4558 26.1374 18.4618 26.1404 18.4683C26.142 18.4715 26.1434 18.4746 26.1447 18.4779C26.1466 18.4822 26.1482 18.4867 26.1497 18.4913C26.1501 18.4926 26.1502 18.4941 26.1507 18.4956C26.1479 18.486 26.1447 18.4768 26.1404 18.4683L26.1552 18.6008C26.1569 18.5906 26.1579 18.5803 26.1584 18.5701C26.1581 18.5756 26.1579 18.581 26.1572 18.5866C26.1567 18.5912 26.156 18.5961 26.1552 18.6008L23.7898 32.0882C23.7873 32.1017 23.7831 32.1144 23.7773 32.1259C23.7773 32.1259 23.7772 32.126 23.7772 32.126C23.7716 32.1374 23.7644 32.1476 23.7563 32.156C23.7493 32.1633 23.7413 32.1686 23.7331 32.1729C23.7308 32.174 23.7286 32.1752 23.7262 32.1762C23.7177 32.1795 23.7089 32.1817 23.7 32.1812C23.6998 32.1812 23.6995 32.1813 23.6992 32.1813C23.6951 32.181 23.6913 32.1804 23.6875 32.1792L25.2873 32.6656C25.2911 32.6668 25.295 32.6675 25.2991 32.6678L25.2992 32.6678C25.2993 32.6678 25.2993 32.6678 25.2994 32.6678C25.2996 32.6678 25.2998 32.6677 25.2999 32.6677C25.3088 32.6682 25.3175 32.666 25.3261 32.6626C25.3284 32.6617 25.3306 32.6606 25.333 32.6593C25.3354 32.6581 25.338 32.6574 25.3404 32.6558C25.3426 32.6543 25.3447 32.6527 25.3469 32.651C25.3486 32.6496 25.3504 32.6482 25.352 32.6465C25.3535 32.6452 25.3548 32.6439 25.3562 32.6424C25.3563 32.6424 25.3563 32.6424 25.3563 32.6424C25.3576 32.6411 25.3588 32.6397 25.36 32.6383C25.3612 32.637 25.3622 32.6356 25.3633 32.6343C25.3644 32.633 25.3654 32.6316 25.3664 32.6303C25.3674 32.6289 25.3682 32.6276 25.3692 32.6262C25.3701 32.6248 25.371 32.6235 25.3717 32.6221C25.3726 32.6208 25.3735 32.6194 25.3743 32.6179C25.375 32.6166 25.3758 32.6151 25.3766 32.6137C25.3767 32.6133 25.377 32.6129 25.3772 32.6125L25.3773 32.6123C25.3778 32.6112 25.3783 32.6103 25.3787 32.6093C25.3794 32.6077 25.3801 32.6062 25.3808 32.6047C25.3815 32.6031 25.3821 32.6014 25.3827 32.5998C25.3834 32.5981 25.384 32.5964 25.3846 32.5946C25.3852 32.5929 25.3857 32.591 25.3863 32.5891C25.3868 32.5871 25.3874 32.5851 25.3879 32.583C25.3885 32.5807 25.3889 32.5783 25.3894 32.5759L25.3896 32.5747L27.755 19.0873L26.4576 18.6929L27.755 19.0873C27.7558 19.0826 27.7566 19.0778 27.7571 19.073C27.7582 19.0644 27.7588 19.0559 27.7589 19.0474C27.7593 19.031 27.758 19.015 27.7551 18.9998Z" fill="url(#paint5_linear_1158_4804)"/>
<path fill-rule="evenodd" clip-rule="evenodd" d="M23.2882 37.3827L24.3854 37.7163C24.3848 37.7161 24.3842 37.7159 24.3835 37.7157C24.3631 37.7095 24.3432 37.7019 24.3233 37.6945C24.313 37.6907 24.3026 37.6871 24.2926 37.683C24.2715 37.6744 24.2508 37.6649 24.2303 37.655C24.2256 37.6528 24.2208 37.6508 24.2161 37.6484C24.1914 37.636 24.1671 37.6225 24.1432 37.608C24.1367 37.6041 24.1303 37.5998 24.1239 37.5957C24.1066 37.5848 24.0896 37.5736 24.0729 37.5617C24.065 37.5562 24.0573 37.5503 24.0495 37.5446C24.0343 37.5332 24.0194 37.5213 24.0046 37.5092C23.9971 37.503 23.9896 37.4968 23.9821 37.4902C23.9662 37.4766 23.9508 37.4622 23.9356 37.4474C23.9301 37.4421 23.9244 37.437 23.9189 37.4315C23.8984 37.411 23.8784 37.3896 23.8591 37.3674C23.8551 37.3629 23.8514 37.3579 23.8475 37.3533C23.8322 37.3351 23.817 37.3165 23.8024 37.2972C23.794 37.2861 23.7859 37.2746 23.7778 37.263C23.7692 37.2512 23.7607 37.2393 23.7524 37.227C23.7428 37.2124 23.7336 37.1973 23.7243 37.1823C23.7175 37.1712 23.7104 37.1603 23.7039 37.1489C23.6898 37.1249 23.6764 37.1 23.6635 37.0746C23.6613 37.0702 23.6589 37.0663 23.6567 37.0619C23.6427 37.0338 23.6293 37.0051 23.6166 36.9754L15.5476 18.2237C15.5463 18.2206 15.5449 18.2177 15.5435 18.2147C15.542 18.2117 15.5403 18.2088 15.5387 18.2058C15.5371 18.2032 15.5355 18.2006 15.5338 18.1982C15.5337 18.1981 15.5336 18.198 15.5336 18.1979C15.5335 18.1979 15.5335 18.1978 15.5335 18.1978C15.532 18.1955 15.5304 18.1933 15.5289 18.1913C15.5272 18.1892 15.5254 18.1871 15.5238 18.1851C15.5221 18.1832 15.5203 18.1813 15.5185 18.1795C15.5177 18.1786 15.5169 18.1779 15.516 18.1771L15.5153 18.1764C15.5146 18.1757 15.5139 18.1749 15.5131 18.1743C15.5113 18.1726 15.5094 18.1711 15.5074 18.1695C15.5054 18.1679 15.5035 18.1665 15.5015 18.1652C15.4995 18.1638 15.4974 18.1624 15.4952 18.1611C15.495 18.1611 15.4949 18.1611 15.4948 18.161C15.4947 18.1609 15.4946 18.1608 15.4945 18.1607C15.4925 18.1596 15.4906 18.1584 15.4886 18.1575C15.4863 18.1563 15.4839 18.1552 15.4814 18.1543C15.4789 18.1531 15.4763 18.1521 15.4737 18.1513C15.4729 18.151 15.472 18.1508 15.4711 18.1505L13.8713 17.664V17.6641C13.8712 17.664 13.8712 17.664 13.8711 17.664C13.8794 17.6664 13.8872 17.6699 13.8946 17.6742C13.8947 17.6743 13.8948 17.6744 13.8949 17.6745C13.9022 17.6787 13.909 17.6839 13.9154 17.6899C13.9157 17.6901 13.9159 17.6904 13.9162 17.6907C13.9226 17.6967 13.9283 17.7036 13.9336 17.7112C13.9336 17.7113 13.9337 17.7113 13.9338 17.7114C13.939 17.7193 13.9438 17.7279 13.9478 17.7373L22.0167 36.489C22.0294 36.5186 22.0429 36.5474 22.0569 36.5754C22.0571 36.5758 22.0573 36.5763 22.0574 36.5767C22.0594 36.5806 22.0616 36.5842 22.0636 36.588C22.0766 36.6134 22.0899 36.6384 22.104 36.6625C22.1052 36.6646 22.1062 36.6669 22.1075 36.669C22.1129 36.6781 22.1188 36.6867 22.1243 36.6956C22.1337 36.7108 22.1429 36.726 22.1527 36.7405C22.1545 36.7433 22.1562 36.7463 22.158 36.7492C22.1643 36.7585 22.1712 36.7672 22.1777 36.7764C22.1841 36.7854 22.1902 36.7948 22.1968 36.8036C22.1987 36.8061 22.2007 36.8082 22.2025 36.8108C22.2046 36.8136 22.2068 36.8168 22.2089 36.8196C22.2214 36.8359 22.2346 36.8513 22.2477 36.8668C22.2516 36.8714 22.2553 36.8763 22.2591 36.8808C22.2598 36.8816 22.2604 36.8824 22.2609 36.8831C22.2783 36.903 22.2962 36.9221 22.3144 36.9406C22.3159 36.9421 22.3175 36.9435 22.319 36.945C22.3245 36.9506 22.3303 36.9557 22.3358 36.961C22.3471 36.9718 22.358 36.9829 22.3695 36.9931C22.3737 36.9969 22.3781 37.0002 22.3822 37.0038C22.3897 37.0102 22.3972 37.0165 22.4048 37.0227C22.4121 37.0288 22.4193 37.0352 22.4266 37.0411C22.4341 37.047 22.442 37.0524 22.4497 37.058C22.4574 37.0638 22.4651 37.0697 22.473 37.0753C22.4774 37.0784 22.4816 37.0819 22.4861 37.0849C22.4985 37.0935 22.5114 37.1012 22.524 37.1092C22.5305 37.1133 22.5367 37.1177 22.5432 37.1215C22.5451 37.1226 22.5467 37.1239 22.5485 37.1249C22.57 37.1378 22.5921 37.1499 22.6144 37.1612C22.615 37.1614 22.6156 37.1617 22.6163 37.162C22.6209 37.1644 22.6258 37.1663 22.6305 37.1686C22.6483 37.1772 22.6662 37.1858 22.6846 37.1935C22.6872 37.1946 22.69 37.1954 22.6926 37.1966C22.7028 37.2007 22.7131 37.2042 22.7234 37.2081C22.7357 37.2126 22.7478 37.2176 22.7602 37.2218C22.7679 37.2244 22.7757 37.2269 22.7835 37.2292C22.7838 37.2293 22.7839 37.2294 22.7841 37.2294L23.2882 37.3827Z" fill="url(#paint6_linear_1158_4804)"/>
<path fill-rule="evenodd" clip-rule="evenodd" d="M25.9068 35.2121L29.2973 15.8799C29.4855 14.8073 29.049 13.859 28.2759 13.6597L27.8888 13.5598C27.8179 13.5417 27.7462 13.53 27.6736 13.525C27.1421 13.4883 26.5773 13.8031 26.1691 14.3785L21.0066 21.653C20.8314 21.9003 20.8051 22.2483 20.9452 22.4633C21.0148 22.5698 21.1141 22.6276 21.2222 22.635C21.3328 22.6426 21.4527 22.5976 21.5586 22.4988L25.9354 18.4378C25.9692 18.4062 26.0071 18.3923 26.0418 18.3947C26.0824 18.3976 26.1188 18.4224 26.1403 18.4679C26.1585 18.505 26.1633 18.5527 26.1549 18.6004L23.7895 32.0878C23.78 32.1419 23.7398 32.1837 23.6991 32.181C23.6773 32.1794 23.659 32.1649 23.6488 32.1424L15.314 13.4074C15.0891 12.9028 14.6857 12.598 14.2151 12.5656C14.1473 12.5609 14.0782 12.5618 14.008 12.5687L13.2824 12.6392C12.4498 12.7196 11.6836 13.5933 11.4934 14.6772L8.11015 33.9682C7.91307 35.0919 8.40081 36.0701 9.2288 36.2105L9.90035 36.3248C9.9337 36.3304 9.96738 36.3344 10.0011 36.3368C10.465 36.3688 10.955 36.0928 11.3066 35.5935L16.6164 28.0544C16.7583 27.853 16.7749 27.5702 16.6555 27.4026C16.5953 27.3183 16.5126 27.2724 16.423 27.2663C16.3297 27.2599 16.2292 27.2964 16.1387 27.3764L11.6651 31.3426C11.6152 31.3865 11.5606 31.4058 11.51 31.4023C11.4476 31.398 11.3916 31.3585 11.3597 31.2872C11.3353 31.2323 11.3283 31.1631 11.3404 31.0938L13.6641 17.8446C13.683 17.7362 13.7645 17.6536 13.8453 17.6591C13.8892 17.6622 13.9265 17.6904 13.9464 17.7369L22.0153 36.4886C22.2166 36.9566 22.5862 37.2431 23.0227 37.2732C23.0419 37.2745 23.061 37.2754 23.0806 37.2757L23.9432 37.2899C24.8339 37.3047 25.7007 36.3871 25.9068 35.2121ZM23.1136 2.69165C32.1881 3.31772 37.8274 13.6134 35.7096 25.6883C33.5919 37.7631 24.5193 47.0438 15.4449 46.4178C6.37062 45.7916 0.73086 35.496 2.84858 23.4212C4.96623 11.3463 14.0393 2.06566 23.1136 2.69165Z" fill="url(#paint7_linear_1158_4804)"/>
<path fill-rule="evenodd" clip-rule="evenodd" d="M6.12425 42.0086C12.6167 49.2515 23.362 47.2437 30.1251 37.5237C36.8882 27.804 37.109 14.0514 30.6165 6.80853C24.1239 -0.434385 13.3771 1.57558 6.61404 11.2954C-0.149051 21.0153 -0.368312 34.7657 6.12425 42.0086ZM31.5828 5.17865C38.6565 13.1423 38.4172 28.1404 31.0945 38.7301C23.7894 49.2983 12.1935 51.486 5.15912 43.6386C-1.91604 35.6769 -1.67691 20.679 5.64727 10.087C12.9524 -0.480978 24.5483 -2.66875 31.5828 5.17865Z" fill="url(#paint8_linear_1158_4804)"/>
<defs>
<linearGradient id="paint0_linear_1158_4804" x1="24.5597" y1="4.49481" x2="14.4456" y2="44.4465" gradientUnits="userSpaceOnUse">
<stop/>
<stop offset="0.318456" stop-color="white"/>
<stop offset="1"/>
</linearGradient>
<linearGradient id="paint1_linear_1158_4804" x1="1.39453" y1="2.46049" x2="1.39453" y2="46.1612" gradientUnits="userSpaceOnUse">
<stop/>
<stop offset="1" stop-color="#7E7E7E"/>
</linearGradient>
<linearGradient id="paint2_linear_1158_4804" x1="8.06738" y1="12.5631" x2="8.06738" y2="36.6631" gradientUnits="userSpaceOnUse">
<stop/>
<stop offset="1" stop-color="#686868"/>
</linearGradient>
<linearGradient id="paint3_linear_1158_4804" x1="11.4746" y1="27.2659" x2="11.4746" y2="31.8893" gradientUnits="userSpaceOnUse">
<stop/>
<stop offset="1" stop-color="#686868"/>
</linearGradient>
<linearGradient id="paint4_linear_1158_4804" x1="20.8555" y1="13.5227" x2="20.8555" y2="23.108" gradientUnits="userSpaceOnUse">
<stop/>
<stop offset="1" stop-color="#686868"/>
</linearGradient>
<linearGradient id="paint5_linear_1158_4804" x1="23.6875" y1="18.3996" x2="23.6875" y2="32.6678" gradientUnits="userSpaceOnUse">
<stop/>
<stop offset="1" stop-color="#686868"/>
</linearGradient>
<linearGradient id="paint6_linear_1158_4804" x1="13.8711" y1="17.664" x2="13.8711" y2="37.7163" gradientUnits="userSpaceOnUse">
<stop/>
<stop offset="1" stop-color="#686868"/>
</linearGradient>
<linearGradient id="paint7_linear_1158_4804" x1="2.40332" y1="2.66176" x2="2.40332" y2="46.4477" gradientUnits="userSpaceOnUse">
<stop stop-color="white"/>
<stop offset="1" stop-color="#F3F3F3"/>
</linearGradient>
<linearGradient id="paint8_linear_1158_4804" x1="0" y1="0.472168" x2="0" y2="48.3451" gradientUnits="userSpaceOnUse">
<stop stop-color="#4D4D4D"/>
<stop offset="1"/>
</linearGradient>
</defs>
</svg>
