<svg viewBox="0 0 21 21" fill="none" xmlns="http://www.w3.org/2000/svg">
<path d="M10.3333 19.6667C15.488 19.6667 19.6667 15.488 19.6667 10.3333C19.6667 5.17868 15.488 1 10.3333 1C5.17868 1 1 5.17868 1 10.3333C1 15.488 5.17868 19.6667 10.3333 19.6667Z" stroke="currentColor"/>
<path d="M9.12987 12.6894V12.5643C9.13308 11.9837 9.18841 11.5219 9.29586 11.1787C9.40331 10.8355 9.55647 10.5588 9.75533 10.3487C9.95419 10.1386 10.1964 9.94539 10.4818 9.76898C10.6775 9.6471 10.8531 9.51319 11.0087 9.36724C11.1642 9.2213 11.2869 9.05772 11.3767 8.8765C11.4665 8.69528 11.5114 8.49241 11.5114 8.26788C11.5114 8.01449 11.4521 7.79478 11.3334 7.60875C11.2147 7.42271 11.0552 7.27837 10.8547 7.17574C10.6542 7.0731 10.4305 7.02178 10.1835 7.02178C9.9558 7.02178 9.74009 7.07069 9.53642 7.16852C9.33274 7.26635 9.16435 7.41389 9.03124 7.61115C8.89813 7.80841 8.82356 8.05779 8.80752 8.35929H7.09473C7.11076 7.74987 7.25911 7.23989 7.53976 6.82933C7.82042 6.41877 8.19249 6.11085 8.65597 5.90557C9.11945 5.7003 9.63184 5.59766 10.1932 5.59766C10.8058 5.59766 11.3454 5.70511 11.8121 5.92001C12.2788 6.13491 12.6429 6.44042 12.9043 6.83654C13.1657 7.23267 13.2964 7.70176 13.2964 8.24383C13.2964 8.60948 13.2378 8.93664 13.1208 9.22531C13.0037 9.51399 12.8377 9.77059 12.6228 9.99511C12.4079 10.2196 12.1529 10.4201 11.8578 10.5965C11.598 10.7569 11.3855 10.9237 11.2203 11.0969C11.0552 11.2701 10.9333 11.473 10.8547 11.7055C10.7761 11.938 10.7352 12.2243 10.732 12.5643V12.6894H9.12987ZM9.96702 15.6916C9.67835 15.6916 9.42977 15.589 9.22128 15.3837C9.0128 15.1784 8.90856 14.9282 8.90856 14.6331C8.90856 14.3444 9.0128 14.0975 9.22128 13.8922C9.42977 13.6869 9.67835 13.5843 9.96702 13.5843C10.2525 13.5843 10.5003 13.6869 10.7104 13.8922C10.9204 14.0975 11.0255 14.3444 11.0255 14.6331C11.0255 14.8288 10.9766 15.0068 10.8787 15.1672C10.7809 15.3275 10.6526 15.455 10.4939 15.5497C10.3351 15.6443 10.1595 15.6916 9.96702 15.6916Z" fill="currentColor"/>
</svg>
